<?xml version="1.0" encoding="utf-8"?>
<!-- Generator: Adobe Illustrator 23.0.1, SVG Export Plug-In . SVG Version: 6.00 Build 0)  -->
<svg version="1.1" id="레이어_1" xmlns="http://www.w3.org/2000/svg" xmlns:xlink="http://www.w3.org/1999/xlink" x="0px"
	 y="0px" viewBox="0 0 1200 941" width="1200px" height="941px" style="enable-background:new 0 0 1200 941;" xml:space="preserve">
<style type="text/css">
	.st0{display:none;}
	.st1{display:inline;fill:#BEC8D1;}
	.st2{fill:#AAB7C2;stroke:#AAB7C2;stroke-width:8;stroke-miterlimit:10;}
	.st3{fill:#AAB7C2;}
	.st4{fill:#FFFFFF;}
	.st5{fill:none;stroke:#EFEFEF;stroke-width:3;stroke-miterlimit:10;}
	.st6{fill:#EFEFEF;}
	.st7{fill:none;stroke:#EFEFEF;stroke-miterlimit:10;}
	.st8{fill:#EFEFEF;stroke:#EFEFEF;stroke-miterlimit:10;}
	.st9{fill:#D4EAF7;stroke:#EFEFEF;stroke-width:3;stroke-miterlimit:10;}
	.st10{fill:#EFEFEF;stroke:#EFEFEF;stroke-width:3;stroke-miterlimit:10;}
	.st11{fill:#F8F8F8;stroke:#EFEFEF;stroke-width:3;stroke-miterlimit:10;}
	.st12{fill:none;stroke:#EFEFEF;stroke-width:2;stroke-miterlimit:10;}
	.st13{fill:none;stroke:#6D6D7C;stroke-width:8;stroke-miterlimit:10;}
	.st14{font-family:'NotoSansCJKkr-Regular-KSCpc-EUC-H';}
	.st15{font-size:22px;}
	.st26{opacity:0.6;}
</style>
<g id="바탕" class="st0">
	<rect y="0" class="st1" width="1200" height="941"/>
</g>
<g id="배경">
	<g id="그림자_1_">
		<path class="st2" d="M664.6,397.2"/>
		<g>
			<path class="st3" d="M377.4,920.1V853l-10.8-46.7H37.1V563.6c0-0.8,0.6-1.4,1.4-1.4h17.3c5.2,0,9.4-4.2,9.4-9.4V423.9h-39V20.5
				h802.1l8.1,17.5c1.1,2.5,3.6,4.1,6.4,4.1h223.5l-22.4,279.5c-0.2,1.9,0.5,3.9,1.8,5.3c1.3,1.4,3.2,2.3,5.2,2.3h11.9
				c0.1,0.4,0.1,1.1,0.1,2v318.9l-30.4,0c-3.9,0-7,3.1-7,7v14.1c0,3.9,3.1,7,7,7h23.1l-0.9,67.3H939.9v-23.9c0-3.9-3.1-7-7-7h-18.5
				v-73.2c0-3.9-3.1-7-7-7h-67l0.9-56.5c0-1.9-0.7-3.7-2-5c-1.3-1.4-3.1-2.1-5-2.1l-179.6-0.3v-75.7c3-2.4,6-8.4,9.7-21.9
				c2.9-10.2,4.9-20.2,4.9-20.7l0.1-0.4v-51.2l-0.1-0.5c-8.3-33.2-25.3-46.5-27.1-47.9c-13.8-11.5-27.7-17.3-41.3-17.3
				c-34,0-53.5,35.5-54.4,37l-0.1,0.1l-0.1,0.1c-1,2.2-25,55.1-4.4,103.4l0.1,0.2l10.2,18.1c10.2,80.6-21,179.3-24.3,189.4l-1.6,1.7
				l49.8,235.1H377.4z"/>
			<path class="st3" d="M825.7,24.5l7,15.2c1.8,3.9,5.7,6.4,10,6.4h219.1l-22,275.2c-0.2,3.1,0.8,6.1,2.9,8.4c2.1,2.3,5,3.5,8.1,3.5
				h8.1v312.9h-26.4c-6.1,0-11,4.9-11,11v14.1c0,6.1,4.9,11,11,11h19l-0.8,59.3H943.9v-19.9c0-6.1-4.9-11-11-11h-14.5v-69.2
				c0-6.1-4.9-11-11-11h-63l0.8-52.4c0-3-1.1-5.8-3.2-7.9c-2.1-2.1-4.9-3.3-7.8-3.3l-175.6-0.3v-70.1c3.8-4.2,6.7-11.9,9.6-22.4
				c2.9-10.4,4.9-20.5,5-20.9l0.2-0.8v-0.8v-50.3v-1l-0.2-1c-8.5-33.7-25.9-48-28.5-50c-14.5-12-29.3-18.1-43.8-18.1
				c-36.3,0-57,37.5-57.9,39.1l-0.1,0.2l-0.1,0.2c-0.3,0.6-6.6,14.4-10.3,34.2c-5,26.6-3,51.6,5.9,72.4l0.2,0.4l0.2,0.4l9.7,17.2
				c5.3,43.2-1.5,91.5-8.2,124.5c-6.3,31.3-13.7,55.1-15.8,61.5l-2.5,2.6l0.9,4.1l48.3,228.2H381.4v-62.7v-0.9l-0.2-0.9l-10-43.2
				l-1.4-6.2h-6.4H41.1V566.2h14.7c7.4,0,13.4-6,13.4-13.4V427.9v-8h-8h-31V239.5v-215h114.4h3H825.7 M828.9,16.5H147.6h-3H22.2v223
				v188.4h39v124.9c0,3-2.4,5.4-5.4,5.4H38.5c-3,0-5.4,2.4-5.4,5.4v246.7h330.3l10,43.2v70.7H581l-50.4-237.9l0.8-0.8
				c0,0,35.8-106.1,24.6-192.8l-10.5-18.6c-20.1-47.2,4.4-100.1,4.4-100.1s18.9-34.9,50.8-34.9c11.4,0,24.4,4.4,38.8,16.4
				c0,0,17.3,12.4,25.7,45.7v50.3c0,0-8.1,40.7-14.7,40.7c0,0-0.1,0-0.1,0v79.3c0,1.7,1.4,3,3,3l180.6,0.3c1.7,0,3,1.4,3,3.1
				l-0.9,57.5c0,1.7,1.3,3.1,3,3.1h68c1.7,0,3,1.4,3,3v74.2c0,1.7,1.4,3,3,3h19.5c1.7,0,3,1.4,3,3v24.9c0,1.7,1.4,3,3,3h116.7
				c1.7,0,3-1.3,3-3l0.9-69.3c0-1.7-1.3-3.1-3-3.1h-24.1c-1.7,0-3-1.4-3-3v-14.1c0-1.7,1.4-3,3-3h31.4c1.1,0,2.1-0.6,2.6-0.6
				c0.3,0,0.4,0.1,0.4,0.6V331.2c0-4.7-1.4-6-3-6h-13.1c-1.8,0-3.1-1.5-3-3.3l22.5-280.6c0.1-1.8-1.2-3.3-3-3.3H842.8
				c-1.2,0-2.2-0.7-2.7-1.7l-8.4-18.1C831.1,17.2,830.1,16.5,828.9,16.5L828.9,16.5z"/>
		</g>
	</g>
	<polyline id="배경2" class="st4" points="281.2,587.1 258.8,609.6 164.9,609.6 164.9,711 344.5,711 344.5,722.9 364.9,722.8 
		364.9,613.9 339.6,587.1 281.2,587.1 	"/>
	<path id="배경_1_" class="st4" d="M1063.2,29H833.5v-9.6H137.2h0H14.9v223v178.4h39V561H25.8v242.1H366v53.2V915h207.6
		l-49.5-239.6c0,0,35.8-106.1,24.6-192.8L538.3,464c-20.1-47.2,4.4-100.1,4.4-100.1c32.8-54.2,76.9-25.3,76.9-25.3h7l4.1,0.8
		c28.8,26.4,32.5,52.1,32.5,52.1l0.6,6.7v94.1h-16v75.3h181.3v63.6H903v80.2h25.5v30.9h122.7v-76.3h-10.2V646h17.5l1-325.9h-19.4
		L1063.2,29z M344.5,722.9V711H164.9V609.6h93.9l22.5-22.5h58.3l25.3,24.8v104.9v5.4v0.6h5.6v0H344.5z M411.2,730.2
		c-0.1,3.5,2.2,8.3,8.2,14.5C419.4,744.7,410.6,737,411.2,730.2z M474.3,723.6c-8.6-0.4-18.8-1.4-29.7-3.7
		C444.6,719.9,458.7,722.6,474.3,723.6z"/>
	<g id="부속">
		<polyline class="st5" points="488.3,312.7 488.3,270.9 338.5,270.9 338.5,489.6 467,489.6 467,497.9 454.1,497.9 454.1,525.6 
			461.4,525.6 		"/>
		<g>
			<rect x="34.7" y="29" class="st6" width="17.4" height="12.8"/>
			<rect x="56.7" y="29" class="st6" width="17.4" height="12.8"/>
			<rect x="34.7" y="73.9" class="st6" width="17.4" height="12.8"/>
			<rect x="56.7" y="73.9" class="st6" width="17.4" height="12.8"/>
			<rect x="34.7" y="96.7" class="st6" width="17.4" height="12.8"/>
			<rect x="56.7" y="96.7" class="st6" width="17.4" height="12.8"/>
			<rect x="34.7" y="142.4" class="st6" width="17.4" height="12.8"/>
			<rect x="56.7" y="142.4" class="st6" width="17.4" height="12.8"/>
			<rect x="34.7" y="164.4" class="st6" width="17.4" height="12.8"/>
			<rect x="56.7" y="164.4" class="st6" width="17.4" height="12.8"/>
			<rect x="95.4" y="30" class="st6" width="13.8" height="10.8"/>
			<rect x="95.4" y="55.3" class="st6" width="13.8" height="10.8"/>
			<rect x="95.4" y="80.7" class="st6" width="13.8" height="10.8"/>
			<rect x="95.4" y="106.1" class="st6" width="13.8" height="10.8"/>
		</g>
		<g>
			<rect x="52.1" y="202.8" class="st6" width="15.1" height="11.6"/>
			<rect x="52.1" y="221" class="st6" width="15.1" height="11.6"/>
			<rect x="74.1" y="202.8" class="st6" width="15.1" height="11.6"/>
			<rect x="74.1" y="221" class="st6" width="15.1" height="11.6"/>
			<rect x="96.2" y="202.8" class="st6" width="15.1" height="11.6"/>
			<rect x="96.2" y="221" class="st6" width="15.1" height="11.6"/>
			<rect x="118.3" y="202.8" class="st6" width="15.1" height="11.6"/>
			<rect x="118.3" y="221" class="st6" width="15.1" height="11.6"/>
		</g>
		<rect x="268.1" y="44.8" class="st5" width="39.1" height="84"/>
		<rect x="337.8" y="44.8" class="st5" width="27.9" height="84.8"/>
		<rect x="365.6" y="44.8" class="st5" width="44.9" height="84.8"/>
		<rect x="263" y="145.1" class="st5" width="147.5" height="57.7"/>
		<g>
			<rect x="450.4" y="32.8" class="st6" width="17.8" height="7.9"/>
			<rect x="474" y="32.8" class="st6" width="17.8" height="7.9"/>
			<rect x="497.6" y="32.8" class="st6" width="17.8" height="7.9"/>
			<rect x="450.4" y="44.8" class="st6" width="17.8" height="7.9"/>
			<rect x="474" y="44.8" class="st6" width="17.8" height="7.9"/>
			<rect x="497.6" y="44.8" class="st6" width="17.8" height="7.9"/>
			<rect x="450.4" y="56.8" class="st6" width="17.8" height="7.9"/>
			<rect x="474" y="56.8" class="st6" width="17.8" height="7.9"/>
			<rect x="497.6" y="56.8" class="st6" width="17.8" height="7.9"/>
			<rect x="450.4" y="68.8" class="st6" width="17.8" height="7.9"/>
			<rect x="474" y="68.8" class="st6" width="17.8" height="7.9"/>
			<rect x="497.6" y="68.8" class="st6" width="17.8" height="7.9"/>
			<rect x="450.4" y="80.8" class="st6" width="17.8" height="7.9"/>
			<rect x="474" y="80.8" class="st6" width="17.8" height="7.9"/>
			<rect x="497.6" y="80.8" class="st6" width="17.8" height="7.9"/>
			<rect x="450.4" y="92.8" class="st6" width="17.8" height="7.9"/>
			<rect x="474" y="92.8" class="st6" width="17.8" height="7.9"/>
			<rect x="497.6" y="92.8" class="st6" width="17.8" height="7.9"/>
			<rect x="450.4" y="104.8" class="st6" width="17.8" height="7.9"/>
			<rect x="474" y="104.8" class="st6" width="17.8" height="7.9"/>
			<rect x="497.6" y="104.8" class="st6" width="17.8" height="7.9"/>
			<rect x="450.4" y="116.8" class="st6" width="17.8" height="7.9"/>
			<rect x="474" y="116.8" class="st6" width="17.8" height="7.9"/>
			<rect x="497.6" y="116.8" class="st6" width="17.8" height="7.9"/>
			<rect x="450.4" y="128.8" class="st6" width="17.8" height="7.9"/>
			<rect x="474" y="128.8" class="st6" width="17.8" height="7.9"/>
			<rect x="497.6" y="128.8" class="st6" width="17.8" height="7.9"/>
			<rect x="450.4" y="140.8" class="st6" width="17.8" height="7.9"/>
			<rect x="474" y="140.8" class="st6" width="17.8" height="7.9"/>
			<rect x="497.6" y="140.8" class="st6" width="17.8" height="7.9"/>
			<rect x="450.4" y="152.8" class="st6" width="17.8" height="7.9"/>
			<rect x="474" y="152.8" class="st6" width="17.8" height="7.9"/>
			<rect x="497.6" y="152.8" class="st6" width="17.8" height="7.9"/>
			<rect x="450.4" y="164.8" class="st6" width="17.8" height="7.9"/>
			<rect x="474" y="164.8" class="st6" width="17.8" height="7.9"/>
			<rect x="497.6" y="164.8" class="st6" width="17.8" height="7.9"/>
			<rect x="450.4" y="176.8" class="st6" width="17.8" height="7.9"/>
			<rect x="474" y="176.8" class="st6" width="17.8" height="7.9"/>
			<rect x="497.6" y="176.8" class="st6" width="17.8" height="7.9"/>
		</g>
		<g>
			<rect x="542.1" y="25.5" class="st6" width="13.5" height="13.5"/>
			<rect x="560.7" y="25.5" class="st6" width="13.5" height="13.5"/>
			<rect x="542.1" y="66" class="st6" width="13.5" height="13.5"/>
			<rect x="560.7" y="66" class="st6" width="13.5" height="13.5"/>
			<rect x="542.1" y="96" class="st6" width="13.5" height="13.5"/>
			<rect x="560.7" y="96" class="st6" width="13.5" height="13.5"/>
			<rect x="583.6" y="96" class="st6" width="13.5" height="13.5"/>
			<rect x="602.1" y="96" class="st6" width="13.5" height="13.5"/>
			<rect x="620" y="96" class="st6" width="13.5" height="13.5"/>
			<rect x="638.5" y="96" class="st6" width="13.5" height="13.5"/>
			<rect x="583.6" y="66" class="st6" width="13.5" height="13.5"/>
			<rect x="602.1" y="66" class="st6" width="13.5" height="13.5"/>
			<rect x="620" y="66" class="st6" width="13.5" height="13.5"/>
			<rect x="638.5" y="66" class="st6" width="13.5" height="13.5"/>
			<rect x="583.6" y="26.1" class="st6" width="13.5" height="13.5"/>
			<rect x="602.1" y="26.1" class="st6" width="13.5" height="13.5"/>
			<rect x="620" y="26.1" class="st6" width="13.5" height="13.5"/>
			<rect x="638.5" y="26.1" class="st6" width="13.5" height="13.5"/>
			<rect x="658.3" y="96" class="st6" width="13.5" height="13.5"/>
			<rect x="658.3" y="66" class="st6" width="13.5" height="13.5"/>
			<rect x="658.3" y="26.1" class="st6" width="13.5" height="13.5"/>
			<rect x="696.2" y="25.5" class="st6" width="13.5" height="13.5"/>
			<rect x="714.8" y="25.5" class="st6" width="13.5" height="13.5"/>
			<rect x="696.2" y="66" class="st6" width="13.5" height="13.5"/>
			<rect x="714.8" y="66" class="st6" width="13.5" height="13.5"/>
			<rect x="696.2" y="96" class="st6" width="13.5" height="13.5"/>
			<rect x="714.8" y="96" class="st6" width="13.5" height="13.5"/>
			<rect x="737.6" y="96" class="st6" width="13.5" height="13.5"/>
			<rect x="756.2" y="96" class="st6" width="13.5" height="13.5"/>
			<rect x="774" y="96" class="st6" width="13.5" height="13.5"/>
			<rect x="792.6" y="96" class="st6" width="13.5" height="13.5"/>
			<rect x="737.6" y="66" class="st6" width="13.5" height="13.5"/>
			<rect x="756.2" y="66" class="st6" width="13.5" height="13.5"/>
			<rect x="774" y="66" class="st6" width="13.5" height="13.5"/>
			<rect x="792.6" y="66" class="st6" width="13.5" height="13.5"/>
			<rect x="737.6" y="26.1" class="st6" width="13.5" height="13.5"/>
			<rect x="756.2" y="26.1" class="st6" width="13.5" height="13.5"/>
			<rect x="774" y="26.1" class="st6" width="13.5" height="13.5"/>
			<rect x="792.6" y="26.1" class="st6" width="13.5" height="13.5"/>
			<rect x="812.3" y="96" class="st6" width="13.5" height="13.5"/>
			<rect x="812.3" y="66" class="st6" width="13.5" height="13.5"/>
			<rect x="812.3" y="26.1" class="st6" width="13.5" height="13.5"/>
		</g>
		<g>
			<rect x="433.5" y="20.4" class="st5" width="97.5" height="182.3"/>
			<rect x="531" y="126.8" class="st5" width="87.9" height="76"/>
			<rect x="531" y="20.4" class="st5" width="303.5" height="106.3"/>
		</g>
		<g>
			<rect x="834.6" y="28.7" class="st5" width="90.3" height="170.3"/>
			<rect x="924.9" y="140.8" class="st5" width="52.1" height="89.7"/>
			<rect x="834.6" y="199" class="st5" width="90.3" height="31.5"/>
		</g>
		<g>
			<rect x="164.1" y="632.6" class="st5" width="29.9" height="79.5"/>
			<rect x="194" y="632.6" class="st5" width="19.6" height="79.5"/>
			<rect x="213.6" y="632.6" class="st5" width="27.4" height="79.5"/>
			<rect x="241" y="632.6" class="st5" width="39.7" height="79.5"/>
			<rect x="280.7" y="691.4" class="st5" width="27.4" height="20.6"/>
			<rect x="280.7" y="632.6" class="st5" width="27.4" height="58.8"/>
			<rect x="308.1" y="632.6" class="st5" width="36.1" height="79.5"/>
		</g>
		<g>
			<rect x="363.8" y="607.3" class="st6" width="37.7" height="9.8"/>
			<rect x="399.4" y="583.5" class="st6" width="2.1" height="33.5"/>
		</g>
		<rect x="417" y="557.7" class="st5" width="9.3" height="9.3"/>
		<rect x="434.5" y="557.7" class="st5" width="9.3" height="9.3"/>
		<rect x="452.1" y="557.7" class="st5" width="9.3" height="9.3"/>
		<rect x="240.5" y="144.8" class="st5" width="170.1" height="58"/>
		<rect x="246.7" y="44.8" class="st5" width="163.9" height="84.8"/>
		<polyline class="st5" points="125.8,20.4 125.8,144.8 240.5,144.8 		"/>
		<rect x="12.9" y="192.8" class="st5" width="136.3" height="51.1"/>
		<rect x="162" y="243.9" class="st5" width="60.4" height="23.3"/>
		<polyline class="st5" points="93.4,243.9 93.4,285.2 52.1,285.2 		"/>
		<polyline class="st5" points="14.5,267.2 32.3,267.2 32.3,299.5 		"/>
		<line class="st5" x1="149.1" y1="267.2" x2="149.1" y2="290.6"/>
		<polyline class="st5" points="274.7,344.4 274.7,425 245.2,425 245.2,397.1 274.7,397.5 		"/>
		<polyline class="st5" points="373.8,567 401.5,567 401.5,525.6 		"/>
		<line class="st5" x1="338.5" y1="525.6" x2="443.8" y2="525.6"/>
		<path class="st5" d="M399.4,525.6"/>
		<path class="st5" d="M400.5,489.6"/>
		<rect x="338.5" y="489.6" class="st5" width="61.9" height="36"/>
		<polyline class="st5" points="461.4,270.9 461.4,311.1 452.1,311.1 		"/>
		<line class="st5" x1="493" y1="312.7" x2="484.1" y2="312.7"/>
		<line class="st5" x1="519.5" y1="312.7" x2="510.6" y2="312.7"/>
		<line class="st5" x1="546.2" y1="312.7" x2="537.3" y2="312.7"/>
		<line class="st5" x1="572.9" y1="312.7" x2="564" y2="312.7"/>
		<polyline class="st5" points="488.3,270.9 515,270.9 515,312.7 		"/>
		<polyline class="st5" points="515,270.9 541.8,270.9 541.8,312.7 		"/>
		<polyline class="st5" points="541.8,270.9 568.5,270.9 568.5,312.7 		"/>
		<polyline class="st5" points="463.9,338.4 475.6,338.4 475.6,416.6 463.9,416.6 463.9,489.6 		"/>
		<polyline class="st5" points="504,453.7 504,458.9 464,458.9 		"/>
		<polyline class="st5" points="504,429.5 504,434.6 464,434.6 		"/>
		<polyline class="st5" points="504.1,405.2 504.1,410.4 475.6,410.4 		"/>
		<polyline class="st5" points="504.1,380.6 504.1,385.8 475.6,385.8 		"/>
		<polyline class="st5" points="504.1,356 504.1,361.2 475.6,361.2 		"/>
		<polyline class="st5" points="549.1,491.9 497.8,491.9 490.5,491.9 		"/>
		<polyline class="st5" points="491.6,525.6 497.8,525.6 497.8,491.9 		"/>
		<line class="st5" x1="509.9" y1="516.2" x2="509.9" y2="539.1"/>
		<line class="st5" x1="549.1" y1="527.7" x2="509.9" y2="527.7"/>
		<polyline class="st5" points="484,556.4 484,563.9 547,563.9 		"/>
		<polyline class="st5" points="497,556.4 497,563.7 497,563.9 		"/>
		<g>
			<rect x="480.5" y="579.9" class="st6" width="63" height="11.9"/>
			<rect x="480.5" y="605.2" class="st6" width="56.8" height="11.9"/>
			<rect x="480.5" y="629.5" class="st6" width="53.7" height="11.9"/>
			<rect x="480.5" y="652.8" class="st6" width="49.7" height="11.9"/>
			<rect x="417" y="583.5" class="st6" width="44.4" height="8.3"/>
			<rect x="417" y="607.3" class="st6" width="44.4" height="9.8"/>
			<rect x="417" y="630.5" class="st6" width="44.4" height="9.8"/>
			<rect x="417" y="653.8" class="st6" width="44.4" height="9.8"/>
			<rect x="363.8" y="629.5" class="st6" width="38.6" height="10.8"/>
		</g>
		<polyline class="st5" points="363.8,658.7 401.5,658.7 401.5,683.9 522,683.9 		"/>
		<polyline class="st7" points="380.9,704 388.5,704 393.7,704 393.7,713.7 		"/>
		<rect x="388.1" y="704" class="st8" width="2.9" height="9.7"/>
		<polyline class="st5" points="410.7,726.7 410.7,717.2 488.7,717.2 488.7,727.5 501.3,802.8 		"/>
		<g>
			<rect x="378.6" y="873.6" class="st6" width="7.5" height="30.8"/>
			<rect x="393.3" y="873.6" class="st6" width="7.5" height="30.8"/>
			<rect x="408" y="873.6" class="st6" width="7.5" height="30.8"/>
			<rect x="423.7" y="873.6" class="st6" width="7.5" height="30.8"/>
			<rect x="438.4" y="873.6" class="st6" width="7.5" height="30.8"/>
			<rect x="455.1" y="873.6" class="st6" width="7.5" height="30.8"/>
			<rect x="469.9" y="873.6" class="st6" width="7.5" height="30.8"/>
			<rect x="484.6" y="873.6" class="st6" width="7.5" height="30.8"/>
		</g>
		<polyline class="st5" points="503.7,905.6 503.7,904.3 366.3,904.3 		"/>
		<path class="st5" d="M503.7,904.3v-78.4l-30-17c0,0,6.6-17.3,0-42.3c0,0-0.6-3.6-8.3-14.3c0,0,24.4,0.2,3.3-23
			c-1-0.2-4.1-5.4-4.1-5.4"/>
		<circle class="st5" cx="437.4" cy="780.5" r="5.4"/>
		<path class="st5" d="M398,857.1"/>
		<polyline class="st5" points="394.7,857.1 410.7,844.6 405.7,839.5 394.7,842.2 		"/>
		<line class="st5" x1="518" y1="904.9" x2="571.2" y2="905.6"/>
		<line class="st5" x1="531.3" y1="914.6" x2="531.3" y2="904.9"/>
		<path class="st9" d="M419,272.8v33.7c0,0-0.8,23.7-24,15.7c0,0-10.8,10.8-10.5,22.9v63c0,0-0.4,26.4,11.2,33.4
			c0,0,12,12.7,27.9,12.2h20.1v35.9H338.5V270.9"/>
		<polyline class="st5" points="371,802.8 371,776 348.4,775.1 348.4,767 		"/>
		<g>
			<rect x="334.1" y="765" class="st6" width="6.8" height="37.7"/>
			<rect x="309.9" y="765" class="st6" width="11" height="37.7"/>
			<rect x="285.3" y="765" class="st6" width="11" height="37.7"/>
			<rect x="260.7" y="765" class="st6" width="11" height="37.7"/>
			<rect x="236.1" y="765" class="st6" width="11" height="37.7"/>
			<rect x="211.6" y="765" class="st6" width="11" height="37.7"/>
			<rect x="187" y="765" class="st6" width="11" height="37.7"/>
			<rect x="162.4" y="765" class="st6" width="11" height="37.7"/>
			<rect x="334.1" y="712" class="st6" width="6.8" height="34.6"/>
			<rect x="309.9" y="712" class="st6" width="11" height="34.6"/>
			<rect x="285.3" y="712" class="st6" width="11" height="34.6"/>
			<rect x="260.7" y="712" class="st6" width="11" height="34.6"/>
			<rect x="236.1" y="712" class="st6" width="11" height="34.6"/>
			<rect x="211.6" y="711.2" class="st6" width="11" height="34.6"/>
			<rect x="187" y="712" class="st6" width="11" height="34.6"/>
			<rect x="162.4" y="712" class="st6" width="11" height="34.6"/>
			<rect x="137.8" y="765" class="st6" width="11" height="37.7"/>
			<rect x="113.2" y="765" class="st6" width="11" height="37.7"/>
			<rect x="88.7" y="765" class="st6" width="11" height="37.7"/>
			<rect x="64.1" y="765" class="st6" width="11" height="37.7"/>
			<rect x="39.5" y="765" class="st6" width="11" height="37.7"/>
		</g>
		<polyline class="st5" points="25.8,744.9 67.8,744.9 67.8,738.3 		"/>
		<polyline class="st5" points="79.6,738.3 79.6,744.9 117.1,744.9 117.1,738.3 		"/>
		<rect x="40.9" y="630.5" class="st5" width="34.3" height="31.2"/>
		<polyline class="st5" points="24.2,705.8 117.1,705.8 117.1,714.3 		"/>
		<line class="st5" x1="117.1" y1="699.4" x2="117.1" y2="705.8"/>
		<polyline class="st5" points="117,656.2 117,647.1 92.2,647.1 92.2,703.9 92.2,705.8 		"/>
		<line class="st5" x1="44" y1="661.7" x2="44" y2="705.8"/>
		<line class="st5" x1="50.5" y1="609" x2="50.5" y2="630.5"/>
		<polyline class="st5" points="75.1,630.5 148.9,630.5 148.9,592.2 278.1,592.2 		"/>
		<polyline class="st5" points="246.4,586.8 148.9,586.8 148.9,596.4 		"/>
		<g>
			<polyline class="st5" points="52.1,301.7 52.1,415.3 52.1,419.4 			"/>
			<polyline class="st5" points="51.7,560.4 51.7,597.6 107,597.6 107,560.6 			"/>
			<polyline class="st5" points="50.6,560.4 117,560.4 117,532.8 154.7,532.8 154.7,546.6 			"/>
			<line class="st5" x1="50.5" y1="557" x2="95.4" y2="557"/>
			<line class="st5" x1="53.2" y1="533.1" x2="95.4" y2="533.1"/>
			<line class="st5" x1="53.2" y1="509.3" x2="95.4" y2="509.3"/>
			<line class="st5" x1="53.2" y1="485.5" x2="95.4" y2="485.5"/>
			<line class="st5" x1="53.2" y1="461.7" x2="95.4" y2="461.7"/>
			<line class="st5" x1="53.2" y1="437.9" x2="95.4" y2="437.9"/>
			<line class="st5" x1="95.4" y1="552.1" x2="95.4" y2="560.4"/>
			<line class="st5" x1="95.4" y1="528.3" x2="95.4" y2="538.8"/>
			<line class="st5" x1="95.4" y1="504.1" x2="95.4" y2="514.6"/>
			<line class="st5" x1="95.4" y1="480.9" x2="95.4" y2="491.4"/>
			<line class="st5" x1="95.4" y1="456.7" x2="95.4" y2="467.2"/>
			<line class="st5" x1="95.4" y1="432.5" x2="95.4" y2="443"/>
			<line class="st5" x1="52.1" y1="415.1" x2="95.4" y2="415.1"/>
			<line class="st5" x1="52.1" y1="391.3" x2="95.4" y2="391.3"/>
			<line class="st5" x1="52.1" y1="367.5" x2="95.4" y2="367.5"/>
			<line class="st5" x1="52.1" y1="343.7" x2="95.4" y2="343.7"/>
			<line class="st5" x1="52.1" y1="322.2" x2="95.4" y2="322.2"/>
			<line class="st5" x1="95.4" y1="409.9" x2="95.4" y2="420.3"/>
			<line class="st5" x1="95.4" y1="386.7" x2="95.4" y2="397.1"/>
			<line class="st5" x1="95.4" y1="362.5" x2="95.4" y2="372.9"/>
			<line class="st5" x1="95.4" y1="338.3" x2="95.4" y2="348.7"/>
			<line class="st5" x1="95.4" y1="317" x2="95.4" y2="327.5"/>
		</g>
		<g>
			<rect x="117.2" y="332.9" class="st6" width="2.7" height="11.6"/>
			<rect x="120" y="336.8" class="st6" width="26.8" height="3"/>
			<rect x="117.2" y="356.7" class="st6" width="2.7" height="11.6"/>
			<rect x="120" y="360.6" class="st6" width="26.8" height="3"/>
			<rect x="117.2" y="380.4" class="st6" width="2.7" height="11.6"/>
			<rect x="120" y="384.3" class="st6" width="26.8" height="3"/>
			<rect x="117.2" y="404.2" class="st6" width="2.7" height="11.6"/>
			<rect x="120" y="408.1" class="st6" width="26.8" height="3"/>
			<rect x="117.2" y="430" class="st6" width="2.7" height="11.6"/>
			<rect x="120" y="433.9" class="st6" width="26.8" height="3"/>
			<rect x="117.2" y="453.7" class="st6" width="2.7" height="11.6"/>
			<rect x="120" y="457.6" class="st6" width="26.8" height="3"/>
			<rect x="117.2" y="477.5" class="st6" width="2.7" height="11.6"/>
			<rect x="120" y="481.4" class="st6" width="26.8" height="3"/>
			<rect x="120" y="508.5" class="st6" width="26.8" height="3"/>
			<rect x="117.2" y="504.1" class="st6" width="2.7" height="7.3"/>
			<rect x="145.8" y="315.6" class="st10" width="1.5" height="195.8"/>
		</g>
		<polyline class="st5" points="367.6,525.6 367.6,542.2 359.7,542.2 		"/>
		<line class="st5" x1="337.5" y1="532.8" x2="367.6" y2="532.8"/>
		<polyline class="st5" points="361.8,553.9 367.6,553.9 367.6,560.2 		"/>
		<path class="st5" d="M280.7,591.8c0,0,29.9,32.5,66.3,0"/>
		<path class="st5" d="M332.7,562.4c0,0,5.4,18.6,41,16.6"/>
		<path class="st5" d="M247.2,576.7c0,0,73.7,15.8,43.6-65.3l-1.5-40.9c0,0,15.9-6.5,5-47.1l-6.6-12.3l-13.2,6.5v7.4"/>
		<rect x="332.7" y="243.9" class="st5" width="283" height="23.3"/>
		<rect x="332.7" y="243.9" class="st5" width="77.8" height="23.3"/>
		<path class="st5" d="M287.6,277c0,0,18.4-1.5,7.5,59.9c0,0-7.2,31-17.5,9.8l-1.8-1.5"/>
		<path class="st5" d="M958.6,416.3c-16.4-15.3-38.9-19.3-56-11.5l-5.1-7.6l-11,7.4l5.1,7.6c-0.5,0.5-1.1,1.1-1.6,1.6
			c-17,18.2-13.8,48.8,7.1,68.3c20.9,19.5,51.6,20.6,68.6,2.5S979.5,435.9,958.6,416.3z"/>
		<path class="st11" d="M958.9,416.6c-16.4-15.3-38.9-19.3-56-11.5l-6-8.7l-11.2,7.4l6.2,8.8c-0.5,0.5-1.1,1.1-1.6,1.6
			c-17,18.2-13.8,48.8,7.1,68.3c20.9,19.5,51.6,20.6,68.6,2.5S979.9,436.1,958.9,416.6z"/>
		<path class="st5" d="M695.4,255.8c15,15.1,36.6,20.2,53.9,14.4l4.5,7.2l11.2-5.9l-4.5-7.2c0.6-0.4,1.1-0.9,1.7-1.4
			c17.8-15.2,16.7-43.1-2.4-62.3c-19.1-19.2-49-22.4-66.8-7.1S676.3,236.7,695.4,255.8z"/>
		<path class="st11" d="M695,255.6c15,15.1,36.6,20.2,53.9,14.4l5.2,8.3l11.4-5.9l-5.4-8.4c0.6-0.4,1.1-0.9,1.7-1.4
			c17.8-15.2,16.7-43.1-2.4-62.3c-19.1-19.2-49-22.4-66.8-7.1S675.9,236.4,695,255.6z"/>
		<g>
			<rect x="782.9" y="422.6" class="st8" width="17.8" height="6.1"/>
			<rect x="804.9" y="422.6" class="st8" width="17.8" height="6.1"/>
		</g>
		<g>
			<rect x="924.9" y="265.1" class="st5" width="8.7" height="84.6"/>
			<rect x="967.2" y="268.7" class="st5" width="73" height="73"/>
			<path class="st5" d="M969.8,358.6c0,0-4.6,29.8,10.8,42.2c15.5,12.4,21.2,55.2,17.5,69.7c-3.6,14.5-10.8,31.5-10.8,31.5"/>
			<g>
				<path class="st5" d="M844.3,431.3h-67.6v64.3h77.9c0,0-4.6-10.1-4.1-36.1"/>
				<g>
					<rect x="825.9" y="265.1" class="st5" width="8.7" height="84.6"/>
					<rect x="856.7" y="265.1" class="st5" width="45.9" height="84.6"/>
					<rect x="706.5" y="455.5" class="st5" width="27.4" height="38.2"/>
					<rect x="678.7" y="341.7" class="st5" width="31" height="55.5"/>
					<g>
						<line class="st5" x1="678.7" y1="397.2" x2="678.7" y2="457.6"/>
					</g>
					<g>
						<rect x="846.9" y="526.8" class="st5" width="30.8" height="18.1"/>
						<rect x="905.2" y="630.5" class="st5" width="26.3" height="80"/>
						<rect x="931.6" y="637.2" class="st5" width="28.4" height="59.9"/>
						<rect x="989.4" y="630.5" class="st5" width="24.8" height="51.1"/>
						<rect x="678.7" y="493.7" class="st5" width="55.2" height="73.3"/>
						<polyline class="st5" points="848.1,526.8 733.9,526.8 733.9,567 933.6,567 						"/>
						<polyline class="st5" points="952.1,535.8 952.1,598.4 931.6,598.4 924.9,598.4 924.9,613.9 900.6,613.9 900.6,567 						"/>
						<polyline class="st5" points="952.1,598.4 1032.6,598.4 1032.6,535.8 976.6,535.8 980.8,531.6 969.8,520.6 						"/>
						<line class="st5" x1="976.6" y1="535.8" x2="977" y2="546.9"/>
						<line class="st5" x1="973.4" y1="598.4" x2="973.4" y2="584"/>
						<path class="st5" d="M888.2,567v-36.6c0,0,11.7,15.5,45.4,11v49.1"/>
						<polyline class="st5" points="882.4,630.5 882.4,613.9 1030.7,613.9 1030.7,742.4 						"/>
						<polyline class="st5" points="930.3,710.5 989.4,710.5 989.4,678.1 						"/>
						<line class="st5" x1="1014.1" y1="681.6" x2="1014.1" y2="743.5"/>
						<polyline class="st5" points="989.4,631.5 959.8,631.5 959.8,637.2 						"/>
					</g>
					<line class="st5" x1="834.6" y1="473.6" x2="834.6" y2="408.3"/>
					<path class="st5" d="M846.9,443.7c-1.3-29.9-19.9-42.1-19.9-42.1v15c0,0-51.4,5.7-73-24.3c0,0-19.4-19.4-18.1-47.7h9.3
						l-18.6-9.8v54.5h24.6"/>
					<line class="st5" x1="776.7" y1="431.3" x2="776.7" y2="408.3"/>
					<path class="st5" d="M776.7,408.3"/>
					<path class="st5" d="M776.7,408.3"/>
					<polyline class="st5" points="678.7,397.2 678.7,455.5 706.5,455.5 					"/>
					<line class="st5" x1="697.2" y1="429.5" x2="697.2" y2="455.5"/>
					<polyline class="st5" points="709.6,397.2 709.6,408.3 733.9,408.3 733.9,455.5 					"/>
					<line class="st5" x1="733.9" y1="479" x2="776.7" y2="479"/>
				</g>
			</g>
		</g>
		<path class="st5" d="M286.3,344.4v-75.9H204V305c0,0,37.4,11,37.4,39.5"/>
		<path class="st9" d="M209.7,372.5L209.7,372.5c0.1-11.2-1.4-30.7-13.8-32.9c0,0-27.5-3.7-27.5,4.9v34.7v1V415
			c0,8.6,27.5,4.9,27.5,4.9c11.6-2,13.7-19.3,13.8-30.6h0V372.5z"/>
		<path class="st9" d="M169.6,498.1L169.6,498.1c-0.1,12.3,1.4,33.7,13.8,36c0,0,27.5,4.1,27.5-5.4v-38.1v-1.1v-38.1
			c0-9.5-27.5-5.4-27.5-5.4c-11.6,2.2-13.7,21.1-13.8,33.6h0V498.1z"/>
		<path class="st12" d="M174.4,408.1v-18.9c0,0-0.2-6.5,7.5-6.3h14.6c0,0,7.9,0.1,7.3,6.1v10.8c0,0-0.5,14.6-11.5,14.1l-11.3,0
			C181,413.8,173.9,414.6,174.4,408.1z"/>
		<path class="st12" d="M174.4,350.9v18.9c0,0-0.2,6.5,7.5,6.3h14.6c0,0,7.9-0.1,7.3-6.1v-10.8c0,0-0.5-14.6-11.5-14.1l-11.3,0
			C181,345.1,173.9,344.3,174.4,350.9z"/>
		<path class="st9" d="M246.4,423.5v23.7l-9-2.1c0,0-13.8-3.4-13.8,13.8v60.3v4.9c0,0-0.9,15.5,17.2,10.8l5.7-2.3v25h40V425
			L246.4,423.5z"/>
		<rect x="268.3" y="425" class="st6" width="1.8" height="132.8"/>
		<polyline class="st5" points="140.6,661.7 140.6,656 162.4,656 		"/>
		<polyline class="st5" points="140.6,705.8 140.6,711.2 160.2,711.2 164.1,711.2 		"/>
		<path class="st12" d="M413.4,272v36.4c1,10.5-13,10.5-13,10.5c-14.7,0.5-12.8-12.4-12.8-12.4l-0.1-35.6"/>
		<polyline class="st12" points="347,295.5 353.2,295.5 347,306.5 352.5,312.7 347,318.9 353.2,327.5 350.1,332.9 353.2,341.7 
			347,341.7 		"/>
		<g>
			<g>
				<polyline class="st12" points="347,356.7 347,363.5 380,363.5 380,356 				"/>
				<line class="st12" x1="356" y1="363.8" x2="356" y2="357"/>
				<line class="st12" x1="363.5" y1="363.8" x2="363.5" y2="357"/>
				<line class="st12" x1="371" y1="363.8" x2="371" y2="357"/>
			</g>
			<polyline class="st12" points="346.4,368.8 377.2,368.8 377.2,390.8 346.4,390.8 			"/>
		</g>
		<g>
			<path class="st12" d="M338.5,410h6.7v54.5c0,0,5,18.6,17.8,19.2c5.6,0.3,12.5,0.3,18.5,0.3c7.7-0.1,13.9-0.3,13.9-0.3l5-4.6
				l-43.2-44l-1.2-1.2l-10.3,9.4l35.6,40.1"/>
		</g>
		<path class="st5" d="M443.8,484.8"/>
		<line class="st5" x1="395.4" y1="483.7" x2="443.8" y2="483.7"/>
		<path class="st12" d="M205.8,481.8C205.8,481.7,205.8,481.7,205.8,481.8v-4.3v-14.7c0.5-6.5-6.6-5.7-6.6-5.7l-11.3,0
			c-11-0.5-11.5,14.1-11.5,14.1v6.4h0v34h0v0.2c0,0,0.5,14.6,11.5,14.1l11.3,0c0,0,7.1,0.8,6.6-5.7v-8.5V501c0,0,0,0,0-0.1V481.8z"
			/>
	</g>
</g>
<g id="선" class="st26">
	<g>
		<path id="찜질스파_2_" class="st13" d="M638.9,267.1H333.7v294.5h40.5v25.5H248v-24.2h39.4V421.5h-44.2v-78.3h44v-76.1h-49.9
			V144.9h6.9V45.7h-107V19.4h696.3V29h229.7l-23,291.1h19.4l-1,325.9h-17.5v20.1h10.2v76.3H928.6v-30.9H903v-80.2h-74.1v-63.6H647.7
			v-75.3h16V325.5h23.8v-9.8C687.5,315.6,647.4,295.3,638.9,267.1z"/>
		<polygon id="F_x26_B_1_" class="st13" points="14.9,19.4 14.9,242.4 149.6,242.4 149.6,267.1 237.3,267.1 237.3,144.9 
			244.2,144.9 244.2,45.7 137.2,45.7 137.2,19.4 		"/>
		<path id="사우나남_1_" class="st13" d="M548.7,482.6c11.2,86.7-24.6,192.8-24.6,192.8l-23,47.2c-20.6,4.1-56.5-2.7-56.5-2.7
			c-55.5-1.7-25.2,24.8-25.2,24.8l-11.7,10.1L390,737.1v-20.3h-25.2V611.9l-25.3-24.8h34.6v-25.5h-40.5V267.1h305.3
			c4.4,16.5,24.8,33.1,24.8,33.1v25.3v13.2h-44.1c0,0-44.1-28.9-76.9,25.3c0,0-24.5,52.9-4.4,100.1L548.7,482.6z"/>
		<polygon id="사우나여_1_" class="st13" points="14.9,242.4 14.9,420.8 53.9,420.8 53.9,561 25.8,561 25.8,803.1 366,803.1 
			366,856.3 394,856.3 394,757.2 370.5,757.2 370.5,722.9 344.5,722.9 344.5,711 164.9,711 164.9,609.6 258.8,609.6 281.2,587.1 
			248,587.1 248,562.9 287.3,562.9 287.3,421.5 243.2,421.5 243.2,343.2 287.2,343.2 287.2,267.1 149.6,267.1 149.6,242.4 		"/>
		<path id="기타시설_1_" class="st13" d="M366,856.3V915h207.6l-49.5-239.6l-23,47.2c0,0-25.2,3.9-56.5-2.7
			c0,0-53.4-4.6-25.2,24.8l-11.6,10L390,737.1v-20.3h-25.2v5.4v0.6h5.6v34.4H394v99.1H366z"/>
		<path class="st13" d="M663.1,391.5c0,0-3.7-25.8-32.5-52.1"/>
	<path id="기타시설_2_" class="st13" d="M366,856.3V915h207.6l-49.5-239.6l-23,47.2c0,0-25.2,3.9-56.5-2.7
		c0,0-53.4-4.6-25.2,24.8l-11.6,10L390,737.1v-20.3h-25.2v5.4v0.6h5.6v34.4H394v99.1H366z"/>
	<text transform="matrix(1 0 0 1 424.4478 822.9287)" class="st14 st15">&#xAE30;&#xD0C0;&#xC2DC;&#xC124;</text>
	</g>
</g>

<g id="floor_4f_1">
	<text transform="matrix(1 0 0 1 776.7811 233.9287)" class="st14 st15">&#xCC1C;&#xC9C8;&#xC2A4;&#xD30C;</text>
	<path id="찜질스파_1_" class="st13" d="M638.9,267.1H333.7v294.5h40.5v25.5H248v-24.2h39.4V421.5h-44.2v-78.3h44v-76.1h-49.9
		V144.9h6.9V45.7h-107V19.4h696.3V29h229.7l-23,291.1h19.4l-1,325.9h-17.5v20.1h10.2v76.3H928.6v-30.9H903v-80.2h-74.1v-63.6H647.7
		v-72.8c0-1.4,1.1-2.6,2.6-2.6h13.5V325.5h23.8v-9.8C687.5,315.6,647.4,295.3,638.9,267.1z"/>
</g>
<g id="floor_4f_3">
	<text transform="matrix(1 0 0 1 94.4478 148.5954)" class="st14 st15">F&amp;B</text>
	<polygon id="F_x26_B" class="st13" points="14.9,19.4 14.9,242.4 149.6,242.4 149.6,267.1 237.3,267.1 237.3,144.9 244.2,144.9 
		244.2,45.7 137.2,45.7 137.2,19.4 	"/>
</g>
<g id="floor_4f_2">
	<path id="남_x5D_" class="st13" d="M548.7,482.6c11.2,86.7-24.6,192.8-24.6,192.8l-23,47.2c-20.6,4.1-56.5-2.7-56.5-2.7
		c-55.5-1.7-25.2,24.8-25.2,24.8l-11.7,10.1L390,737.1v-20.3h-25.2V611.9l-25.3-24.8h34.6v-25.5h-40.5V267.1h305.3
		c4.4,16.5,24.8,33.1,24.8,33.1v25.3v13.2h-32.5h-11.6c0,0-44.1-28.9-76.9,25.3c0,0-24.5,52.9-4.4,100.1L548.7,482.6z"/>
	<polygon id="여" class="st13" points="14.9,242.4 14.9,420.8 53.9,420.8 53.9,561 25.8,561 25.8,803.1 366,803.1 366,856.3 
		394,856.3 394,757.2 370.5,757.2 370.5,722.9 344.5,722.9 344.5,711 164.9,711 164.9,609.6 258.8,609.6 281.2,587.1 248,587.1 
		248,562.9 287.3,562.9 287.3,421.5 243.2,421.5 243.2,343.2 287.2,343.2 287.2,267.1 149.6,267.1 149.6,242.4 	"/>
	<text transform="matrix(1 0 0 1 106.4478 439.2621)" class="st14 st15">&#xC0AC;&#xC6B0;&#xB098;(&#xC5EC;)</text>
	<text transform="matrix(1 0 0 1 405.4478 453.2621)" class="st14 st15">&#xC0AC;&#xC6B0;&#xB098;(&#xB0A8;)</text>
</g>
</svg>
