<?xml version="1.0" encoding="utf-8"?>
<!-- Generator: Adobe Illustrator 13.0.0, SVG Export Plug-In  -->
<!DOCTYPE svg PUBLIC "-//W3C//DTD SVG 1.1//EN" "http://www.w3.org/Graphics/SVG/1.1/DTD/svg11.dtd">
<svg version="1.1"
	 xmlns="http://www.w3.org/2000/svg" xmlns:xlink="http://www.w3.org/1999/xlink" xmlns:a="http://ns.adobe.com/AdobeSVGViewerExtensions/3.0/"
	 x="0px" y="0px" width="635px" height="344px" viewBox="-0.179 -0.805 635 344" enable-background="new -0.179 -0.805 635 344"
	 xml:space="preserve">
<defs>
</defs>
<path fill="#BFB8A9" d="M250.833,112.25h13.333v21.666h-14.333v48.667c0,0,5.333,0.333,5,5.833c0,0-0.833,4.584-6.333,3.834
	s-5.333-4.167-16.583-3.667s-11.583,7.167-37.25,9.334s-51.5,0-51.5,0v-42.333H105H10.333v87.499h57.5v50h-57.5v26.5h298v23h326
	v-77.75h-313V10h-70.5V112.25z"/>
<path fill="#FCFDFC" d="M241.5,103.25h13.333v21.666H240.5v48.667c0,0,5.333,0.333,5,5.833c0,0-0.833,4.584-6.333,3.834
	s-5.333-4.167-16.583-3.667s-11.583,7.167-37.25,9.334s-51.5,0-51.5,0v-42.333H95.667H1v87.499h57.5v50H1v26.5h298v23h326v-77.75
	H312V1h-70.5V103.25z"/>
<path fill="#B8DCF2" d="M312,1h-70.332l-0.013,24.749c41-0.5,45.067,31.359,44.179,44.834c-1,15.167-12.333,23.333-12.5,43.5
	c-0.106,12.837,14,26.499,13.5,43.166s-7.159,27.41-8.667,44.834c-1.5,17.333,6,40,6,40l-11,6.5c0,0,7.932,23.08,26.667,31
	c20.5,8.666,23.905-8.084,55.667,1.167c17.167,5,27.5,8.667,32.833,4.833s7.5-8.167,6.833-15.833
	c-0.424-4.872-0.522-10.278-0.531-13.917H312V1z"/>
<path fill="#EAE8D8" d="M95.795,146.584c0.388,2.198,1.286,4.896,3.372,6.166c3.833,2.333,14.833,0.833,21.5,10.833
	c5.645,8.468,6.167,13.834,5.167,19.167s0.181,12.307,6.5,16.666c4.833,3.334,10.333,2.166,16.5,0s10-2.334,15.833-1.5
	s6.333-0.5,19.333-2.833s14.667-0.999,25.833-4.833s14.399-6.245,24.667-2.334c10.5,4,14.878-0.033,16.333-7.166
	c1.416-6.94-2.957-12.657-10.333-13.2v6.033c0,0,5.333,0.333,5,5.833c0,0-0.833,4.584-6.333,3.834s-5.333-4.167-16.583-3.667
	s-11.583,7.167-37.25,9.334s-51.5,0-51.5,0v-42.333H95.795z"/>
<path fill="#EAE8D8" d="M58.5,284.083c2.333,7.667,9.5,7,9.5,7s44.667-0.166,48.333,0s11.37,0.186,10.854-4.313
	c-0.438-3.813-4.118-1.885-12.125-5.938c-10.125-5.125-9.563-11.417-11.729-16.75s-7.667-11.167-16.5-14.834s-15.667-17-21-22.166
	s-12.5,5.333-30.333-5.667s-22.667-26.5-22-40.666s9.667-23.834,14.333-29c1.771-1.96,2.867-3.727,3.549-5.166H1v87.499h57.5
	V284.083z"/>
<path fill="#B8DCF2" d="M103.333,264.083c-1.908-4.697-6.406-9.781-13.485-13.432l-2.182,4.099c0,0-8.75-5.249-16.167,1.084
	S68.938,275.139,75.167,280c6.833,5.333,16.75,7.167,21.917,1.417c4.543-5.056,2.667-11.25,2.667-11.25l5.039-1.486
	C104.323,267.104,103.933,265.558,103.333,264.083z"/>
<path fill="#B8DCF2" d="M161.5,217.084c0,0-12.5-2-21.833,5.833s-9.833,25.501-5.667,32.667s14,21.166,31.167,15.666
	s32.834-12.166,40.167-25.166S201,210.584,161.5,217.084z"/>
<ellipse transform="matrix(0.981 -0.1941 0.1941 0.981 -43.611 37.6649)" fill="#EAE8D8" cx="170.411" cy="241.394" rx="17.5" ry="11.316"/>
<path fill="#E8DDCA" d="M147.5,212.834c0,0-2.833,1.084-2.5,4.25s2.917,4,5.75,3.333s7.333,0.167,8.75,0.917s3.87,1.431,4.917-1.5
	c0.833-2.334-2.75-4.667-5.5-5.334S151.25,211.084,147.5,212.834z"/>
<path fill="#E8DDCA" d="M161.815,276.836c0,0-3.009,0.389-4.215-2.558c-1.208-2.945,0.672-4.904,3.483-5.659
	c2.812-0.756,6.378-3.624,7.27-4.956c0.892-1.331,2.73-3.093,5.041-1.008c1.839,1.66-0.21,5.412-2.315,7.303
	S165.946,276.6,161.815,276.836z"/>
<rect x="222.549" y="222.62" transform="matrix(0.9256 -0.3785 0.3785 0.9256 -67.9702 102.9461)" fill="#EAE8D8" width="10.663" height="3.5"/>
<rect x="211.521" y="194.805" transform="matrix(0.2866 0.9581 -0.9581 0.2866 343.0208 -67.5287)" fill="#EAE8D8" width="10.663" height="3.499"/>
<rect x="204.896" y="196.596" transform="matrix(0.2147 0.9767 -0.9767 0.2147 358.817 -49.5611)" fill="#EAE8D8" width="10.663" height="3.5"/>
<rect x="197.897" y="197.638" transform="matrix(0.1259 0.992 -0.992 0.1259 375.444 -27.3252)" fill="#EAE8D8" width="10.662" height="3.499"/>
<rect x="224.424" y="229.204" transform="matrix(0.9758 -0.2186 0.2186 0.9758 -44.9311 55.8125)" fill="#EAE8D8" width="10.663" height="3.499"/>
<rect x="225.466" y="235.87" transform="matrix(0.9989 -0.0466 0.0466 0.9989 -10.8256 11.0168)" fill="#EAE8D8" width="10.663" height="3.499"/>
<rect x="225.424" y="242.662" transform="matrix(0.9942 0.1079 -0.1079 0.9942 27.7133 -23.4671)" fill="#EAE8D8" width="10.664" height="3.499"/>
<rect x="238.091" y="219.036" transform="matrix(0.9519 -0.3065 0.3065 0.9519 -55.959 85.2436)" fill="#EAE8D8" width="10.663" height="3.5"/>
<rect x="240.049" y="226.663" transform="matrix(0.9836 -0.1803 0.1803 0.9836 -37.1665 47.9934)" fill="#EAE8D8" width="10.663" height="3.499"/>
<rect x="240.841" y="234.245" transform="matrix(0.9989 -0.0466 0.0466 0.9989 -10.7331 11.7317)" fill="#EAE8D8" width="10.663" height="3.499"/>
<rect x="240.59" y="241.912" transform="matrix(0.995 0.0997 -0.0997 0.995 25.5252 -23.3102)" fill="#EAE8D8" width="10.664" height="3.499"/>
<rect x="220.714" y="256.798" transform="matrix(0.9117 0.4107 -0.4107 0.9117 126.1465 -70.0304)" fill="#EAE8D8" width="10.663" height="3.499"/>
<rect x="217.062" y="263.107" transform="matrix(0.8338 0.552 -0.552 0.8338 183.167 -78.7555)" fill="#EAE8D8" width="10.664" height="3.499"/>
<rect x="212.403" y="269.075" transform="matrix(0.7491 0.6625 -0.6625 0.7491 234.0423 -76.2899)" fill="#EAE8D8" width="10.664" height="3.499"/>
<rect x="207.073" y="274.137" transform="matrix(0.6466 0.7629 -0.7629 0.6466 285.5373 -64.5256)" fill="#EAE8D8" width="10.663" height="3.5"/>
<rect x="106.854" y="264.668" transform="matrix(-0.7842 0.6206 -0.6206 -0.7842 365.4841 405.7161)" fill="#EAE8D8" width="10.663" height="3.499"/>
<rect x="85.334" y="240.96" transform="matrix(-0.4086 0.9127 -0.9127 -0.4086 349.2352 259.1398)" fill="#EAE8D8" width="10.663" height="3.499"/>
<rect x="79.271" y="237.523" transform="matrix(-0.6087 0.7934 -0.7934 -0.6087 325.9433 317.7846)" fill="#EAE8D8" width="10.664" height="3.5"/>
<rect x="74.021" y="232.92" transform="matrix(-0.7457 0.6663 -0.6663 -0.7457 294.8883 356.7808)" fill="#EAE8D8" width="10.664" height="3.499"/>
<rect x="111.51" y="270.418" transform="matrix(-0.6589 0.7522 -0.7522 -0.6589 398.5639 363.5994)" fill="#EAE8D8" width="10.663" height="3.499"/>
<rect x="118.51" y="274.168" transform="matrix(-0.4614 0.8872 -0.8872 -0.4614 425.7748 293.3441)" fill="#EAE8D8" width="10.664" height="3.499"/>
<rect x="232.845" y="265.894" transform="matrix(0.8776 0.4793 -0.4793 0.8776 157.4385 -81.4159)" fill="#EAE8D8" width="10.663" height="3.5"/>
<rect x="229.161" y="272.19" transform="matrix(0.8246 0.5657 -0.5657 0.8246 196.097 -84.6069)" fill="#EAE8D8" width="10.663" height="3.499"/>
<rect x="224.666" y="277.775" transform="matrix(0.7439 0.6683 -0.6683 0.7439 245.7078 -82.1187)" fill="#EAE8D8" width="10.663" height="3.499"/>
<rect x="219.891" y="283.081" transform="matrix(0.6826 0.7308 -0.7308 0.6826 279.6438 -74.1848)" fill="#EAE8D8" width="10.664" height="3.499"/>
<rect x="156.917" y="288.25" fill="#EAE8D8" width="3.417" height="10.666"/>
<rect x="148.542" y="288.25" fill="#EAE8D8" width="3.417" height="10.666"/>
<rect x="30.583" y="151.666" fill="#EAE8D8" width="3.417" height="10.666"/>
<rect x="39.417" y="151.666" fill="#EAE8D8" width="3.417" height="10.666"/>
<rect x="49.25" y="151.666" fill="#EAE8D8" width="3.417" height="10.666"/>
<rect x="57.917" y="151.666" fill="#EAE8D8" width="3.417" height="10.666"/>
<rect x="177.5" y="288.25" fill="#EAE8D8" width="3.417" height="10.666"/>
<rect x="169.125" y="288.25" fill="#EAE8D8" width="3.417" height="10.666"/>
<rect x="196.75" y="288.25" fill="#EAE8D8" width="3.417" height="10.666"/>
<rect x="188.375" y="288.25" fill="#EAE8D8" width="3.417" height="10.666"/>
<rect x="358.302" y="308.25" fill="none" stroke="#E8DFCF" width="3.417" height="10.666"/>
<rect x="349.927" y="308.25" fill="none" stroke="#E8DFCF" width="3.417" height="10.666"/>
<rect x="347.323" y="303.083" fill="none" stroke="#E8DFCF" width="17" height="17.125"/>
<rect x="394.302" y="308.25" fill="none" stroke="#E8DFCF" width="3.417" height="10.666"/>
<rect x="385.927" y="308.25" fill="none" stroke="#E8DFCF" width="3.417" height="10.666"/>
<rect x="383.323" y="303.083" fill="none" stroke="#E8DFCF" width="17" height="17.125"/>
<rect x="511.969" y="308.25" fill="none" stroke="#E8DFCF" width="3.417" height="10.666"/>
<rect x="503.594" y="308.25" fill="none" stroke="#E8DFCF" width="3.417" height="10.666"/>
<rect x="500.99" y="303.083" fill="none" stroke="#E8DFCF" width="17" height="17.125"/>
<rect x="548.052" y="308.25" fill="none" stroke="#E8DFCF" width="3.417" height="10.666"/>
<rect x="539.677" y="308.25" fill="none" stroke="#E8DFCF" width="3.417" height="10.666"/>
<rect x="537.073" y="303.083" fill="none" stroke="#E8DFCF" width="17" height="17.125"/>
<rect x="376.552" y="308.25" fill="#EAE8D8" width="3.417" height="10.666"/>
<rect x="368.177" y="308.25" fill="#EAE8D8" width="3.417" height="10.666"/>
<rect x="412.773" y="308.25" fill="#EAE8D8" width="3.417" height="10.666"/>
<rect x="420.339" y="308.25" fill="#EAE8D8" width="3.417" height="10.666"/>
<rect x="427.904" y="308.25" fill="#EAE8D8" width="3.417" height="10.666"/>
<rect x="435.469" y="308.25" fill="#EAE8D8" width="3.417" height="10.666"/>
<rect x="443.034" y="308.25" fill="#EAE8D8" width="3.417" height="10.666"/>
<rect x="450.6" y="308.25" fill="#EAE8D8" width="3.417" height="10.666"/>
<rect x="458.165" y="308.25" fill="#EAE8D8" width="3.417" height="10.666"/>
<rect x="465.73" y="308.25" fill="#EAE8D8" width="3.417" height="10.666"/>
<rect x="473.295" y="308.25" fill="#EAE8D8" width="3.417" height="10.666"/>
<rect x="480.86" y="308.25" fill="#EAE8D8" width="3.416" height="10.666"/>
<rect x="488.425" y="308.25" fill="#EAE8D8" width="3.417" height="10.666"/>
<rect x="521.61" y="308.25" fill="#EAE8D8" width="3.416" height="10.666"/>
<rect x="530.175" y="308.25" fill="#EAE8D8" width="3.417" height="10.666"/>
<rect x="405.208" y="308.25" fill="#EAE8D8" width="3.417" height="10.666"/>
<path fill="#B8DCF2" d="M416.417,255.833v12.001c0,0,2.583,14.249,15.75,21.333c16.253,8.744,34.917,5.417,50.5,2.75
	s32.333-9.166,48.5-13.166s24.083-3.834,24.083-3.834v7.833h11.583v13.584c0,0-0.667,7.083,4.25,12.25s11.833,4.5,11.833,4.5h23.917
	c0,0,6.083,0.583,10.917-3.667s5.125-10.334,5.125-10.334v-43.25H416.417z"/>
<path fill="#EAE8D8" d="M270.817,43.766c-0.067-0.067-0.151-0.1-0.238-0.114c0.035-0.149,0.057-0.304,0.057-0.464
	c0-0.072-0.014-0.141-0.021-0.212c0.074-0.019,0.145-0.049,0.202-0.106l1.307-1.306c0.17-0.17,0.17-0.446-0.001-0.617l-1.118-1.118
	c-0.17-0.17-0.447-0.17-0.617,0l-1.307,1.306c-0.015,0.016-0.021,0.034-0.034,0.051c-0.152-0.035-0.31-0.06-0.474-0.06
	c-0.127,0-0.25,0.016-0.37,0.037c-0.007-0.009-0.01-0.02-0.018-0.027l-1.306-1.307c-0.17-0.17-0.446-0.17-0.617,0.001l-1.118,1.117
	c-0.17,0.171-0.17,0.447,0,0.617l1.306,1.307c0.026,0.025,0.057,0.04,0.087,0.058c-0.011,0.086-0.026,0.171-0.026,0.26
	c0,0.171,0.027,0.335,0.066,0.494c-0.046,0.021-0.09,0.047-0.127,0.084l-1.307,1.306c-0.17,0.17-0.17,0.446,0.001,0.617l1.118,1.118
	c0.17,0.17,0.447,0.17,0.617,0l1.307-1.306c0.077-0.077,0.114-0.177,0.122-0.277c0.088,0.011,0.175,0.026,0.266,0.026
	c0.132,0,0.26-0.015,0.384-0.039c0.005,0.105,0.044,0.21,0.124,0.29l1.306,1.307c0.17,0.17,0.446,0.17,0.617-0.001l1.118-1.118
	c0.17-0.17,0.17-0.446,0-0.616L270.817,43.766z"/>
<path fill="#EAE8D8" d="M269.738,55.072c-0.067-0.067-0.151-0.1-0.238-0.114c0.035-0.149,0.057-0.304,0.057-0.464
	c0-0.072-0.014-0.141-0.021-0.212c0.074-0.019,0.145-0.049,0.202-0.106l1.307-1.306c0.17-0.17,0.17-0.446-0.001-0.617l-1.118-1.118
	c-0.17-0.17-0.447-0.17-0.617,0l-1.307,1.306c-0.015,0.016-0.021,0.034-0.034,0.051c-0.152-0.035-0.31-0.06-0.474-0.06
	c-0.127,0-0.25,0.016-0.37,0.037c-0.007-0.009-0.01-0.02-0.018-0.027l-1.306-1.307c-0.17-0.17-0.446-0.17-0.617,0.001l-1.118,1.117
	c-0.17,0.171-0.17,0.447,0,0.617l1.306,1.307c0.026,0.025,0.057,0.04,0.087,0.058c-0.011,0.086-0.026,0.171-0.026,0.26
	c0,0.171,0.027,0.335,0.066,0.494c-0.046,0.021-0.09,0.047-0.127,0.084l-1.307,1.306c-0.17,0.17-0.17,0.446,0.001,0.617l1.118,1.118
	c0.17,0.17,0.447,0.17,0.617,0l1.307-1.306c0.077-0.077,0.114-0.177,0.122-0.277c0.088,0.011,0.175,0.026,0.266,0.026
	c0.132,0,0.26-0.015,0.384-0.039c0.005,0.105,0.044,0.21,0.124,0.29l1.306,1.307c0.17,0.17,0.446,0.17,0.617-0.001l1.118-1.118
	c0.17-0.17,0.17-0.446,0-0.616L269.738,55.072z"/>
<path fill="#EAE8D8" d="M260.563,46.083c-0.067-0.067-0.151-0.1-0.238-0.114c0.035-0.149,0.057-0.304,0.057-0.464
	c0-0.072-0.014-0.141-0.021-0.212c0.074-0.019,0.145-0.049,0.202-0.106l1.307-1.306c0.17-0.17,0.17-0.446-0.001-0.617l-1.118-1.118
	c-0.17-0.17-0.447-0.17-0.617,0l-1.307,1.306c-0.015,0.016-0.021,0.034-0.034,0.051c-0.152-0.035-0.31-0.06-0.474-0.06
	c-0.127,0-0.25,0.016-0.37,0.037c-0.007-0.009-0.01-0.02-0.018-0.027l-1.306-1.307c-0.17-0.17-0.446-0.17-0.617,0.001l-1.118,1.117
	c-0.17,0.171-0.17,0.447,0,0.617l1.306,1.307c0.026,0.025,0.057,0.04,0.087,0.058c-0.011,0.086-0.026,0.171-0.026,0.26
	c0,0.171,0.027,0.335,0.066,0.494c-0.046,0.021-0.09,0.047-0.127,0.084l-1.307,1.306c-0.17,0.17-0.17,0.446,0.001,0.617l1.118,1.118
	c0.17,0.17,0.447,0.17,0.617,0l1.307-1.306c0.077-0.077,0.114-0.177,0.122-0.277c0.088,0.011,0.175,0.026,0.266,0.026
	c0.132,0,0.26-0.015,0.384-0.039c0.005,0.105,0.044,0.21,0.124,0.29l1.306,1.307c0.17,0.17,0.446,0.17,0.617-0.001l1.118-1.118
	c0.17-0.17,0.17-0.446,0-0.616L260.563,46.083z"/>
<path fill="#EAE8D8" d="M270.875,66.208c-0.067-0.067-0.151-0.1-0.238-0.114c0.035-0.149,0.057-0.304,0.057-0.464
	c0-0.072-0.014-0.141-0.021-0.212c0.074-0.019,0.145-0.049,0.202-0.106l1.307-1.306c0.17-0.17,0.17-0.446-0.001-0.617l-1.118-1.118
	c-0.17-0.17-0.447-0.17-0.617,0l-1.307,1.306c-0.015,0.016-0.021,0.034-0.034,0.051c-0.152-0.035-0.31-0.06-0.474-0.06
	c-0.127,0-0.25,0.016-0.37,0.037c-0.007-0.009-0.01-0.02-0.018-0.027l-1.306-1.307c-0.17-0.17-0.446-0.17-0.617,0.001l-1.118,1.117
	c-0.17,0.171-0.17,0.447,0,0.617l1.306,1.307c0.026,0.025,0.057,0.04,0.087,0.058c-0.011,0.086-0.026,0.171-0.026,0.26
	c0,0.171,0.027,0.335,0.066,0.494c-0.046,0.021-0.09,0.047-0.127,0.084l-1.307,1.306c-0.17,0.17-0.17,0.446,0.001,0.617l1.118,1.118
	c0.17,0.17,0.447,0.17,0.617,0l1.307-1.306c0.077-0.077,0.114-0.177,0.122-0.277c0.088,0.011,0.175,0.026,0.266,0.026
	c0.132,0,0.26-0.015,0.384-0.039c0.005,0.105,0.044,0.21,0.124,0.29l1.306,1.307c0.17,0.17,0.446,0.17,0.617-0.001l1.118-1.118
	c0.17-0.17,0.17-0.446,0-0.616L270.875,66.208z"/>
<path fill="#EAE8D8" d="M280.869,160.411c-0.067-0.067-0.151-0.1-0.238-0.114c0.035-0.149,0.057-0.304,0.057-0.464
	c0-0.072-0.014-0.141-0.021-0.212c0.074-0.019,0.145-0.049,0.202-0.106l1.307-1.306c0.17-0.17,0.17-0.446-0.001-0.617l-1.118-1.118
	c-0.17-0.17-0.447-0.17-0.617,0l-1.307,1.306c-0.015,0.016-0.021,0.034-0.034,0.051c-0.152-0.035-0.31-0.06-0.474-0.06
	c-0.127,0-0.25,0.016-0.37,0.037c-0.007-0.009-0.01-0.02-0.018-0.027l-1.306-1.307c-0.17-0.17-0.446-0.17-0.617,0.001l-1.118,1.117
	c-0.17,0.171-0.17,0.447,0,0.617l1.306,1.307c0.026,0.025,0.057,0.04,0.087,0.058c-0.011,0.086-0.026,0.171-0.026,0.26
	c0,0.171,0.027,0.335,0.066,0.494c-0.046,0.021-0.09,0.047-0.127,0.084l-1.307,1.306c-0.17,0.17-0.17,0.446,0.001,0.617l1.118,1.118
	c0.17,0.17,0.447,0.17,0.617,0l1.307-1.306c0.077-0.077,0.114-0.177,0.122-0.277c0.088,0.011,0.175,0.026,0.266,0.026
	c0.132,0,0.26-0.015,0.384-0.039c0.005,0.105,0.044,0.21,0.124,0.29l1.306,1.307c0.17,0.17,0.446,0.17,0.617-0.001l1.118-1.118
	c0.17-0.17,0.17-0.446,0-0.616L280.869,160.411z"/>
<path fill="#EAE8D8" d="M278.688,170.021c-0.067-0.067-0.151-0.1-0.238-0.114c0.035-0.149,0.057-0.304,0.057-0.464
	c0-0.072-0.014-0.141-0.021-0.212c0.074-0.019,0.145-0.049,0.202-0.106l1.307-1.306c0.17-0.17,0.17-0.446-0.001-0.617l-1.118-1.118
	c-0.17-0.17-0.447-0.17-0.617,0l-1.307,1.306c-0.015,0.016-0.021,0.034-0.034,0.051c-0.152-0.035-0.31-0.06-0.474-0.06
	c-0.127,0-0.25,0.016-0.37,0.037c-0.007-0.009-0.01-0.02-0.018-0.027l-1.306-1.307c-0.17-0.17-0.446-0.17-0.617,0.001l-1.118,1.117
	c-0.17,0.171-0.17,0.447,0,0.617l1.306,1.307c0.026,0.025,0.057,0.04,0.087,0.058c-0.011,0.086-0.026,0.171-0.026,0.26
	c0,0.171,0.027,0.335,0.066,0.494c-0.046,0.021-0.09,0.047-0.127,0.084l-1.307,1.306c-0.17,0.17-0.17,0.446,0.001,0.617l1.118,1.118
	c0.17,0.17,0.447,0.17,0.617,0l1.307-1.306c0.077-0.077,0.114-0.177,0.122-0.277c0.088,0.011,0.175,0.026,0.266,0.026
	c0.132,0,0.26-0.015,0.384-0.039c0.005,0.105,0.044,0.21,0.124,0.29l1.306,1.307c0.17,0.17,0.446,0.17,0.617-0.001l1.118-1.118
	c0.17-0.17,0.17-0.446,0-0.616L278.688,170.021z"/>
<path fill="#EAE8D8" d="M276.188,180.333c-0.067-0.067-0.151-0.1-0.238-0.114c0.035-0.149,0.057-0.304,0.057-0.464
	c0-0.072-0.014-0.141-0.021-0.212c0.074-0.019,0.145-0.049,0.202-0.106l1.307-1.306c0.17-0.17,0.17-0.446-0.001-0.617l-1.118-1.118
	c-0.17-0.17-0.447-0.17-0.617,0l-1.307,1.306c-0.015,0.016-0.021,0.034-0.034,0.051c-0.152-0.035-0.31-0.06-0.474-0.06
	c-0.127,0-0.25,0.016-0.37,0.037c-0.007-0.009-0.01-0.02-0.018-0.027l-1.306-1.307c-0.17-0.17-0.446-0.17-0.617,0.001l-1.118,1.117
	c-0.17,0.171-0.17,0.447,0,0.617l1.306,1.307c0.026,0.025,0.057,0.04,0.087,0.058c-0.011,0.086-0.026,0.171-0.026,0.26
	c0,0.171,0.027,0.335,0.066,0.494c-0.046,0.021-0.09,0.047-0.127,0.084l-1.307,1.306c-0.17,0.17-0.17,0.446,0.001,0.617l1.118,1.118
	c0.17,0.17,0.447,0.17,0.617,0l1.307-1.306c0.077-0.077,0.114-0.177,0.122-0.277c0.088,0.011,0.175,0.026,0.266,0.026
	c0.132,0,0.26-0.015,0.384-0.039c0.005,0.105,0.044,0.21,0.124,0.29l1.306,1.307c0.17,0.17,0.446,0.17,0.617-0.001l1.118-1.118
	c0.17-0.17,0.17-0.446,0-0.616L276.188,180.333z"/>
<path fill="#EAE8D8" d="M272.217,199.408c-0.063-0.071-0.145-0.108-0.231-0.129c0.044-0.147,0.077-0.3,0.087-0.459
	c0.004-0.072-0.005-0.142-0.008-0.213c0.075-0.015,0.147-0.04,0.208-0.094l1.387-1.22c0.18-0.159,0.198-0.435,0.038-0.616
	l-1.044-1.187c-0.159-0.181-0.435-0.198-0.615-0.039l-1.387,1.22c-0.016,0.015-0.023,0.032-0.037,0.048
	c-0.15-0.045-0.305-0.079-0.469-0.089c-0.127-0.009-0.25-0.001-0.372,0.013c-0.006-0.009-0.008-0.02-0.016-0.028l-1.22-1.387
	c-0.159-0.181-0.435-0.198-0.616-0.038l-1.187,1.044c-0.18,0.159-0.198,0.436-0.039,0.616l1.22,1.387
	c0.024,0.027,0.055,0.043,0.083,0.063c-0.017,0.086-0.037,0.169-0.042,0.258c-0.011,0.171,0.005,0.336,0.035,0.498
	c-0.047,0.018-0.093,0.041-0.132,0.075l-1.387,1.22c-0.18,0.159-0.198,0.435-0.038,0.616l1.044,1.187
	c0.159,0.181,0.435,0.198,0.615,0.04l1.387-1.221c0.082-0.071,0.125-0.169,0.139-0.269c0.087,0.017,0.173,0.037,0.264,0.043
	c0.131,0.009,0.26,0.002,0.386-0.015c-0.002,0.105,0.031,0.213,0.105,0.298l1.22,1.387c0.159,0.181,0.435,0.198,0.616,0.038
	l1.187-1.045c0.18-0.158,0.198-0.435,0.039-0.614L272.217,199.408z"/>
<path fill="#EAE8D8" d="M271.923,209.258c-0.061-0.073-0.143-0.112-0.228-0.134c0.048-0.146,0.083-0.299,0.098-0.457
	c0.006-0.072-0.002-0.143-0.003-0.213c0.075-0.014,0.148-0.037,0.21-0.09l1.415-1.187c0.184-0.155,0.208-0.431,0.053-0.615
	l-1.017-1.211c-0.155-0.184-0.431-0.208-0.614-0.053l-1.415,1.187c-0.017,0.015-0.024,0.032-0.039,0.048
	c-0.148-0.049-0.303-0.087-0.466-0.101c-0.127-0.012-0.25-0.006-0.372,0.005c-0.006-0.009-0.008-0.021-0.016-0.029l-1.188-1.414
	c-0.155-0.185-0.43-0.208-0.615-0.053l-1.211,1.017c-0.184,0.154-0.208,0.431-0.053,0.615l1.188,1.414
	c0.024,0.028,0.054,0.045,0.082,0.064c-0.019,0.086-0.041,0.168-0.048,0.257c-0.015,0.171-0.002,0.336,0.023,0.499
	c-0.047,0.017-0.094,0.039-0.133,0.072l-1.415,1.187c-0.184,0.155-0.208,0.431-0.053,0.615l1.017,1.211
	c0.155,0.185,0.431,0.208,0.614,0.054l1.415-1.188c0.083-0.07,0.129-0.166,0.145-0.266c0.087,0.019,0.172,0.041,0.263,0.049
	c0.131,0.012,0.26,0.008,0.386-0.006c-0.004,0.105,0.026,0.214,0.099,0.301l1.188,1.414c0.155,0.185,0.43,0.209,0.615,0.053
	l1.21-1.018c0.184-0.153,0.208-0.43,0.053-0.613L271.923,209.258z"/>
<path fill="#EAE8D8" d="M273.103,219.404c-0.061-0.073-0.143-0.112-0.228-0.134c0.048-0.146,0.083-0.299,0.098-0.457
	c0.006-0.072-0.002-0.143-0.003-0.213c0.075-0.014,0.148-0.037,0.21-0.09l1.415-1.187c0.184-0.155,0.208-0.431,0.053-0.615
	l-1.017-1.211c-0.155-0.184-0.431-0.208-0.614-0.053l-1.415,1.187c-0.017,0.015-0.024,0.032-0.039,0.048
	c-0.148-0.049-0.303-0.087-0.466-0.101c-0.127-0.012-0.25-0.006-0.372,0.005c-0.006-0.009-0.008-0.021-0.016-0.029l-1.188-1.414
	c-0.155-0.185-0.43-0.208-0.615-0.053l-1.211,1.017c-0.184,0.154-0.208,0.431-0.053,0.615l1.188,1.414
	c0.024,0.028,0.054,0.045,0.082,0.064c-0.019,0.086-0.041,0.168-0.048,0.257c-0.015,0.171-0.002,0.336,0.023,0.499
	c-0.047,0.017-0.094,0.039-0.133,0.072l-1.415,1.187c-0.184,0.155-0.208,0.431-0.053,0.615l1.017,1.211
	c0.155,0.185,0.431,0.208,0.614,0.054l1.415-1.188c0.083-0.07,0.129-0.166,0.145-0.266c0.087,0.019,0.172,0.041,0.263,0.049
	c0.131,0.012,0.26,0.008,0.386-0.006c-0.004,0.105,0.026,0.214,0.099,0.301l1.188,1.414c0.155,0.185,0.43,0.209,0.615,0.053
	l1.21-1.018c0.184-0.153,0.208-0.43,0.053-0.613L273.103,219.404z"/>
<path fill="#EAE8D8" d="M264.152,276.049c-0.066-0.069-0.15-0.102-0.237-0.117c0.038-0.149,0.062-0.305,0.065-0.463
	c0-0.072-0.012-0.143-0.019-0.212c0.074-0.02,0.145-0.048,0.203-0.105l1.327-1.284c0.172-0.168,0.177-0.444,0.009-0.617
	l-1.101-1.136c-0.168-0.172-0.444-0.177-0.616-0.009l-1.327,1.285c-0.016,0.016-0.022,0.034-0.035,0.051
	c-0.151-0.038-0.309-0.065-0.472-0.067c-0.127-0.003-0.25,0.013-0.371,0.032c-0.007-0.009-0.01-0.021-0.018-0.028l-1.286-1.326
	c-0.167-0.173-0.444-0.177-0.617-0.008l-1.135,1.101c-0.172,0.167-0.176,0.444-0.009,0.617l1.286,1.325
	c0.026,0.026,0.057,0.041,0.086,0.059c-0.012,0.087-0.029,0.171-0.03,0.26c-0.003,0.172,0.021,0.335,0.059,0.496
	c-0.046,0.02-0.091,0.046-0.128,0.081l-1.326,1.285c-0.173,0.168-0.177,0.444-0.009,0.617l1.101,1.136
	c0.168,0.173,0.444,0.177,0.617,0.009l1.326-1.285c0.079-0.076,0.117-0.175,0.126-0.275c0.088,0.013,0.174,0.028,0.266,0.03
	c0.131,0.002,0.26-0.011,0.384-0.034c0.003,0.105,0.041,0.212,0.12,0.293l1.286,1.326c0.167,0.173,0.444,0.178,0.618,0.008
	l1.134-1.102c0.173-0.166,0.177-0.443,0.009-0.615L264.152,276.049z"/>
<path fill="#EAE8D8" d="M274.152,283.799c-0.066-0.069-0.15-0.102-0.237-0.117c0.038-0.149,0.062-0.305,0.065-0.463
	c0-0.072-0.012-0.143-0.019-0.212c0.074-0.02,0.145-0.048,0.203-0.105l1.327-1.284c0.172-0.168,0.177-0.444,0.009-0.617
	l-1.101-1.136c-0.168-0.172-0.444-0.177-0.616-0.009l-1.327,1.285c-0.016,0.016-0.022,0.034-0.035,0.051
	c-0.151-0.038-0.309-0.065-0.472-0.067c-0.127-0.003-0.25,0.013-0.371,0.032c-0.007-0.009-0.01-0.021-0.018-0.028l-1.286-1.326
	c-0.167-0.173-0.444-0.177-0.617-0.008l-1.135,1.101c-0.172,0.167-0.176,0.444-0.009,0.617l1.286,1.325
	c0.026,0.026,0.057,0.041,0.086,0.059c-0.012,0.087-0.029,0.171-0.03,0.26c-0.003,0.172,0.021,0.335,0.059,0.496
	c-0.046,0.02-0.091,0.046-0.128,0.081l-1.326,1.285c-0.173,0.168-0.177,0.444-0.009,0.617l1.101,1.136
	c0.168,0.173,0.444,0.177,0.617,0.009l1.326-1.285c0.079-0.076,0.117-0.175,0.126-0.275c0.088,0.013,0.174,0.028,0.266,0.03
	c0.131,0.002,0.26-0.011,0.384-0.034c0.003,0.105,0.041,0.212,0.12,0.293l1.286,1.326c0.167,0.173,0.444,0.178,0.618,0.008
	l1.134-1.102c0.173-0.166,0.177-0.443,0.009-0.615L274.152,283.799z"/>
<path fill="#EAE8D8" d="M270.448,294.621c-0.066-0.069-0.15-0.102-0.237-0.117c0.038-0.149,0.062-0.305,0.065-0.463
	c0-0.072-0.012-0.143-0.019-0.212c0.074-0.02,0.145-0.048,0.203-0.105l1.327-1.284c0.172-0.168,0.177-0.444,0.009-0.617
	l-1.101-1.136c-0.168-0.172-0.444-0.177-0.616-0.009l-1.327,1.285c-0.016,0.016-0.022,0.034-0.035,0.051
	c-0.151-0.038-0.309-0.065-0.472-0.067c-0.127-0.003-0.25,0.013-0.371,0.032c-0.007-0.009-0.01-0.021-0.018-0.028l-1.286-1.326
	c-0.167-0.173-0.444-0.177-0.617-0.008l-1.135,1.101c-0.172,0.167-0.176,0.444-0.009,0.617l1.286,1.325
	c0.026,0.026,0.057,0.041,0.086,0.059c-0.012,0.087-0.029,0.171-0.03,0.26c-0.003,0.172,0.021,0.335,0.059,0.496
	c-0.046,0.02-0.091,0.046-0.128,0.081l-1.326,1.285c-0.173,0.168-0.177,0.444-0.009,0.617l1.101,1.136
	c0.168,0.173,0.444,0.177,0.617,0.009l1.326-1.285c0.079-0.076,0.117-0.175,0.126-0.275c0.088,0.013,0.174,0.028,0.266,0.03
	c0.131,0.002,0.26-0.011,0.384-0.034c0.003,0.105,0.041,0.212,0.12,0.293l1.286,1.326c0.167,0.173,0.444,0.178,0.618,0.008
	l1.134-1.102c0.173-0.166,0.177-0.443,0.009-0.615L270.448,294.621z"/>
<path fill="#EAE8D8" d="M257.698,294.163c-0.066-0.069-0.15-0.102-0.237-0.117c0.038-0.149,0.062-0.305,0.065-0.463
	c0-0.072-0.012-0.143-0.019-0.212c0.074-0.02,0.145-0.048,0.203-0.105l1.327-1.284c0.172-0.168,0.177-0.444,0.009-0.617
	l-1.101-1.136c-0.168-0.172-0.444-0.177-0.616-0.009l-1.327,1.285c-0.016,0.016-0.022,0.034-0.035,0.051
	c-0.151-0.038-0.309-0.065-0.472-0.067c-0.127-0.003-0.25,0.013-0.371,0.032c-0.007-0.009-0.01-0.021-0.018-0.028l-1.286-1.326
	c-0.167-0.173-0.444-0.177-0.617-0.008l-1.135,1.101c-0.172,0.167-0.176,0.444-0.009,0.617l1.286,1.325
	c0.026,0.026,0.057,0.041,0.086,0.059c-0.012,0.087-0.029,0.171-0.03,0.26c-0.003,0.172,0.021,0.335,0.059,0.496
	c-0.046,0.02-0.091,0.046-0.128,0.081l-1.326,1.285c-0.173,0.168-0.177,0.444-0.009,0.617l1.101,1.136
	c0.168,0.173,0.444,0.177,0.617,0.009l1.326-1.285c0.079-0.076,0.117-0.175,0.126-0.275c0.088,0.013,0.174,0.028,0.266,0.03
	c0.131,0.002,0.26-0.011,0.384-0.034c0.003,0.105,0.041,0.212,0.12,0.293l1.286,1.326c0.167,0.173,0.444,0.178,0.618,0.008
	l1.134-1.102c0.173-0.166,0.177-0.443,0.009-0.615L257.698,294.163z"/>
<path fill="#EAE8D8" d="M254.365,283.704c-0.066-0.069-0.15-0.102-0.237-0.117c0.038-0.149,0.062-0.305,0.065-0.463
	c0-0.072-0.012-0.143-0.019-0.212c0.074-0.02,0.145-0.048,0.203-0.105l1.327-1.284c0.172-0.168,0.177-0.444,0.009-0.617
	l-1.101-1.136c-0.168-0.172-0.444-0.177-0.616-0.009l-1.327,1.285c-0.016,0.016-0.022,0.034-0.035,0.051
	c-0.151-0.038-0.309-0.065-0.472-0.067c-0.127-0.003-0.25,0.013-0.371,0.032c-0.007-0.009-0.01-0.021-0.018-0.028l-1.286-1.326
	c-0.167-0.173-0.444-0.177-0.617-0.008l-1.135,1.101c-0.172,0.167-0.176,0.444-0.009,0.617l1.286,1.325
	c0.026,0.026,0.057,0.041,0.086,0.059c-0.012,0.087-0.029,0.171-0.03,0.26c-0.003,0.172,0.021,0.335,0.059,0.496
	c-0.046,0.02-0.091,0.046-0.128,0.081l-1.326,1.285c-0.173,0.168-0.177,0.444-0.009,0.617l1.101,1.136
	c0.168,0.173,0.444,0.177,0.617,0.009l1.326-1.285c0.079-0.076,0.117-0.175,0.126-0.275c0.088,0.013,0.174,0.028,0.266,0.03
	c0.131,0.002,0.26-0.011,0.384-0.034c0.003,0.105,0.041,0.212,0.12,0.293l1.286,1.326c0.167,0.173,0.444,0.178,0.618,0.008
	l1.134-1.102c0.173-0.166,0.177-0.443,0.009-0.615L254.365,283.704z"/>
<path fill="#EAE8D8" d="M228.606,191.862c-0.065-0.069-0.149-0.104-0.236-0.12c0.039-0.148,0.065-0.303,0.069-0.462
	c0.001-0.072-0.011-0.143-0.017-0.212c0.074-0.019,0.146-0.047,0.205-0.103l1.339-1.271c0.174-0.167,0.181-0.443,0.015-0.618
	l-1.089-1.146c-0.167-0.174-0.443-0.181-0.616-0.015l-1.339,1.271c-0.016,0.016-0.022,0.034-0.035,0.05
	c-0.151-0.039-0.308-0.067-0.472-0.071c-0.127-0.004-0.25,0.01-0.371,0.028c-0.007-0.009-0.01-0.021-0.018-0.028l-1.272-1.339
	c-0.166-0.174-0.442-0.181-0.617-0.014l-1.146,1.089c-0.174,0.165-0.181,0.442-0.015,0.617l1.272,1.338
	c0.025,0.027,0.057,0.042,0.086,0.06c-0.013,0.087-0.031,0.17-0.032,0.26c-0.005,0.171,0.018,0.335,0.054,0.496
	c-0.046,0.02-0.091,0.045-0.129,0.08l-1.339,1.272c-0.174,0.166-0.181,0.442-0.015,0.617l1.089,1.146
	c0.167,0.175,0.443,0.182,0.616,0.016l1.339-1.272c0.079-0.075,0.118-0.174,0.128-0.274c0.088,0.014,0.174,0.03,0.266,0.033
	c0.131,0.003,0.26-0.009,0.384-0.03c0.002,0.105,0.039,0.212,0.117,0.294l1.272,1.339c0.166,0.175,0.442,0.182,0.617,0.015
	l1.146-1.091c0.174-0.164,0.181-0.441,0.015-0.615L228.606,191.862z"/>
<path fill="#EAE8D8" d="M192.725,200.919c-0.065-0.069-0.149-0.104-0.236-0.12c0.039-0.148,0.065-0.303,0.069-0.462
	c0.001-0.072-0.011-0.143-0.017-0.212c0.074-0.019,0.146-0.047,0.205-0.103l1.339-1.271c0.174-0.167,0.181-0.443,0.015-0.618
	l-1.089-1.146c-0.167-0.174-0.443-0.181-0.616-0.015l-1.339,1.271c-0.016,0.016-0.022,0.034-0.035,0.05
	c-0.151-0.039-0.308-0.067-0.472-0.071c-0.127-0.004-0.25,0.01-0.371,0.028c-0.007-0.009-0.01-0.021-0.018-0.028l-1.272-1.339
	c-0.166-0.174-0.442-0.181-0.617-0.014l-1.146,1.089c-0.174,0.165-0.181,0.442-0.015,0.617l1.272,1.338
	c0.025,0.027,0.057,0.042,0.086,0.06c-0.013,0.087-0.031,0.17-0.032,0.26c-0.005,0.171,0.018,0.335,0.054,0.496
	c-0.046,0.02-0.091,0.045-0.129,0.08l-1.339,1.272c-0.174,0.166-0.181,0.442-0.015,0.617l1.089,1.146
	c0.167,0.175,0.443,0.182,0.616,0.016l1.339-1.272c0.079-0.075,0.118-0.174,0.128-0.274c0.088,0.014,0.174,0.03,0.266,0.033
	c0.131,0.003,0.26-0.009,0.384-0.03c0.002,0.105,0.039,0.212,0.117,0.294l1.272,1.339c0.166,0.175,0.442,0.182,0.617,0.015
	l1.146-1.091c0.174-0.164,0.181-0.441,0.015-0.615L192.725,200.919z"/>
<path fill="#B8DCF2" d="M116,203.583c0,0-2.75-4.25-3.875-10.25s1.292-11.417-7.292-18S85,176.167,79.083,177
	s-12.75-0.251-17.25-2.084s-11.918-7.105-22.667,1.083c-9.792,7.459-9.853,25.83,1.458,34.417
	c6.313,4.792,13.375,4.459,20.875,2.292c8.494-2.454,24.167-3.75,41.417,12.208L116,203.583z"/>
<rect x="53.917" y="155.375" fill="#EAE8D8" width="2.916" height="2.916"/>
<rect x="65.042" y="151.666" fill="#EAE8D8" width="3.417" height="10.666"/>
<rect x="73.709" y="151.666" fill="#EAE8D8" width="3.417" height="10.666"/>
<rect x="69.708" y="155.375" fill="#EAE8D8" width="2.916" height="2.916"/>
<rect x="83.75" y="151.666" fill="#EAE8D8" width="3.417" height="10.666"/>
<rect x="92.417" y="151.666" fill="#EAE8D8" width="3.417" height="10.666"/>
<rect x="88.417" y="155.375" fill="#EAE8D8" width="2.916" height="2.916"/>
<rect x="1" y="299.833" fill="#EAE8D8" width="276.571" height="10.75"/>
<polygon fill="#EAE8D8" points="311,312.583 299,312.583 299,333.583 618,333.583 618,321.833 311,321.833 "/>
<path fill="#E8DDCA" d="M618.417,255.833v5.5h-4.267c-0.313,0-0.567,0.254-0.567,0.566v2.074c0,0.313,0.254,0.567,0.567,0.567h4.267
	v1.417h-4.267c-0.313,0-0.567,0.254-0.567,0.566v2.074c0,0.313,0.254,0.567,0.567,0.567h4.267v5h-4.267
	c-0.313,0-0.567,0.254-0.567,0.566v2.074c0,0.313,0.254,0.567,0.567,0.567h4.267v1.417h-4.267c-0.313,0-0.567,0.254-0.567,0.566
	v2.074c0,0.313,0.254,0.567,0.567,0.567h4.267v5.354h-4.267c-0.313,0-0.567,0.254-0.567,0.566v2.074
	c0,0.313,0.254,0.567,0.567,0.567h4.267v1.417h-4.267c-0.313,0-0.567,0.254-0.567,0.566v2.074c0,0.313,0.254,0.567,0.567,0.567h4.28
	c0.099,0.766,0.642,6.034-2.597,9.813c-3.612,4.215-9.917,3.583-9.917,3.583s-2.159,0-5.563,0v-4.288
	c0-0.313-0.254-0.566-0.567-0.566h-2.074c-0.313,0-0.566,0.254-0.566,0.566v4.288h-1.445v-4.288c0-0.313-0.254-0.566-0.567-0.566
	h-2.074c-0.313,0-0.566,0.254-0.566,0.566v4.288h-1.444v-4.288c0-0.313-0.254-0.566-0.567-0.566h-2.074
	c-0.313,0-0.566,0.254-0.566,0.566v4.288h-1.445v-4.288c0-0.313-0.254-0.566-0.567-0.566h-2.074c-0.313,0-0.566,0.254-0.566,0.566
	v4.288h-1.104c-11.083,0-10.75-11.167-10.75-11.167s0-0.927,0-2.417h4.267c0.313,0,0.567-0.254,0.567-0.567v-2.074
	c0-0.313-0.254-0.566-0.567-0.566h-4.267v-1.417h4.267c0.313,0,0.567-0.254,0.567-0.567v-2.074c0-0.313-0.254-0.566-0.567-0.566
	h-4.267v-5h4.267c0.313,0,0.567-0.254,0.567-0.567v-2.074c0-0.313-0.254-0.566-0.567-0.566h-4.267v-1.417h4.267
	c0.313,0,0.567-0.254,0.567-0.567v-2.074c0-0.313-0.254-0.566-0.567-0.566h-4.267v-2.583c0-2.333-2.25-2.084-2.25-2.084h-2.25
	v26.668c0,0-0.667,7.083,4.25,12.25s11.833,4.5,11.833,4.5h23.917c0,0,6.083,0.583,10.917-3.667s5.125-10.334,5.125-10.334v-43.25
	H618.417z"/>
<path fill="#E8DDCA" d="M290.488,52.861c-4.648-20.111-22.207-28.998-28.457-31.248s-10.375-2.293-10.5,1.082
	c-0.04,1.068-0.054,2.346-0.056,3.593c32.091,4.165,35.172,31.944,34.358,44.295c-1,15.167-12.333,23.333-12.5,43.5
	c-0.106,12.837,14,26.499,13.5,43.166s-7.159,27.41-8.667,44.834c-1.5,17.333,6,40,6,40l-11,6.5c0,0,0.713,2.063,2.201,5.157
	c1.704-0.987,13.495-7.833,14.538-8.877c1.125-1.125,0.375-2.625,0.375-2.625s-2.75-5.25-5.375-17s-1.835-19.418-0.085-31.043
	s6.625-24.667,7-38.167s-0.688-24.468-6.665-37.165c-4.001-8.501,1-17.625,1.75-21.875S295.862,76.11,290.488,52.861z"/>
<path fill="#E8DDCA" d="M388.333,285.583c5.333-3.834,7.5-8.167,6.833-15.833c-0.424-4.872-0.522-10.278-0.531-13.917h-8.229v11.405
	h5.75c0,0,1.25,4.625-2.375,10.75c-4.762,8.046-19.375,2.25-25.875-0.5s-17.375-6.125-33.75-3.25s-13.75,3.25-24.25,0.75
	s-12.5-7.875-15.125-10s-3.75-0.25-3.75-0.25l-3.22,2.35c4.061,4.936,9.354,9.676,16.022,12.495
	c20.5,8.666,23.905-8.084,55.667,1.167C372.667,285.75,383,289.417,388.333,285.583z"/>
<path fill="#E8DDCA" d="M428.781,255.833h-12.364v12.001c0,0,2.583,14.249,15.75,21.333c16.253,8.744,34.917,5.417,50.5,2.75
	s32.333-9.166,48.5-13.166s24.083-3.834,24.083-3.834v7.833h10.923c0.656-0.355,1.254-0.699,1.733-1.012
	c2.875-1.875-1-11.375-1-11.375h-11.625v-2.25c0,0-12,1-24.875,4.25s-41.375,12.375-57.25,14.25s-24.125,2.625-35.25-2
	s-16-17.875-16-17.875h6.875V255.833z"/>
<circle fill="#B8DCF2" stroke="#E8DDCA" stroke-width="2" cx="282.25" cy="91.166" r="12.583"/>
<circle fill="#B8DCF2" stroke="#E8DDCA" stroke-width="2" cx="282.25" cy="132.666" r="12.583"/>
<path fill="none" stroke="#AAA393" stroke-width="2" d="M241.668,1l-0.105,102.437l13.271,0.063v21.416H240.5v48.667
	c0,0,5.333,0.333,5,5.833c0,0-0.833,4.584-6.333,3.834s-5.333-4.167-16.583-3.667s-11.583,7.167-37.25,9.334s-51.5,0-51.5,0v-42.333
	H95.667H1v87.499h57.5v50H1v26.5h298v23h326v-77.75H312V1H241.668z"/>
<rect x="277.571" y="296.008" fill="#EAE8D8" width="21.429" height="13.638"/>
<rect x="242.613" y="78.487" fill="#EAE8D8" width="13.179" height="24.055"/>
</svg>
