<?xml version="1.0" encoding="utf-8"?>
<!-- Generator: Adobe Illustrator 23.0.1, SVG Export Plug-In . SVG Version: 6.00 Build 0)  -->
<!DOCTYPE svg PUBLIC "-//W3C//DTD SVG 1.1//EN" "http://www.w3.org/Graphics/SVG/1.1/DTD/svg11.dtd">
<svg version="1.1" xmlns="http://www.w3.org/2000/svg" xmlns:xlink="http://www.w3.org/1999/xlink" x="0px" y="0px"
	 viewBox="0 0 1300 558" width="1300px" height="558px" style="enable-background:new 0 0 1300 558;" xml:space="preserve">
<style type="text/css">
	.st_0{fill:#BFB8A9;}
	.st_1{fill:#D8D5D0;stroke:#A0998E;}
	.st_2{fill:#D8D5D0;stroke:#A0998E;stroke-width:0.7;}
	.st_3{fill:#FFFFFF;}
	.st_4{fill:#AAA292;}
	.st_5{fill:none;stroke:#E8DFCF;stroke-width:2;}
	.st_6{fill:#FFFFFF;stroke:#E8DFCF;stroke-width:2;}
	.st_7{fill:#EAE8D7;}
	.st_8{fill:#A9C98F;}
	.st_9{fill:#A0998E;}
	.st_10{fill:#FFFFFF;stroke:#E8DFCF;stroke-width:1.5;}
	.st_11{fill:#E8DFCF;}
	.st_12{fill:none;stroke:#E8DFCF;stroke-width:1.5;stroke-linecap:square;stroke-linejoin:round;}
	.st_13{fill:none;stroke:#E8DFCF;stroke-width:1.5;}
	.st_14{fill:#B8DCF1;stroke:#E8DDC9;stroke-width:3;}
	.st_15{fill:#DBC1A2;}
	.st_16{fill:#B8DCF1;}
	.st_17{fill:#B8DCF1;stroke:#E8DDC9;stroke-width:2;}
	.st_18{clip-path:url(#SVGID_2_);fill:#B8DCF1;stroke:#E8DDC9;stroke-width:3;}
	.st_19{clip-path:url(#SVGID_2_);fill:none;stroke:#A0998E;}
	.st_20{fill:none;stroke:#E8DDC9;stroke-width:3;}
	.st_21{fill:none;}
	.st_22{fill:#666666;}
	.st_23{font-family:'NotoSansCJKkr-Light';}
	.st_24{font-size:14px;}
</style>
<g id="bg">
	<path id="그림자" class="st_0" d="M878,10H334v139H40l1.5,202.7l100.3-0.4L142,187h96v128h96v243h544V10z"/>
</g>
<g id="시설">
	<g>
		<path class="st_1" d="M627.9,351.7c-12.4,0-22.4,10-22.4,22.4s10,22.4,22.4,22.4c12.4,0,22.4-10,22.4-22.4S640.2,351.7,627.9,351.7
			z M627.9,392.4c-10.1,0-18.3-8.2-18.3-18.3s8.2-18.3,18.3-18.3c10.1,0,18.3,8.2,18.3,18.3S638,392.4,627.9,392.4z"/>
		<path class="st_2" d="M627.9,355.6c-10.2,0-18.5,8.3-18.5,18.5s8.3,18.5,18.5,18.5c10.2,0,18.5-8.3,18.5-18.5
			S638.1,355.6,627.9,355.6z M627.9,389c-8.2,0-14.9-6.7-14.9-14.9s6.7-14.9,14.9-14.9c8.2,0,14.9,6.7,14.9,14.9
			S636.1,389,627.9,389z"/>
		<path class="st_2" d="M627.9,358.4c-8.7,0-15.7,7-15.7,15.7s7,15.7,15.7,15.7c8.7,0,15.7-7,15.7-15.7S636.5,358.4,627.9,358.4z
			 M627.9,386.3c-6.7,0-12.2-5.5-12.2-12.2s5.5-12.2,12.2-12.2c6.7,0,12.2,5.5,12.2,12.2S634.6,386.3,627.9,386.3z"/>
		<path class="st_2" d="M627.9,361.9c-6.7,0-12.2,5.5-12.2,12.2s5.5,12.2,12.2,12.2c6.7,0,12.2-5.5,12.2-12.2
			S634.6,361.9,627.9,361.9z M627.9,383.4c-5.1,0-9.3-4.2-9.3-9.3s4.2-9.3,9.3-9.3c5.1,0,9.3,4.2,9.3,9.3S633,383.4,627.9,383.4z"/>
	</g>
	<g>
		<polygon class="st_3" points="325.5,546.5 325.5,303.5 229.5,303.5 229.5,175.5 130.5,175.5 130.4,341.9 1.8,341.9 1.8,141.1 
			325.5,140.5 325.5,1.5 866.5,1.5 866.5,546.5 		"/>
		<path class="st_4" d="M865,3v542H327V305v-3h-3h-93V177v-3h-3h-96h-3l0,3l-0.1,163.4H3.3V142.6L324,142l3,0v-3V3H865 M868,0H324
			v139L0.3,139.6v203.9h131.6L132,177h96v128h96v243h544V0L868,0z"/>
	</g>
	<g>
		<path class="st_1" d="M681.9,351.7c-12.4,0-22.4,10-22.4,22.4s10,22.4,22.4,22.4c12.4,0,22.4-10,22.4-22.4S694.2,351.7,681.9,351.7
			z M681.9,392.4c-10.1,0-18.3-8.2-18.3-18.3s8.2-18.3,18.3-18.3c10.1,0,18.3,8.2,18.3,18.3S692,392.4,681.9,392.4z"/>
		<path class="st_2" d="M681.9,355.6c-10.2,0-18.5,8.3-18.5,18.5s8.3,18.5,18.5,18.5c10.2,0,18.5-8.3,18.5-18.5
			S692.1,355.6,681.9,355.6z M681.9,389c-8.2,0-14.9-6.7-14.9-14.9s6.7-14.9,14.9-14.9c8.2,0,14.9,6.7,14.9,14.9
			S690.1,389,681.9,389z"/>
		<path class="st_2" d="M681.9,358.4c-8.7,0-15.7,7-15.7,15.7s7,15.7,15.7,15.7c8.7,0,15.7-7,15.7-15.7S690.5,358.4,681.9,358.4z
			 M681.9,386.3c-6.7,0-12.2-5.5-12.2-12.2s5.5-12.2,12.2-12.2c6.7,0,12.2,5.5,12.2,12.2S688.6,386.3,681.9,386.3z"/>
		<path class="st_2" d="M681.9,361.9c-6.7,0-12.2,5.5-12.2,12.2s5.5,12.2,12.2,12.2c6.7,0,12.2-5.5,12.2-12.2
			S688.6,361.9,681.9,361.9z M681.9,383.4c-5.1,0-9.3-4.2-9.3-9.3s4.2-9.3,9.3-9.3c5.1,0,9.3,4.2,9.3,9.3S687,383.4,681.9,383.4z"/>
	</g>
	<g>
		<path class="st_5" d="M17.5,142v87.3h48.7"/>
		<path id="Shape_2_copy_1_" class="st_5" d="M81.9,229.3h18.4V287H47.7v-56.1"/>
		<path class="st_5" d="M34.6,230.9v73.3h80.2v-24.9"/>
		<g>
			<path class="st_6" d="M90.2,240.2h27.9v37.5H90.2C90.2,277.7,90.2,240.2,90.2,240.2z"/>
			<rect x="94.3" y="244.9" class="st_7" width="19.7" height="3.1"/>
			<rect id="Rectangle_8_copy_1_" x="94.3" y="251.1" class="st_7" width="19.7" height="3.1"/>
			<rect id="Rectangle_8_copy_2_1_" x="94.3" y="257.4" class="st_7" width="19.7" height="3.1"/>
			<rect id="Rectangle_8_copy_3_1_" x="94.3" y="263.6" class="st_7" width="19.7" height="3.1"/>
			<rect id="Rectangle_8_copy_4_1_" x="94.3" y="269.8" class="st_7" width="19.7" height="3.1"/>
		</g>
		<g id="Group_3_copy_1_">
			<path class="st_6" d="M10,240.2h27.9v37.5H10V240.2z"/>
			<rect x="14.1" y="244.9" class="st_7" width="19.7" height="3.1"/>
			<rect id="Rectangle_8_copy-2_1_" x="14.1" y="251.1" class="st_7" width="19.7" height="3.1"/>
			<rect id="Rectangle_8_copy_2-2_1_" x="14.1" y="257.4" class="st_7" width="19.7" height="3.1"/>
			<rect id="Rectangle_8_copy_3-2_1_" x="14.1" y="263.6" class="st_7" width="19.7" height="3.1"/>
			<rect id="Rectangle_8_copy_4-2_1_" x="14.1" y="269.8" class="st_7" width="19.7" height="3.1"/>
		</g>
		<g id="Group_3_copy_2_1_">
			<path class="st_6" d="M48.3,287h31.6v32.7H48.3V287z"/>
			<rect x="73.2" y="291.7" class="st_7" width="2.6" height="23.2"/>
			<rect id="Rectangle_8_copy-3_1_" x="68" y="291.7" class="st_7" width="2.6" height="23.2"/>
			<rect id="Rectangle_8_copy_2-3_1_" x="62.7" y="291.7" class="st_7" width="2.6" height="23.2"/>
			<rect id="Rectangle_8_copy_3-3_1_" x="57.5" y="291.7" class="st_7" width="2.6" height="23.2"/>
			<rect id="Rectangle_8_copy_4-3_1_" x="52.2" y="291.7" class="st_7" width="2.6" height="23.2"/>
		</g>
	</g>
	<path class="st_5" d="M231,173h95"/>
	<path id="Shape_4_copy_2_1_" class="st_5" d="M230,174v-32"/>
	<path class="st_5" d="M326,142v19"/>
	<path id="Shape_4_copy_3_" class="st_5" d="M231,212h95v10"/>
	<path id="Shape_4_copy_2_" class="st_5" d="M326,233v23h-95"/>
	<path id="Shape_5_copy_1_" class="st_5" d="M297,279v23"/>
	<rect x="363" y="462" class="st_8" width="502" height="83"/>
	<rect x="363" y="462" class="st_9" width="502" height="31.3"/>
	<g id="Group_7_copy_1_">
		<circle class="st_10" cx="475" cy="383" r="11"/>
		<circle class="st_7" cx="475" cy="393" r="4"/>
		<circle id="Ellipse_6_copy_1_" class="st_7" cx="484" cy="387" r="4"/>
		<circle id="Ellipse_6_copy_2_1_" class="st_7" cx="466" cy="387" r="4"/>
	</g>
	<g id="Group_7_copy_2_1_">
		<circle class="st_10" cx="465" cy="297" r="11"/>
		<circle class="st_7" cx="465" cy="307" r="4"/>
		<circle id="Ellipse_6_copy-2_1_" class="st_7" cx="474" cy="301" r="4"/>
		<circle id="Ellipse_6_copy_2-2_1_" class="st_7" cx="456" cy="301" r="4"/>
	</g>
	<g id="Group_7_copy_3_1_">
		<circle class="st_10" cx="521" cy="297" r="11"/>
		<circle class="st_7" cx="521" cy="287" r="4"/>
		<circle id="Ellipse_6_copy-3_1_" class="st_7" cx="530" cy="293" r="4"/>
		<circle id="Ellipse_6_copy_2-3_1_" class="st_7" cx="512" cy="293" r="4"/>
	</g>
	<g id="Group_7_copy_4_1_">
		<circle class="st_10" cx="512" cy="372" r="11"/>
		<circle class="st_7" cx="512" cy="362" r="4"/>
		<circle id="Ellipse_6_copy-4_1_" class="st_7" cx="521" cy="368" r="4"/>
		<circle id="Ellipse_6_copy_2-4_1_" class="st_7" cx="503" cy="368" r="4"/>
	</g>
	<g id="Group_7_copy_5_1_">
		<circle class="st_10" cx="418" cy="317" r="11"/>
		<circle class="st_7" cx="418" cy="307" r="4"/>
		<circle id="Ellipse_6_copy-5_1_" class="st_7" cx="427" cy="313" r="4"/>
		<circle id="Ellipse_6_copy_2-5_1_" class="st_7" cx="409" cy="313" r="4"/>
	</g>
	<g id="Group_7_copy_10_1_">
		<circle class="st_10" cx="447" cy="331" r="11"/>
		<circle class="st_7" cx="447" cy="321" r="4"/>
		<circle id="Ellipse_6_copy-6_1_" class="st_7" cx="456" cy="327" r="4"/>
		<circle id="Ellipse_6_copy_2-6_1_" class="st_7" cx="438" cy="327" r="4"/>
	</g>
	<g id="Group_7_copy_6_1_">
		<circle class="st_10" cx="378" cy="308" r="11"/>
		<circle class="st_7" cx="378" cy="298" r="4"/>
		<circle id="Ellipse_6_copy-7_1_" class="st_7" cx="387" cy="304" r="4"/>
		<circle id="Ellipse_6_copy_2-7_1_" class="st_7" cx="369" cy="304" r="4"/>
	</g>
	<g id="Group_7_copy_7_1_">
		<circle class="st_10" cx="410" cy="272" r="11"/>
		<circle class="st_7" cx="410" cy="262" r="4"/>
		<circle id="Ellipse_6_copy-8_1_" class="st_7" cx="419" cy="268" r="4"/>
		<circle id="Ellipse_6_copy_2-8_1_" class="st_7" cx="401" cy="268" r="4"/>
	</g>
	<g id="Group_7_copy_8_1_">
		<circle class="st_10" cx="493" cy="330" r="11"/>
		<circle class="st_7" cx="503" cy="330" r="4"/>
		<circle id="Ellipse_6_copy-9_1_" class="st_7" cx="497" cy="339" r="4"/>
		<circle id="Ellipse_6_copy_2-9_1_" class="st_7" cx="497" cy="321" r="4"/>
	</g>
	<g id="Group_7_copy_9_1_">
		<circle class="st_10" cx="446" cy="360" r="11"/>
		<circle class="st_7" cx="456" cy="360" r="4"/>
		<circle id="Ellipse_6_copy-10_1_" class="st_7" cx="450" cy="369" r="4"/>
		<circle id="Ellipse_6_copy_2-10_1_" class="st_7" cx="450" cy="351" r="4"/>
	</g>
	<g>
		<circle class="st_10" cx="529" cy="335" r="11"/>
		<circle class="st_7" cx="529" cy="345" r="4"/>
		<circle id="Ellipse_6_copy-11_1_" class="st_7" cx="538" cy="339" r="4"/>
		<circle id="Ellipse_6_copy_2-11_1_" class="st_7" cx="520" cy="339" r="4"/>
	</g>
	<g>
		<g>
			<g>
				<path class="st_11" d="M727.6,416.4v33h-33v-33H727.6 M729.1,414.9h-36v36h36V414.9L729.1,414.9z"/>
			</g>
			<path class="st_12" d="M695,416.8l32.2,32.2"/>
			<path id="Shape_7_copy-6_11_" class="st_12" d="M727,417l-31.8,31.8"/>
		</g>
		<g>
			<g>
				<path class="st_11" d="M688.8,416.4v33h-33v-33H688.8 M690.3,414.9h-36v36h36V414.9L690.3,414.9z"/>
			</g>
			<path class="st_12" d="M656.2,416.8l32.2,32.2"/>
			<path id="Shape_7_copy-6_10_" class="st_12" d="M688.2,417l-31.8,31.8"/>
		</g>
		<g>
			<g>
				<path class="st_11" d="M649.9,416.4v33h-33v-33H649.9 M651.4,414.9h-36v36h36V414.9L651.4,414.9z"/>
			</g>
			<path class="st_12" d="M617.3,416.8l32.2,32.2"/>
			<path id="Shape_7_copy-6_9_" class="st_12" d="M649.3,417l-31.8,31.8"/>
		</g>
		<g>
			<g>
				<path class="st_11" d="M611.1,416.4v33h-33v-33H611.1 M612.6,414.9h-36v36h36V414.9L612.6,414.9z"/>
			</g>
			<path class="st_12" d="M578.5,416.8l32.2,32.2"/>
			<path id="Shape_7_copy-6_8_" class="st_12" d="M610.5,417l-31.8,31.8"/>
		</g>
		<g>
			<g>
				<path class="st_11" d="M572.2,416.4v33h-33v-33H572.2 M573.7,414.9h-36v36h36V414.9L573.7,414.9z"/>
			</g>
			<path class="st_12" d="M539.6,416.8l32.2,32.2"/>
			<path id="Shape_7_copy-6_7_" class="st_12" d="M571.6,417l-31.8,31.8"/>
		</g>
		<g>
			<g>
				<path class="st_11" d="M533.4,416.4v33h-33v-33H533.4 M534.9,414.9h-36v36h36V414.9L534.9,414.9z"/>
			</g>
			<path class="st_12" d="M500.8,416.8L533,449"/>
			<path id="Shape_7_copy-6_6_" class="st_12" d="M532.8,417L501,448.9"/>
		</g>
	</g>
	<g>
		<rect x="776.5" y="297.8" class="st_13" width="33.7" height="33.7"/>
		<rect x="782.4" y="305.3" class="st_13" width="18.5" height="6.7"/>
		<rect id="Rectangle_5_copy_1_" x="782.4" y="317.1" class="st_13" width="18.5" height="6.7"/>
	</g>
	<g id="Group_1_copy_1_">
		<rect x="776.5" y="336.5" class="st_13" width="33.7" height="33.7"/>
		<rect x="782.4" y="344.1" class="st_13" width="18.5" height="6.7"/>
		<rect id="Rectangle_5_copy-2_1_" x="782.4" y="355.9" class="st_13" width="18.5" height="6.7"/>
	</g>
	<g id="Group_1_copy_2_1_">
		<rect x="817.8" y="355.9" class="st_13" width="33.7" height="33.7"/>
		<rect x="823.7" y="363.5" class="st_13" width="18.5" height="6.7"/>
		<rect id="Rectangle_5_copy-3_1_" x="823.7" y="375.3" class="st_13" width="18.5" height="6.7"/>
	</g>
	<g id="Group_1_copy_3_1_">
		<rect x="817.8" y="317.1" class="st_13" width="33.7" height="33.7"/>
		<rect x="823.7" y="324.7" class="st_13" width="18.5" height="6.7"/>
		<rect id="Rectangle_5_copy-4_1_" x="823.7" y="336.5" class="st_13" width="18.5" height="6.7"/>
	</g>
	<g id="Group_1_copy_4_1_">
		<rect x="817.8" y="278.4" class="st_13" width="33.7" height="33.7"/>
		<rect x="823.7" y="286" class="st_13" width="18.5" height="6.7"/>
		<rect id="Rectangle_5_copy-5_1_" x="823.7" y="297.8" class="st_13" width="18.5" height="6.7"/>
	</g>
	<circle id="Ellipse_2_copy_2_1_" class="st_14" cx="655" cy="297" r="48"/>
	<circle id="Ellipse_2_copy_2-2_1_" class="st_15" cx="655" cy="297" r="33"/>
	<rect x="327" y="3" class="st_16" width="538" height="158"/>
	<circle class="st_14" cx="683" cy="172" r="36"/>
	<circle id="Ellipse_2_copy_1_" class="st_17" cx="683" cy="172" r="27"/>
	<rect x="320.3" y="240.4" class="st_11" width="6.7" height="31.3"/>
	<g>
		<defs>
			<circle id="SVGID_1_" cx="598.5" cy="150.5" r="42.5"/>
		</defs>
		<clipPath id="SVGID_2_">
			<use xlink:href="#SVGID_1_"  style="overflow:visible;"/>
		</clipPath>
		<circle class="st_18" cx="598.5" cy="150.5" r="42.5"/>
		<line class="st_19" x1="552.5" y1="161" x2="644.4" y2="161"/>
		<line class="st_19" x1="552.5" y1="165.4" x2="644.4" y2="165.4"/>
		<line class="st_19" x1="552.5" y1="169.8" x2="644.4" y2="169.8"/>
		<line class="st_19" x1="552.5" y1="174.1" x2="644.4" y2="174.1"/>
		<line class="st_19" x1="552.5" y1="178.5" x2="644.4" y2="178.5"/>
		<line class="st_19" x1="552.5" y1="182.9" x2="644.4" y2="182.9"/>
		<line class="st_19" x1="552.5" y1="187.3" x2="644.4" y2="187.3"/>
		<line class="st_19" x1="552.5" y1="191.6" x2="644.4" y2="191.6"/>
	</g>
	<circle class="st_20" cx="598.5" cy="150.5" r="42.5"/>
	<circle class="st_21" cx="598.5" cy="150.5" r="42.5"/>
	<path class="st_11" d="M366.4,183.2c0-1.4-1.2-2.6-2.6-2.6h-2.4l1.7-1.7c1-1,1-2.6,0-3.7c-1-1-2.6-1-3.7,0l-1.7,1.7v-2.4
		c0-1.4-1.2-2.6-2.6-2.6c-1.4,0-2.6,1.2-2.6,2.6v2.4l-1.7-1.7c-1-1-2.6-1-3.7,0c-1,1-1,2.6,0,3.7l1.7,1.7h-2.4
		c-1.4,0-2.6,1.2-2.6,2.6c0,1.4,1.2,2.6,2.6,2.6h2.4l-1.7,1.7c-1,1-1,2.6,0,3.7c1,1,2.6,1,3.7,0l1.7-1.7v2.4c0,1.4,1.2,2.6,2.6,2.6
		c1.4,0,2.6-1.2,2.6-2.6v-2.4l1.7,1.7c1,1,2.6,1,3.7,0c1-1,1-2.6,0-3.7l-1.7-1.7h2.4C365.2,185.8,366.4,184.6,366.4,183.2z"/>
	<path class="st_11" d="M395.2,183.2c0-1.4-1.2-2.6-2.6-2.6h-2.4l1.7-1.7c1-1,1-2.6,0-3.7c-1-1-2.6-1-3.7,0l-1.7,1.7v-2.4
		c0-1.4-1.2-2.6-2.6-2.6s-2.6,1.2-2.6,2.6v2.4l-1.7-1.7c-1-1-2.6-1-3.7,0c-1,1-1,2.6,0,3.7l1.7,1.7h-2.4c-1.4,0-2.6,1.2-2.6,2.6
		c0,1.4,1.2,2.6,2.6,2.6h2.4l-1.7,1.7c-1,1-1,2.6,0,3.7c1,1,2.6,1,3.7,0l1.7-1.7v2.4c0,1.4,1.2,2.6,2.6,2.6s2.6-1.2,2.6-2.6v-2.4
		l1.7,1.7c1,1,2.6,1,3.7,0c1-1,1-2.6,0-3.7l-1.7-1.7h2.4C394,185.8,395.2,184.6,395.2,183.2z"/>
	<path class="st_11" d="M424,183.2c0-1.4-1.2-2.6-2.6-2.6H419l1.7-1.7c1-1,1-2.6,0-3.7c-1-1-2.6-1-3.7,0l-1.7,1.7v-2.4
		c0-1.4-1.2-2.6-2.6-2.6s-2.6,1.2-2.6,2.6v2.4l-1.7-1.7c-1-1-2.6-1-3.7,0c-1,1-1,2.6,0,3.7l1.7,1.7h-2.4c-1.4,0-2.6,1.2-2.6,2.6
		c0,1.4,1.2,2.6,2.6,2.6h2.4l-1.7,1.7c-1,1-1,2.6,0,3.7c1,1,2.6,1,3.7,0l1.7-1.7v2.4c0,1.4,1.2,2.6,2.6,2.6s2.6-1.2,2.6-2.6v-2.4
		l1.7,1.7c1,1,2.6,1,3.7,0c1-1,1-2.6,0-3.7l-1.7-1.7h2.4C422.8,185.8,424,184.6,424,183.2z"/>
	<path class="st_11" d="M452.8,183.2c0-1.4-1.2-2.6-2.6-2.6h-2.4l1.7-1.7c1-1,1-2.6,0-3.7c-1-1-2.6-1-3.7,0l-1.7,1.7v-2.4
		c0-1.4-1.2-2.6-2.6-2.6s-2.6,1.2-2.6,2.6v2.4l-1.7-1.7c-1-1-2.6-1-3.7,0c-1,1-1,2.6,0,3.7l1.7,1.7h-2.4c-1.4,0-2.6,1.2-2.6,2.6
		c0,1.4,1.2,2.6,2.6,2.6h2.4l-1.7,1.7c-1,1-1,2.6,0,3.7c1,1,2.6,1,3.7,0l1.7-1.7v2.4c0,1.4,1.2,2.6,2.6,2.6s2.6-1.2,2.6-2.6v-2.4
		l1.7,1.7c1,1,2.6,1,3.7,0c1-1,1-2.6,0-3.7l-1.7-1.7h2.4C451.6,185.8,452.8,184.6,452.8,183.2z"/>
	<path class="st_11" d="M481.6,183.2c0-1.4-1.2-2.6-2.6-2.6h-2.4l1.7-1.7c1-1,1-2.6,0-3.7c-1-1-2.6-1-3.7,0L473,177v-2.4
		c0-1.4-1.2-2.6-2.6-2.6c-1.4,0-2.6,1.2-2.6,2.6v2.4l-1.7-1.7c-1-1-2.6-1-3.7,0c-1,1-1,2.6,0,3.7l1.7,1.7h-2.4
		c-1.4,0-2.6,1.2-2.6,2.6c0,1.4,1.2,2.6,2.6,2.6h2.4l-1.7,1.7c-1,1-1,2.6,0,3.7c1,1,2.6,1,3.7,0l1.7-1.7v2.4c0,1.4,1.2,2.6,2.6,2.6
		c1.4,0,2.6-1.2,2.6-2.6v-2.4l1.7,1.7c1,1,2.6,1,3.7,0c1-1,1-2.6,0-3.7l-1.7-1.7h2.4C480.5,185.8,481.6,184.6,481.6,183.2z"/>
	<path class="st_11" d="M510.4,183.2c0-1.4-1.2-2.6-2.6-2.6h-2.4l1.7-1.7c1-1,1-2.6,0-3.7c-1-1-2.6-1-3.7,0l-1.7,1.7v-2.4
		c0-1.4-1.2-2.6-2.6-2.6s-2.6,1.2-2.6,2.6v2.4l-1.7-1.7c-1-1-2.6-1-3.7,0c-1,1-1,2.6,0,3.7l1.7,1.7h-2.4c-1.4,0-2.6,1.2-2.6,2.6
		c0,1.4,1.2,2.6,2.6,2.6h2.4l-1.7,1.7c-1,1-1,2.6,0,3.7c1,1,2.6,1,3.7,0l1.7-1.7v2.4c0,1.4,1.2,2.6,2.6,2.6s2.6-1.2,2.6-2.6v-2.4
		l1.7,1.7c1,1,2.6,1,3.7,0c1-1,1-2.6,0-3.7l-1.7-1.7h2.4C509.3,185.8,510.4,184.6,510.4,183.2z"/>
	<path class="st_11" d="M539.2,183.2c0-1.4-1.2-2.6-2.6-2.6h-2.4l1.7-1.7c1-1,1-2.6,0-3.7c-1-1-2.6-1-3.7,0l-1.7,1.7v-2.4
		c0-1.4-1.2-2.6-2.6-2.6s-2.6,1.2-2.6,2.6v2.4l-1.7-1.7c-1-1-2.6-1-3.7,0c-1,1-1,2.6,0,3.7l1.7,1.7h-2.4c-1.4,0-2.6,1.2-2.6,2.6
		c0,1.4,1.2,2.6,2.6,2.6h2.4l-1.7,1.7c-1,1-1,2.6,0,3.7c1,1,2.6,1,3.7,0l1.7-1.7v2.4c0,1.4,1.2,2.6,2.6,2.6s2.6-1.2,2.6-2.6v-2.4
		l1.7,1.7c1,1,2.6,1,3.7,0c1-1,1-2.6,0-3.7l-1.7-1.7h2.4C538.1,185.8,539.2,184.6,539.2,183.2z"/>
	<path class="st_11" d="M424,211.5c0-1.4-1.2-2.6-2.6-2.6H419l1.7-1.7c1-1,1-2.6,0-3.7c-1-1-2.6-1-3.7,0l-1.7,1.7v-2.4
		c0-1.4-1.2-2.6-2.6-2.6s-2.6,1.2-2.6,2.6v2.4l-1.7-1.7c-1-1-2.6-1-3.7,0c-1,1-1,2.6,0,3.7l1.7,1.7h-2.4c-1.4,0-2.6,1.2-2.6,2.6
		s1.2,2.6,2.6,2.6h2.4l-1.7,1.7c-1,1-1,2.6,0,3.7c1,1,2.6,1,3.7,0l1.7-1.7v2.4c0,1.4,1.2,2.6,2.6,2.6s2.6-1.2,2.6-2.6v-2.4l1.7,1.7
		c1,1,2.6,1,3.7,0c1-1,1-2.6,0-3.7l-1.7-1.7h2.4C422.8,214.1,424,212.9,424,211.5z"/>
	<path class="st_11" d="M452.8,211.5c0-1.4-1.2-2.6-2.6-2.6h-2.4l1.7-1.7c1-1,1-2.6,0-3.7c-1-1-2.6-1-3.7,0l-1.7,1.7v-2.4
		c0-1.4-1.2-2.6-2.6-2.6s-2.6,1.2-2.6,2.6v2.4l-1.7-1.7c-1-1-2.6-1-3.7,0c-1,1-1,2.6,0,3.7l1.7,1.7h-2.4c-1.4,0-2.6,1.2-2.6,2.6
		s1.2,2.6,2.6,2.6h2.4l-1.7,1.7c-1,1-1,2.6,0,3.7c1,1,2.6,1,3.7,0l1.7-1.7v2.4c0,1.4,1.2,2.6,2.6,2.6s2.6-1.2,2.6-2.6v-2.4l1.7,1.7
		c1,1,2.6,1,3.7,0c1-1,1-2.6,0-3.7l-1.7-1.7h2.4C451.6,214.1,452.8,212.9,452.8,211.5z"/>
	<path class="st_11" d="M481.6,211.5c0-1.4-1.2-2.6-2.6-2.6h-2.4l1.7-1.7c1-1,1-2.6,0-3.7c-1-1-2.6-1-3.7,0l-1.7,1.7v-2.4
		c0-1.4-1.2-2.6-2.6-2.6c-1.4,0-2.6,1.2-2.6,2.6v2.4l-1.7-1.7c-1-1-2.6-1-3.7,0c-1,1-1,2.6,0,3.7l1.7,1.7h-2.4
		c-1.4,0-2.6,1.2-2.6,2.6s1.2,2.6,2.6,2.6h2.4l-1.7,1.7c-1,1-1,2.6,0,3.7c1,1,2.6,1,3.7,0l1.7-1.7v2.4c0,1.4,1.2,2.6,2.6,2.6
		c1.4,0,2.6-1.2,2.6-2.6v-2.4l1.7,1.7c1,1,2.6,1,3.7,0c1-1,1-2.6,0-3.7l-1.7-1.7h2.4C480.5,214.1,481.6,212.9,481.6,211.5z"/>
	<path class="st_11" d="M510.4,211.5c0-1.4-1.2-2.6-2.6-2.6h-2.4l1.7-1.7c1-1,1-2.6,0-3.7c-1-1-2.6-1-3.7,0l-1.7,1.7v-2.4
		c0-1.4-1.2-2.6-2.6-2.6s-2.6,1.2-2.6,2.6v2.4l-1.7-1.7c-1-1-2.6-1-3.7,0c-1,1-1,2.6,0,3.7l1.7,1.7h-2.4c-1.4,0-2.6,1.2-2.6,2.6
		s1.2,2.6,2.6,2.6h2.4l-1.7,1.7c-1,1-1,2.6,0,3.7c1,1,2.6,1,3.7,0l1.7-1.7v2.4c0,1.4,1.2,2.6,2.6,2.6s2.6-1.2,2.6-2.6v-2.4l1.7,1.7
		c1,1,2.6,1,3.7,0c1-1,1-2.6,0-3.7l-1.7-1.7h2.4C509.3,214.1,510.4,212.9,510.4,211.5z"/>
	<path class="st_11" d="M539.2,211.5c0-1.4-1.2-2.6-2.6-2.6h-2.4l1.7-1.7c1-1,1-2.6,0-3.7c-1-1-2.6-1-3.7,0l-1.7,1.7v-2.4
		c0-1.4-1.2-2.6-2.6-2.6s-2.6,1.2-2.6,2.6v2.4l-1.7-1.7c-1-1-2.6-1-3.7,0c-1,1-1,2.6,0,3.7l1.7,1.7h-2.4c-1.4,0-2.6,1.2-2.6,2.6
		s1.2,2.6,2.6,2.6h2.4l-1.7,1.7c-1,1-1,2.6,0,3.7c1,1,2.6,1,3.7,0l1.7-1.7v2.4c0,1.4,1.2,2.6,2.6,2.6s2.6-1.2,2.6-2.6v-2.4l1.7,1.7
		c1,1,2.6,1,3.7,0c1-1,1-2.6,0-3.7l-1.7-1.7h2.4C538.1,214.1,539.2,212.9,539.2,211.5z"/>
	<path class="st_11" d="M765.1,183.2c0-1.4-1.2-2.6-2.6-2.6h-2.4l1.7-1.7c1-1,1-2.6,0-3.7c-1-1-2.6-1-3.7,0l-1.7,1.7v-2.4
		c0-1.4-1.2-2.6-2.6-2.6c-1.4,0-2.6,1.2-2.6,2.6v2.4l-1.7-1.7c-1-1-2.6-1-3.7,0c-1,1-1,2.6,0,3.7l1.7,1.7h-2.4
		c-1.4,0-2.6,1.2-2.6,2.6c0,1.4,1.2,2.6,2.6,2.6h2.4l-1.7,1.7c-1,1-1,2.6,0,3.7c1,1,2.6,1,3.7,0l1.7-1.7v2.4c0,1.4,1.2,2.6,2.6,2.6
		c1.4,0,2.6-1.2,2.6-2.6v-2.4l1.7,1.7c1,1,2.6,1,3.7,0c1-1,1-2.6,0-3.7l-1.7-1.7h2.4C763.9,185.8,765.1,184.6,765.1,183.2z"/>
	<path class="st_11" d="M793.9,183.2c0-1.4-1.2-2.6-2.6-2.6h-2.4l1.7-1.7c1-1,1-2.6,0-3.7c-1-1-2.6-1-3.7,0l-1.7,1.7v-2.4
		c0-1.4-1.2-2.6-2.6-2.6c-1.4,0-2.6,1.2-2.6,2.6v2.4l-1.7-1.7c-1-1-2.6-1-3.7,0c-1,1-1,2.6,0,3.7l1.7,1.7H774
		c-1.4,0-2.6,1.2-2.6,2.6c0,1.4,1.2,2.6,2.6,2.6h2.4l-1.7,1.7c-1,1-1,2.6,0,3.7c1,1,2.6,1,3.7,0l1.7-1.7v2.4c0,1.4,1.2,2.6,2.6,2.6
		c1.4,0,2.6-1.2,2.6-2.6v-2.4l1.7,1.7c1,1,2.6,1,3.7,0c1-1,1-2.6,0-3.7l-1.7-1.7h2.4C792.7,185.8,793.9,184.6,793.9,183.2z"/>
	<path class="st_11" d="M822.7,183.2c0-1.4-1.2-2.6-2.6-2.6h-2.4l1.7-1.7c1-1,1-2.6,0-3.7c-1-1-2.6-1-3.7,0L814,177v-2.4
		c0-1.4-1.2-2.6-2.6-2.6c-1.4,0-2.6,1.2-2.6,2.6v2.4l-1.7-1.7c-1-1-2.6-1-3.7,0c-1,1-1,2.6,0,3.7l1.7,1.7h-2.4
		c-1.4,0-2.6,1.2-2.6,2.6c0,1.4,1.2,2.6,2.6,2.6h2.4l-1.7,1.7c-1,1-1,2.6,0,3.7c1,1,2.6,1,3.7,0l1.7-1.7v2.4c0,1.4,1.2,2.6,2.6,2.6
		c1.4,0,2.6-1.2,2.6-2.6v-2.4l1.7,1.7c1,1,2.6,1,3.7,0c1-1,1-2.6,0-3.7l-1.7-1.7h2.4C821.5,185.8,822.7,184.6,822.7,183.2z"/>
	<path class="st_11" d="M851.5,183.2c0-1.4-1.2-2.6-2.6-2.6h-2.4l1.7-1.7c1-1,1-2.6,0-3.7c-1-1-2.6-1-3.7,0l-1.7,1.7v-2.4
		c0-1.4-1.2-2.6-2.6-2.6c-1.4,0-2.6,1.2-2.6,2.6v2.4l-1.7-1.7c-1-1-2.6-1-3.7,0c-1,1-1,2.6,0,3.7l1.7,1.7h-2.4
		c-1.4,0-2.6,1.2-2.6,2.6c0,1.4,1.2,2.6,2.6,2.6h2.4l-1.7,1.7c-1,1-1,2.6,0,3.7c1,1,2.6,1,3.7,0l1.7-1.7v2.4c0,1.4,1.2,2.6,2.6,2.6
		c1.4,0,2.6-1.2,2.6-2.6v-2.4l1.7,1.7c1,1,2.6,1,3.7,0c1-1,1-2.6,0-3.7l-1.7-1.7h2.4C850.3,185.8,851.5,184.6,851.5,183.2z"/>
	<path class="st_11" d="M793.9,211.5c0-1.4-1.2-2.6-2.6-2.6h-2.4l1.7-1.7c1-1,1-2.6,0-3.7c-1-1-2.6-1-3.7,0l-1.7,1.7v-2.4
		c0-1.4-1.2-2.6-2.6-2.6c-1.4,0-2.6,1.2-2.6,2.6v2.4l-1.7-1.7c-1-1-2.6-1-3.7,0c-1,1-1,2.6,0,3.7l1.7,1.7H774
		c-1.4,0-2.6,1.2-2.6,2.6s1.2,2.6,2.6,2.6h2.4l-1.7,1.7c-1,1-1,2.6,0,3.7c1,1,2.6,1,3.7,0l1.7-1.7v2.4c0,1.4,1.2,2.6,2.6,2.6
		c1.4,0,2.6-1.2,2.6-2.6v-2.4l1.7,1.7c1,1,2.6,1,3.7,0c1-1,1-2.6,0-3.7l-1.7-1.7h2.4C792.7,214.1,793.9,212.9,793.9,211.5z"/>
	<path class="st_11" d="M596.2,288.9c0-1.4-1.2-2.6-2.6-2.6h-2.4l1.7-1.7c1-1,1-2.6,0-3.7s-2.6-1-3.7,0l-1.7,1.7v-2.4
		c0-1.4-1.2-2.6-2.6-2.6s-2.6,1.2-2.6,2.6v2.4l-1.7-1.7c-1-1-2.6-1-3.7,0c-1,1-1,2.6,0,3.7l1.7,1.7h-2.4c-1.4,0-2.6,1.2-2.6,2.6
		c0,1.4,1.2,2.6,2.6,2.6h2.4l-1.7,1.7c-1,1-1,2.6,0,3.7s2.6,1,3.7,0l1.7-1.7v2.4c0,1.4,1.2,2.6,2.6,2.6s2.6-1.2,2.6-2.6v-2.4
		l1.7,1.7c1,1,2.6,1,3.7,0c1-1,1-2.6,0-3.7l-1.7-1.7h2.4C595.1,291.4,596.2,290.3,596.2,288.9z"/>
	<path class="st_11" d="M596.2,317.1c0-1.4-1.2-2.6-2.6-2.6h-2.4l1.7-1.7c1-1,1-2.6,0-3.7s-2.6-1-3.7,0l-1.7,1.7v-2.4
		c0-1.4-1.2-2.6-2.6-2.6s-2.6,1.2-2.6,2.6v2.4l-1.7-1.7c-1-1-2.6-1-3.7,0c-1,1-1,2.6,0,3.7l1.7,1.7h-2.4c-1.4,0-2.6,1.2-2.6,2.6
		c0,1.4,1.2,2.6,2.6,2.6h2.4l-1.7,1.7c-1,1-1,2.6,0,3.7s2.6,1,3.7,0l1.7-1.7v2.4c0,1.4,1.2,2.6,2.6,2.6s2.6-1.2,2.6-2.6v-2.4
		l1.7,1.7c1,1,2.6,1,3.7,0c1-1,1-2.6,0-3.7l-1.7-1.7h2.4C595.1,319.7,596.2,318.6,596.2,317.1z"/>
	<path class="st_11" d="M733.5,288.9c0-1.4-1.2-2.6-2.6-2.6h-2.4l1.7-1.7c1-1,1-2.6,0-3.7s-2.6-1-3.7,0l-1.7,1.7v-2.4
		c0-1.4-1.2-2.6-2.6-2.6s-2.6,1.2-2.6,2.6v2.4l-1.7-1.7c-1-1-2.6-1-3.7,0c-1,1-1,2.6,0,3.7l1.7,1.7h-2.4c-1.4,0-2.6,1.2-2.6,2.6
		c0,1.4,1.2,2.6,2.6,2.6h2.4l-1.7,1.7c-1,1-1,2.6,0,3.7s2.6,1,3.7,0l1.7-1.7v2.4c0,1.4,1.2,2.6,2.6,2.6s2.6-1.2,2.6-2.6v-2.4
		l1.7,1.7c1,1,2.6,1,3.7,0c1-1,1-2.6,0-3.7l-1.7-1.7h2.4C732.3,291.4,733.5,290.3,733.5,288.9z"/>
	<path class="st_11" d="M733.5,317.1c0-1.4-1.2-2.6-2.6-2.6h-2.4l1.7-1.7c1-1,1-2.6,0-3.7s-2.6-1-3.7,0l-1.7,1.7v-2.4
		c0-1.4-1.2-2.6-2.6-2.6s-2.6,1.2-2.6,2.6v2.4l-1.7-1.7c-1-1-2.6-1-3.7,0c-1,1-1,2.6,0,3.7l1.7,1.7h-2.4c-1.4,0-2.6,1.2-2.6,2.6
		c0,1.4,1.2,2.6,2.6,2.6h2.4l-1.7,1.7c-1,1-1,2.6,0,3.7s2.6,1,3.7,0l1.7-1.7v2.4c0,1.4,1.2,2.6,2.6,2.6s2.6-1.2,2.6-2.6v-2.4
		l1.7,1.7c1,1,2.6,1,3.7,0c1-1,1-2.6,0-3.7l-1.7-1.7h2.4C732.3,319.7,733.5,318.6,733.5,317.1z"/>
	<path class="st_11" d="M822.7,211.5c0-1.4-1.2-2.6-2.6-2.6h-2.4l1.7-1.7c1-1,1-2.6,0-3.7c-1-1-2.6-1-3.7,0l-1.7,1.7v-2.4
		c0-1.4-1.2-2.6-2.6-2.6c-1.4,0-2.6,1.2-2.6,2.6v2.4l-1.7-1.7c-1-1-2.6-1-3.7,0c-1,1-1,2.6,0,3.7l1.7,1.7h-2.4
		c-1.4,0-2.6,1.2-2.6,2.6s1.2,2.6,2.6,2.6h2.4l-1.7,1.7c-1,1-1,2.6,0,3.7c1,1,2.6,1,3.7,0l1.7-1.7v2.4c0,1.4,1.2,2.6,2.6,2.6
		c1.4,0,2.6-1.2,2.6-2.6v-2.4l1.7,1.7c1,1,2.6,1,3.7,0c1-1,1-2.6,0-3.7l-1.7-1.7h2.4C821.5,214.1,822.7,212.9,822.7,211.5z"/>
	<path class="st_11" d="M851.5,211.5c0-1.4-1.2-2.6-2.6-2.6h-2.4l1.7-1.7c1-1,1-2.6,0-3.7c-1-1-2.6-1-3.7,0l-1.7,1.7v-2.4
		c0-1.4-1.2-2.6-2.6-2.6c-1.4,0-2.6,1.2-2.6,2.6v2.4l-1.7-1.7c-1-1-2.6-1-3.7,0c-1,1-1,2.6,0,3.7l1.7,1.7h-2.4
		c-1.4,0-2.6,1.2-2.6,2.6s1.2,2.6,2.6,2.6h2.4l-1.7,1.7c-1,1-1,2.6,0,3.7c1,1,2.6,1,3.7,0l1.7-1.7v2.4c0,1.4,1.2,2.6,2.6,2.6
		c1.4,0,2.6-1.2,2.6-2.6v-2.4l1.7,1.7c1,1,2.6,1,3.7,0c1-1,1-2.6,0-3.7l-1.7-1.7h2.4C850.3,214.1,851.5,212.9,851.5,211.5z"/>
</g>
</svg>
