<?xml version="1.0" encoding="iso-8859-1"?>
<!-- Generator: Adobe Illustrator 13.0.0, SVG Export Plug-In . SVG Version: 6.00 Build 14948)  -->
<!DOCTYPE svg PUBLIC "-//W3C//DTD SVG 1.1//EN" "http://www.w3.org/Graphics/SVG/1.1/DTD/svg11.dtd">
<svg version="1.1" xmlns="http://www.w3.org/2000/svg" xmlns:xlink="http://www.w3.org/1999/xlink" x="0px" y="0px" width="643.5px"
	 height="254.1px" viewBox="0 0 643.5 254.1" enable-background="new 0 0 643.5 254.1" xml:space="preserve">
<g id="_x34_F_BOX">
	<path fill="#AAB7C2" d="M10.5,16h224.666v-5.5h112V16h49v154.166H616.5v-65.333h16v30h11V235.5l-19.334,18.6c0,0-222.834,0-229,0
		s-67.083-19.933-95-19.933c-40.75,0-97.166,19.933-104.333,19.933s-177.001,0-177.001,0H10.5V16z"/>
	<path fill="#FFFFFF" d="M1.5,7.5h224.666V2h112v5.5h49v154.166H607.5V96.333h16v30h11V227l-19.334,18.6c0,0-222.834,0-229,0
		s-67.083-19.933-95-19.933c-40.75,0-97.166,19.933-104.333,19.933s-177.001,0-177.001,0H1.5V7.5z"/>
	<g>
		<g>
			<polygon fill="none" stroke="#E5E5E5" points="570.416,163.179 570.416,216.75 602.699,216.75 602.699,244.077 615.792,244.077 
				615.792,216.75 615.792,163.179 			"/>
		</g>
	</g>
	<rect x="336.332" y="45.332" fill="none" stroke="#E5E5E5" width="18.75" height="82.667"/>
	<g>
		<g>
			<polygon fill="none" stroke="#E5E5E5" points="450.771,172.364 450.771,191.057 457.27,191.057 457.27,205.015 491.104,205.015 
				491.104,191.057 491.104,190.612 491.104,172.364 			"/>
		</g>
	</g>
	<g>
		<g>
			<g>
				<polygon fill="none" stroke="#E5E5E5" points="387.166,163.179 387.166,172.364 387.166,201.763 435.666,201.763 
					435.666,172.364 491.135,172.364 491.135,163.179 				"/>
			</g>
		</g>
	</g>
	<path fill="#BABABA" d="M80.491,43.417c0,0,6.971-0.15,9.574,0.571c2.466,0.683,2.273,3.07,2.273,3.07s-8.421-1.268-8.053,4.243
		l-5.708-0.104C78.578,51.196,73.446,45.773,80.491,43.417z"/>
	<rect x="3.025" y="153.499" fill="none" stroke="#E5E5E5" width="16.516" height="86.875"/>
	<g>
		<g>
			<polygon fill="none" stroke="#E5E5E5" points="126.333,166.013 126.333,157.346 112.916,157.346 112.916,175.666 
				103.541,175.666 103.541,214.02 120.668,214.02 120.668,192.263 154.833,192.263 154.833,166.013 			"/>
		</g>
	</g>
	<rect x="28.166" y="222.061" fill="none" stroke="#E5E5E5" width="148.21" height="21.921"/>
	<line fill="none" stroke="#E5E5E5" x1="536.862" y1="223.471" x2="543.458" y2="223.471"/>
	<g>
		<rect x="68.322" y="174.502" fill="#E5E5E5" width="4.938" height="0.625"/>
		<rect x="68.322" y="175.787" fill="#E5E5E5" width="4.938" height="0.625"/>
		<rect x="68.322" y="177.073" fill="#E5E5E5" width="4.938" height="0.625"/>
		<rect x="68.322" y="178.358" fill="#E5E5E5" width="4.938" height="0.625"/>
		<rect x="68.322" y="179.645" fill="#E5E5E5" width="4.938" height="0.625"/>
		<rect x="68.322" y="180.931" fill="#E5E5E5" width="4.938" height="0.625"/>
		<rect x="68.322" y="182.216" fill="#E5E5E5" width="4.938" height="0.625"/>
		<rect x="68.322" y="183.502" fill="#E5E5E5" width="4.938" height="0.625"/>
		<rect x="68.322" y="184.787" fill="#E5E5E5" width="4.938" height="0.625"/>
		<rect x="68.322" y="186.073" fill="#E5E5E5" width="4.938" height="0.625"/>
		<rect x="68.322" y="187.358" fill="#E5E5E5" width="4.938" height="0.625"/>
		<rect x="68.322" y="188.645" fill="#E5E5E5" width="4.938" height="0.625"/>
		<rect x="68.322" y="189.931" fill="#E5E5E5" width="4.938" height="0.625"/>
		<rect x="68.322" y="191.216" fill="#E5E5E5" width="4.938" height="0.625"/>
		<rect x="68.322" y="192.502" fill="#E5E5E5" width="4.938" height="0.625"/>
		<rect x="68.322" y="193.787" fill="#E5E5E5" width="4.938" height="0.625"/>
		<rect x="68.322" y="195.073" fill="#E5E5E5" width="4.938" height="0.625"/>
		<rect x="68.322" y="196.358" fill="#E5E5E5" width="4.938" height="0.625"/>
		<rect x="68.322" y="197.645" fill="#E5E5E5" width="4.938" height="0.625"/>
		<rect x="68.322" y="198.931" fill="#E5E5E5" width="4.938" height="0.625"/>
		<rect x="68.322" y="200.216" fill="#E5E5E5" width="4.938" height="0.625"/>
		<rect x="68.322" y="201.502" fill="#E5E5E5" width="4.938" height="0.625"/>
		<rect x="68.322" y="202.787" fill="#E5E5E5" width="4.938" height="0.625"/>
		<rect x="68.322" y="204.073" fill="#E5E5E5" width="4.938" height="0.625"/>
		<rect x="68.322" y="205.358" fill="#E5E5E5" width="4.938" height="0.625"/>
		<rect x="68.322" y="206.645" fill="#E5E5E5" width="4.938" height="0.625"/>
	</g>
	<g>
		<rect x="74.197" y="174.502" fill="#E5E5E5" width="4.938" height="0.625"/>
		<rect x="74.197" y="175.787" fill="#E5E5E5" width="4.938" height="0.625"/>
		<rect x="74.197" y="177.073" fill="#E5E5E5" width="4.938" height="0.625"/>
		<rect x="74.197" y="178.358" fill="#E5E5E5" width="4.938" height="0.625"/>
		<rect x="74.197" y="179.645" fill="#E5E5E5" width="4.938" height="0.625"/>
		<rect x="74.197" y="180.931" fill="#E5E5E5" width="4.938" height="0.625"/>
		<rect x="74.197" y="182.216" fill="#E5E5E5" width="4.938" height="0.625"/>
		<rect x="74.197" y="183.502" fill="#E5E5E5" width="4.938" height="0.625"/>
		<rect x="74.197" y="184.787" fill="#E5E5E5" width="4.938" height="0.625"/>
		<rect x="74.197" y="186.073" fill="#E5E5E5" width="4.938" height="0.625"/>
		<rect x="74.197" y="187.358" fill="#E5E5E5" width="4.938" height="0.625"/>
		<rect x="74.197" y="188.645" fill="#E5E5E5" width="4.938" height="0.625"/>
		<rect x="74.197" y="189.931" fill="#E5E5E5" width="4.938" height="0.625"/>
		<rect x="74.197" y="191.216" fill="#E5E5E5" width="4.938" height="0.625"/>
		<rect x="74.197" y="192.502" fill="#E5E5E5" width="4.938" height="0.625"/>
		<rect x="74.197" y="193.787" fill="#E5E5E5" width="4.938" height="0.625"/>
		<rect x="74.197" y="195.073" fill="#E5E5E5" width="4.938" height="0.625"/>
		<rect x="74.197" y="196.358" fill="#E5E5E5" width="4.938" height="0.625"/>
		<rect x="74.197" y="197.645" fill="#E5E5E5" width="4.938" height="0.625"/>
		<rect x="74.197" y="198.931" fill="#E5E5E5" width="4.938" height="0.625"/>
		<rect x="74.197" y="200.216" fill="#E5E5E5" width="4.938" height="0.625"/>
		<rect x="74.197" y="201.502" fill="#E5E5E5" width="4.938" height="0.625"/>
		<rect x="74.197" y="202.787" fill="#E5E5E5" width="4.938" height="0.625"/>
		<rect x="74.197" y="204.073" fill="#E5E5E5" width="4.938" height="0.625"/>
		<rect x="74.197" y="205.358" fill="#E5E5E5" width="4.938" height="0.625"/>
		<rect x="74.197" y="206.645" fill="#E5E5E5" width="4.938" height="0.625"/>
	</g>
	<rect x="313.375" y="90.222" fill="#BABABA" width="20.582" height="14.083"/>
	<rect x="325.007" y="157.061" fill="none" stroke="#E5E5E5" width="11.075" height="6.539"/>
	<rect x="336.082" y="132.665" fill="none" stroke="#E5E5E5" width="19" height="67.78"/>
	<path fill="none" stroke="#E5E5E5" d="M176.376,243.919c0,0,61.604-16.361,82.665-19.763c19.293-3.116,31.94-3.832,50.615-0.582
		c15.733,2.739,71.76,17.606,71.76,17.606"/>
	<path fill="none" stroke="#E5E5E5" d="M206.966,236.229l-2.3-8.827c0,0,30.059-7.783,36.383-9.468s28.99-6.981,51.986-5.858
		s48.867,8.104,56.751,10.351c7.884,2.248,27.349,7.154,27.349,7.154"/>
	<rect x="448.416" y="194.582" fill="none" stroke="#E5E5E5" width="5.666" height="11.917"/>
	<rect x="493.25" y="200.582" fill="none" stroke="#E5E5E5" width="19.916" height="5.417"/>
	<rect x="437.25" y="174.166" fill="none" stroke="#E5E5E5" width="11.75" height="8.083"/>
	<rect x="617.041" y="98.874" fill="#E5E5E5" width="3.75" height="2.75"/>
	<rect x="617.041" y="103.124" fill="#E5E5E5" width="3.75" height="2.75"/>
	<rect x="617.041" y="115.624" fill="#E5E5E5" width="3.75" height="5.75"/>
	<rect x="617.041" y="107.874" fill="#E5E5E5" width="3.75" height="5.75"/>
	<rect x="85.291" y="190.249" fill="none" stroke="#E5E5E5" width="11.625" height="10"/>
	<rect x="64.916" y="208.499" fill="none" stroke="#E5E5E5" width="20.375" height="5.375"/>
	<circle fill="#E5E5E5" cx="343.083" cy="12.832" r="2.083"/>
	<circle fill="#E5E5E5" cx="351.083" cy="12.832" r="2.083"/>
	<circle fill="#E5E5E5" cx="343.083" cy="19.582" r="2.083"/>
	<circle fill="#E5E5E5" cx="351.083" cy="19.582" r="2.083"/>
	<circle fill="#E5E5E5" cx="343.083" cy="26.332" r="2.083"/>
	<circle fill="#E5E5E5" cx="351.083" cy="26.332" r="2.083"/>
	<circle fill="#E5E5E5" cx="343.083" cy="33.082" r="2.083"/>
	<circle fill="#E5E5E5" cx="351.083" cy="33.082" r="2.083"/>
	<circle fill="#E5E5E5" cx="367.083" cy="12.832" r="2.083"/>
	<circle fill="#E5E5E5" cx="367.083" cy="19.874" r="2.083"/>
	<circle fill="#E5E5E5" cx="367.083" cy="26.916" r="2.083"/>
	<circle fill="#E5E5E5" cx="367.083" cy="33.957" r="2.083"/>
	<circle fill="#E5E5E5" cx="367.083" cy="40.999" r="2.083"/>
	<circle fill="#E5E5E5" cx="374.166" cy="105.582" r="2.084"/>
	<circle fill="#E5E5E5" cx="374.166" cy="113.915" r="2.084"/>
	<circle fill="#E5E5E5" cx="374.166" cy="122.248" r="2.084"/>
	<circle fill="#E5E5E5" cx="374.166" cy="134.165" r="2.084"/>
	<circle fill="#E5E5E5" cx="374.166" cy="141.749" r="2.084"/>
	<path fill="#BABABA" d="M111.109,58.68c0,0,0.21,5.563-2.303,5.942l14.289-4.491C123.096,60.131,114.809,62.219,111.109,58.68z"/>
	<circle fill="#E5E5E5" cx="366.916" cy="109.748" r="2.084"/>
	<circle fill="#E5E5E5" cx="366.916" cy="117.748" r="2.084"/>
	<circle fill="#E5E5E5" cx="366.916" cy="125.748" r="2.084"/>
	<circle fill="#E5E5E5" cx="366.916" cy="133.748" r="2.084"/>
	<circle fill="#E5E5E5" cx="366.916" cy="141.748" r="2.084"/>
	<rect x="378" y="9.499" fill="#E5E5E5" width="5" height="4.833"/>
	<rect x="378" y="15.207" fill="#E5E5E5" width="5" height="4.833"/>
	<rect x="378" y="26.623" fill="#E5E5E5" width="5" height="4.833"/>
	<rect x="378" y="22.124" fill="#E5E5E5" width="5" height="2.416"/>
	<rect x="371.791" y="13.706" fill="#E5E5E5" width="2.416" height="3.834"/>
	<rect x="371.791" y="22.54" fill="#E5E5E5" width="2.416" height="3.834"/>
	<rect x="371.791" y="31.374" fill="#E5E5E5" width="2.416" height="3.834"/>
	<rect x="378" y="32.331" fill="#E5E5E5" width="5" height="4.833"/>
	<rect x="380.583" y="102.998" fill="#E5E5E5" width="4.5" height="4.833"/>
	<rect x="380.583" y="108.474" fill="#E5E5E5" width="4.5" height="4.833"/>
	<rect x="380.583" y="113.95" fill="#E5E5E5" width="4.5" height="4.833"/>
	<rect x="380.583" y="119.426" fill="#E5E5E5" width="4.5" height="4.833"/>
	<rect x="380.583" y="124.903" fill="#E5E5E5" width="4.5" height="4.833"/>
	<rect x="380.583" y="130.379" fill="#E5E5E5" width="4.5" height="4.833"/>
	<rect x="380.583" y="135.855" fill="#E5E5E5" width="4.5" height="4.833"/>
	<rect x="380.583" y="141.331" fill="#E5E5E5" width="4.5" height="4.833"/>
	<rect x="373.333" y="37.249" fill="#E5E5E5" width="12.817" height="1.166"/>
	<rect x="250.918" y="5.788" fill="#E5E5E5" width="2.487" height="6.54"/>
	<rect x="254.304" y="5.788" fill="#E5E5E5" width="2.487" height="6.54"/>
	<rect x="258.461" y="5.788" fill="#E5E5E5" width="2.487" height="6.54"/>
	<rect x="261.846" y="5.788" fill="#E5E5E5" width="2.487" height="6.54"/>
	<rect x="266.004" y="5.788" fill="#E5E5E5" width="2.487" height="6.54"/>
	<rect x="269.389" y="5.788" fill="#E5E5E5" width="2.487" height="6.54"/>
	<rect x="273.547" y="5.788" fill="#E5E5E5" width="2.487" height="6.54"/>
	<rect x="276.932" y="5.788" fill="#E5E5E5" width="2.487" height="6.54"/>
	<rect x="281.09" y="5.788" fill="#E5E5E5" width="2.488" height="6.54"/>
	<rect x="284.475" y="5.788" fill="#E5E5E5" width="2.488" height="6.54"/>
	<rect x="288.633" y="5.788" fill="#E5E5E5" width="2.488" height="6.54"/>
	<rect x="292.019" y="5.788" fill="#E5E5E5" width="2.488" height="6.54"/>
	<rect x="296.175" y="5.788" fill="#E5E5E5" width="2.488" height="6.54"/>
	<rect x="299.562" y="5.788" fill="#E5E5E5" width="2.488" height="6.54"/>
	<rect x="303.718" y="5.788" fill="#E5E5E5" width="2.488" height="6.54"/>
	<rect x="307.104" y="5.788" fill="#E5E5E5" width="2.488" height="6.54"/>
	<rect x="311.262" y="5.788" fill="#E5E5E5" width="2.487" height="6.54"/>
	<rect x="314.647" y="5.788" fill="#E5E5E5" width="2.487" height="6.54"/>
	<rect x="318.805" y="5.788" fill="#E5E5E5" width="2.487" height="6.54"/>
	<rect x="322.19" y="5.788" fill="#E5E5E5" width="2.487" height="6.54"/>
	<rect x="326.348" y="5.788" fill="#E5E5E5" width="2.487" height="6.54"/>
	<rect x="329.733" y="5.788" fill="#E5E5E5" width="2.487" height="6.54"/>
	<g>
		<g>
			<rect x="196.895" y="16.265" fill="#BABABA" width="4.213" height="7.181"/>
			<rect x="201.107" y="19.354" fill="#BABABA" width="24.915" height="4.092"/>
		</g>
		<path fill="#BABABA" d="M198.841,24.018c0,0.465-0.377,0.843-0.842,0.843c-0.466,0-0.844-0.377-0.844-0.843
			c0-0.465,0.378-0.401,0.844-0.401C198.464,23.617,198.841,23.553,198.841,24.018z"/>
		<path fill="#BABABA" d="M201.298,24.018c0,0.465-0.377,0.843-0.843,0.843c-0.465,0-0.842-0.377-0.842-0.843
			c0-0.465,0.377-0.401,0.842-0.401C200.921,23.617,201.298,23.553,201.298,24.018z"/>
		<path fill="#BABABA" d="M203.756,24.018c0,0.465-0.378,0.843-0.843,0.843s-0.843-0.377-0.843-0.843
			c0-0.465,0.378-0.401,0.843-0.401S203.756,23.553,203.756,24.018z"/>
		<path fill="#BABABA" d="M206.213,24.018c0,0.465-0.377,0.843-0.843,0.843c-0.465,0-0.843-0.377-0.843-0.843
			c0-0.465,0.378-0.401,0.843-0.401C205.836,23.617,206.213,23.553,206.213,24.018z"/>
		<path fill="#BABABA" d="M208.67,24.018c0,0.465-0.377,0.843-0.843,0.843c-0.465,0-0.842-0.377-0.842-0.843
			c0-0.465,0.377-0.401,0.842-0.401C208.293,23.617,208.67,23.553,208.67,24.018z"/>
		<path fill="#BABABA" d="M211.128,24.018c0,0.465-0.378,0.843-0.843,0.843c-0.466,0-0.843-0.377-0.843-0.843
			c0-0.465,0.377-0.401,0.843-0.401C210.75,23.617,211.128,23.553,211.128,24.018z"/>
		<path fill="#BABABA" d="M213.585,24.018c0,0.465-0.378,0.843-0.843,0.843s-0.843-0.377-0.843-0.843
			c0-0.465,0.378-0.401,0.843-0.401S213.585,23.553,213.585,24.018z"/>
		<path fill="#BABABA" d="M216.042,24.018c0,0.465-0.377,0.843-0.842,0.843c-0.467,0-0.844-0.377-0.844-0.843
			c0-0.465,0.377-0.401,0.844-0.401C215.665,23.617,216.042,23.553,216.042,24.018z"/>
		<path fill="#BABABA" d="M218.499,24.018c0,0.465-0.377,0.843-0.843,0.843c-0.465,0-0.842-0.377-0.842-0.843
			c0-0.465,0.377-0.401,0.842-0.401C218.122,23.617,218.499,23.553,218.499,24.018z"/>
		<path fill="#BABABA" d="M220.957,24.018c0,0.465-0.378,0.843-0.843,0.843c-0.466,0-0.843-0.377-0.843-0.843
			c0-0.465,0.377-0.401,0.843-0.401C220.579,23.617,220.957,23.553,220.957,24.018z"/>
		<path fill="#BABABA" d="M223.414,24.018c0,0.465-0.377,0.843-0.842,0.843c-0.466,0-0.844-0.377-0.844-0.843
			c0-0.465,0.378-0.401,0.844-0.401C223.037,23.617,223.414,23.553,223.414,24.018z"/>
		<path fill="#BABABA" d="M225.871,24.018c0,0.465-0.376,0.843-0.843,0.843c-0.465,0-0.842-0.377-0.842-0.843
			c0-0.465,0.377-0.401,0.842-0.401C225.495,23.617,225.871,23.553,225.871,24.018z"/>
	</g>
	<path fill="#BABABA" d="M190.335,11.501l0.021,6.529l-7.573,0.021c0,0-1.801,0.842-3.553,1.96c-0.126,0.08-0.252,0.161-0.375,0.243
		c-1.659,1.227-3.584,2.431-5.104,3.831c-0.15,0.31-0.166,0.585-0.166,0.585s5.778,7.071,12.428-0.813
		c2.769-3.22,3.821-3.761,4.333-3.972C190.856,19.675,197.919,13.918,190.335,11.501z"/>
	<path fill="#BABABA" d="M4.625,11.461h25.126c0,0-21.181,4.183-22.507,19.799H4.625V11.461z"/>
	
		<rect x="6.159" y="58.312" transform="matrix(0.9993 0.0366 -0.0366 0.9993 2.1852 -0.3051)" fill="#E5E5E5" width="6.54" height="2.487"/>
	
		<rect x="6.253" y="62.513" transform="matrix(0.9927 0.121 -0.121 0.9927 7.7823 -0.6838)" fill="#E5E5E5" width="6.539" height="2.487"/>
	<g>
		<line fill="none" stroke="#E5E5E5" x1="69.78" y1="83.543" x2="78.001" y2="78.994"/>
		<line fill="none" stroke="#E5E5E5" x1="70.624" y1="84.387" x2="78.845" y2="79.838"/>
		<line fill="none" stroke="#E5E5E5" x1="71.069" y1="85.557" x2="79.289" y2="81.007"/>
		<line fill="none" stroke="#E5E5E5" x1="71.515" y1="86.727" x2="79.734" y2="82.177"/>
		<line fill="none" stroke="#E5E5E5" x1="71.959" y1="87.896" x2="80.179" y2="83.346"/>
		<line fill="none" stroke="#E5E5E5" x1="72.952" y1="88.762" x2="81.173" y2="84.212"/>
		<line fill="none" stroke="#E5E5E5" x1="73.438" y1="89.909" x2="81.658" y2="85.359"/>
	</g>
	
		<rect x="5.592" y="66.485" transform="matrix(0.9853 0.1708 -0.1708 0.9853 11.7009 -0.5183)" fill="#E5E5E5" width="6.539" height="2.488"/>
	
		<rect x="5.05" y="71.059" transform="matrix(0.9993 0.0378 -0.0378 0.9993 2.7379 -0.2627)" fill="#E5E5E5" width="6.539" height="2.488"/>
	<rect x="5.05" y="75.573" transform="matrix(1 -0.0022 0.0022 1 -0.1663 0.0182)" fill="#E5E5E5" width="6.54" height="2.488"/>
	
		<rect x="5.653" y="80.327" transform="matrix(0.9788 -0.2046 0.2046 0.9788 -16.499 3.5506)" fill="#E5E5E5" width="6.54" height="2.487"/>
	
		<rect x="6.886" y="84.449" transform="matrix(0.9269 -0.3753 0.3753 0.9269 -31.4215 10.0771)" fill="#E5E5E5" width="6.54" height="2.488"/>
	
		<rect x="9.383" y="88.331" transform="matrix(0.8382 -0.5454 0.5454 0.8382 -46.8077 21.3972)" fill="#E5E5E5" width="6.54" height="2.488"/>
	
		<rect x="11.79" y="92.183" transform="matrix(0.7703 -0.6377 0.6377 0.7703 -56.1148 31.0614)" fill="#E5E5E5" width="6.54" height="2.488"/>
	
		<rect x="124.275" y="75.516" transform="matrix(0.4836 0.8753 -0.8753 0.4836 133.0548 -71.9996)" fill="#E5E5E5" width="6.539" height="2.487"/>
	
		<rect x="127.484" y="72.547" transform="matrix(0.4837 0.8753 -0.8753 0.4837 132.1 -76.3424)" fill="#E5E5E5" width="6.54" height="2.488"/>
	
		<rect x="131.377" y="70.2" transform="matrix(0.4837 0.8753 -0.8753 0.4837 132.0553 -80.961)" fill="#E5E5E5" width="6.54" height="2.487"/>
	
		<rect x="135.238" y="67.863" transform="matrix(0.5541 0.8325 -0.8325 0.5541 119.292 -84.4868)" fill="#E5E5E5" width="6.539" height="2.487"/>
	
		<rect x="138.97" y="65.476" transform="matrix(0.5543 0.8323 -0.8323 0.5543 118.9369 -88.653)" fill="#E5E5E5" width="6.54" height="2.488"/>
	
		<rect x="142.62" y="62.607" transform="matrix(0.5866 0.8099 -0.8099 0.5866 112.0274 -91.7584)" fill="#E5E5E5" width="6.54" height="2.488"/>
	
		<rect x="146.221" y="59.487" transform="matrix(0.6613 0.7501 -0.7501 0.6613 96.1903 -91.5676)" fill="#E5E5E5" width="6.541" height="2.488"/>
	
		<rect x="149.33" y="56.639" transform="matrix(0.6612 0.7502 -0.7502 0.6612 95.1238 -94.8709)" fill="#E5E5E5" width="6.54" height="2.487"/>
	
		<rect x="152.43" y="53.239" transform="matrix(0.7373 0.6756 -0.6756 0.7373 77.7148 -90.8761)" fill="#E5E5E5" width="6.539" height="2.487"/>
	
		<rect x="155.218" y="50.049" transform="matrix(0.7698 0.6383 -0.6383 0.7698 69.2184 -89.3493)" fill="#E5E5E5" width="6.539" height="2.487"/>
	
		<rect x="157.685" y="46.88" transform="matrix(0.7963 0.6049 -0.6049 0.7963 61.8942 -87.5576)" fill="#E5E5E5" width="6.54" height="2.488"/>
	
		<rect x="159.872" y="43.53" transform="matrix(0.8413 0.5406 -0.5406 0.8413 50.093 -81.0829)" fill="#E5E5E5" width="6.54" height="2.488"/>
	<polygon fill="#F2E9DF" points="84.155,57.709 84.546,64.42 84.776,65.106 84.776,65.106 84.771,57.424 78.578,57.649 
		78.578,56.288 78.197,57.649 	"/>
	<path fill="#BABABA" d="M64.097,88.906c3.872,3.238,7.794,4.643,8.864,3.468c1.169-1.281,0.234-5.115-2.181-10.316
		C68.833,83.603,66.55,85.799,64.097,88.906z"/>
	<path fill="#BABABA" d="M65.269,71.963c-0.084-0.137-0.166-0.273-0.251-0.412c-6.319-10.231-7.764-7.944-7.764-7.944
		c-4.574,5.176-0.513,15.347-0.513,15.347c0.078,0.197,0.164,0.391,0.247,0.584c0.055-0.06,0.105-0.117,0.16-0.178
		C59.567,76.281,62.381,73.863,65.269,71.963z"/>
	<path fill="#BABABA" d="M77.012,78.533c2.849,5.004,5.734,8.714,7.503,7.643c3.999-2.421,3.94-9.214,3.917-10.078
		c-8.189,0.354-11.259,2.395-11.259,2.395S77.117,78.505,77.012,78.533z"/>
	<path fill="#315E19" d="M78.618,56.146c0,0-0.015-0.001-0.04-0.003v0.146L78.618,56.146z"/>
	<path fill="#BABABA" d="M67.756,31.258c0,0,4.254,14.203-10.351,13.561c0,0,0.322,2.969-0.883,4.173
		c-1.202,1.204-3.771,2.889-3.771,2.889l-1.444,1.605c0,0-4.012,2.006-8.586,1.124c-4.574-0.883-5.377,22.387-5.377,22.628
		s0.348,7.28-1.363,8.024c-3.691,1.605-9.629-2.648-10.993-6.419c-1.364-3.771-0.041-7.231,1.444-11.475
		c1.622-4.637,1.966-13.401,0.641-17.844c-1.178-3.956-9.121-10.848-3.318-18.747c0,0,3.821-5.938,14.634-2.327
		C48.281,31.753,67.756,31.258,67.756,31.258z"/>
	<path fill="#BABABA" d="M68.387,59.395c0.353,1.331,1.729,4.902,3.575,9.026c6.936-2.91,12.813-3.315,12.814-3.315V64.42
		l0.282-7.162l-6.48,0.391v-1.361v-0.146C77.855,56.093,67.342,55.443,68.387,59.395z"/>
	<path fill="#ECECEC" d="M38.134,28.384c0,0-9.225,3.689-3.448,8.624c7.062,4.172,21.545,5.175,26.479-1.766
		c0.773-1.264,0.442-3.29,0.361-3.491c-0.08-0.2-0.08-0.2-0.08-0.2s5.076-0.585,6.371,0.388l1.703-4.736
		c0,0-5.792-1.962-10.732-0.191C54.209,28.654,47.016,30.456,38.134,28.384z"/>
	<g>
		<circle fill="#BABABA" cx="106.031" cy="87.47" r="4.092"/>
		<path fill="#BABABA" d="M105.86,83.381l1.524-0.234l17.666-10.377c0,0-2.428,15.386-18.285,18.727"/>
	</g>
	<g>
		<g>
			<path fill="#B8DCF2" d="M190.335,11.501l-160.584,0.02C10.885,14.419,7.635,28.492,7.635,28.492
				c-2.349,11.855,4.784,18.987,6.408,29.459c1.625,10.471-1.083,9.148-1.022,19.559s11.945,17.422,13.961,18.596
				c2.017,1.174,13.542,3.25,23.623,0.963c9.509-3.641,13.389-8.034,13.389-8.034c0.035-0.044,0.069-0.084,0.104-0.128
				c2.453-3.107,4.736-5.303,6.684-6.848c3.28-2.599,5.615-3.357,6.231-3.524c0.105-0.028,0.161-0.041,0.161-0.041
				s3.069-2.042,11.259-2.395c0.086-0.004,0.17-0.009,0.258-0.012c8.384,0.722,16.65,0.201,16.65,0.201l2.045,6.86
				c7.864-1.966,7.303-0.842,11.716-2.888c4.413-2.046,4.975-6.018,6.058-7.664c1.084-1.645,2.729-3.731,9.349-6.74
				c6.62-3.01,20.863-16.25,23.872-23.11c3.009-6.86,0.642-11.354,0.642-11.354s2.046,2.248,5.095,0.883
				c3.05-1.364,3.371-3.852,3.371-3.852l9.107-5.737c3.13-4.093,6.981-4.574,6.981-4.574h6.86L190.335,11.501z M142.952,41.702
				l-1.919,2.011c-11.749,18.379-34.785,24.807-56.257,21.393c-0.002,0-5.879,0.405-12.814,3.315
				c-2.177,0.913-4.457,2.071-6.693,3.542c-2.888,1.899-5.701,4.318-8.12,7.397c-0.055,0.062-0.105,0.118-0.16,0.178
				c-5.938,6.675-8.742,6.521-9.935,6.938c-4.094,0.271-15.949,1.068-19.14-3.505c-2.187-2.789-4.142-5.361-2.456-11.861
				c2.086-6.099,4.573-9.147,2.366-19.699c-1.443-4.654-4.799-9.063-5.777-11.575c0,0-1.263-3.43,2.228-9.147
				c3.72-6.092,14.504-1.865,16.369-1.745c1.866,0.12,8.605,1.625,18.355-1.685c9.749-3.31,18.174,4.272,23.351,4.092
				c5.175-0.181,6.62-0.12,12.458-2.829c5.837-2.708,13.3-0.421,16.067,0.722c2.769,1.144,7.523,4.033,15.527,0.843
				c8.004-3.19,17.453-0.963,20.521,0.963C149.993,32.975,147.887,36.225,142.952,41.702z"/>
		</g>
	</g>
	<path fill="#BABABA" d="M159.349,31.132c0,0-1.811-3.437-4.639-6.957c-2.828-3.521-2.518-6.62,0.401-7.583
		c1.385-0.361,3.134-1.804,7.062,3.209c3.771,4.814,4.767,8.398,4.767,8.398S165.635,34.7,159.349,31.132z"/>
	<ellipse fill="#FCFDFC" cx="47.535" cy="19.525" rx="4.875" ry="1.956"/>
	<ellipse fill="#FCFDFC" cx="83.643" cy="19.525" rx="4.875" ry="1.956"/>
	<ellipse fill="#FCFDFC" cx="119.723" cy="19.525" rx="4.875" ry="1.956"/>
	<rect x="35.588" y="46.516" fill="#BABABA" width="11.736" height="30.994"/>
	<path fill="none" stroke="#E5E5E5" d="M52.92,69.205"/>
	<path fill="#BABABA" d="M133.572,29.544c0,0,16.261,0.282,13.652,5.096c-2.607,4.815-4.064,5.441-4.746,6.123
		C142.479,40.763,142.98,32.914,133.572,29.544z"/>
	<path fill="none" stroke="#E5E5E5" d="M251.82,29.746"/>
	<path fill="#BABABA" d="M252.522,31.511c0,0-0.723-1.986,2.729-3.19c3.45-1.204,8.666-4.173,16.148-3.47
		c7.483,0.702,10.271,2.608,11.635,4.995l18.678,2.274c0,0,4.583-4.933-1.064-9.396c-3.089-2.468-9.83-2.528-11.233-2.528
		c0,0,8.625-9.067,20.541,0.501c0,0,6.892,5.326,4.123,14.173c-5.446,8.576-5.1,9.579-5.1,9.579l-0.949,0.836l4.43,2.199
		c0,0,5.32-9.395,9.212-8.151c3.893,1.244,1.966,9.83-3.892,16.209c-5.858,6.379-9.268,6.059-9.268,6.059l0,0l0.962,1.484
		c0,0-10.551,3.49-13.681-6.661c0,0-23.271,3.251-19.459-20.06c0-2.889,1.847-5.577-4.012-7.703c0,0-2.648-1.083-7.503,3.009
		c-3.41,1.926-7.222,1.484-7.222,1.484S253.265,33.276,252.522,31.511z"/>
	<g>
		<polyline fill="#B8DCF2" points="310.075,41.702 308.001,44.769 312.515,47.55 314.56,44.65 		"/>
		<path fill="#B8DCF2" d="M307.866,44.736c3.877,0.897,6.768,4.372,6.768,8.521c0,4.831-3.917,8.747-8.747,8.747
			s-8.746-3.916-8.746-8.747c0-4.83,3.916-8.746,8.746-8.746C306.567,44.511,307.23,44.589,307.866,44.736z"/>
		<circle fill="#B8DCF2" stroke="#FCFDFC" cx="305.886" cy="53.257" r="7.061"/>
		<circle fill="#B8DCF2" stroke="#FCFDFC" cx="305.887" cy="53.257" r="4.955"/>
	</g>
	<g>
		<circle fill="#B8DCF2" cx="291.299" cy="41.3" r="13.881"/>
		<circle fill="#B8DCF2" cx="291.3" cy="41.3" r="6.058"/>
		<path fill="#B8DCF2" d="M289.414,20.197c0,0,21.283-0.309,12.297,11.923c0,0-6.44-5.633-12.177-4.59"/>
	</g>
	<path fill="#BABABA" d="M333.988,45.473c0,0-7.543,0.882-2.327,9.147c2.006,3.611,1.043,8.345-0.723,10.752
		s-5.375,5.216-11.153,4.734c-1.444-0.121-2.51-0.178-3.326-0.167c-0.271,0.003-0.515,0.015-0.736,0.034
		c-2.276,0.615-4.442,2.3-4.433,4.736c-0.013,0.241-0.01,0.481,0.005,0.719c0.075,1.189,0.466,2.302,0.787,2.944
		c0.642,1.284,1.766,2.648,6.34,2.648c4.573,0,15.646,0,15.646,0L333.988,45.473z"/>
	<g>
		<circle fill="#B8DCF2" cx="148.71" cy="84.27" r="2.607"/>
		<circle fill="#B8DCF2" cx="148.709" cy="84.27" r="1.284"/>
	</g>
	<g>
		<circle fill="#B8DCF2" cx="175.293" cy="56" r="2.608"/>
		<circle fill="#B8DCF2" cx="175.293" cy="56" r="1.284"/>
	</g>
	<polyline fill="#B8DCF2" points="161.991,65.979 191.458,65.979 191.458,91.744 161.991,91.744 	"/>
	<g>
		<circle fill="#B8DCF2" cx="193.22" cy="53.815" r="2.607"/>
		<circle fill="#B8DCF2" cx="193.22" cy="53.815" r="1.284"/>
	</g>
	<rect x="216.855" y="47.318" fill="#BABABA" width="10.712" height="29.95"/>
	<path fill="#BABABA" d="M161.909,66.203c0,0,3.792-8.794,13.421-5.785c9.629,3.009,14.984,2.227,27.743-9.208
		c2.527-2.086,4.774-3.169,11.153-4.734c6.381-1.565,12.357-7.704,14.604-8.707c2.247-1.002,4.573-3.25,11.956-0.241
		c5.337,3.731,5.337,9.449,5.337,9.449s-0.803-4.374-4.756-4.374c-3.951,0-4.393,4.714-4.393,4.714h-9.228h-10.893v42.648
		c0,0-0.422,10.298-21.064,4.213c-6.92-1.766-11.173-2.327-21.043,0.562c-9.869,2.889-12.738-0.401-12.738-2.527l-0.019-0.643h26.88
		c0,0,2.307-0.562,2.307-2.307c0-1.746,0-21.967,0-21.967s0.06-1.123-2.949-1.123s-25.717,0-25.717,0h-0.603"/>
	<g>
		<circle fill="#B8DCF2" cx="208.243" cy="44.561" r="2.608"/>
		<circle fill="#B8DCF2" cx="208.242" cy="44.561" r="1.284"/>
	</g>
	<g>
		<circle fill="#B8DCF2" cx="221.751" cy="38.29" r="2.607"/>
		<circle fill="#B8DCF2" cx="221.751" cy="38.29" r="1.284"/>
	</g>
	<g>
		<circle fill="#B8DCF2" cx="235.289" cy="32.333" r="2.608"/>
		<circle fill="#B8DCF2" cx="235.289" cy="32.333" r="1.284"/>
	</g>
	<g>
		<circle fill="#B8DCF2" cx="238.194" cy="87.57" r="2.608"/>
		<circle fill="#B8DCF2" cx="238.193" cy="87.57" r="1.284"/>
	</g>
	<g>
		<g>
			<path fill="#F5F5F5" d="M230.276,55.824c0,0.532-0.433,0.963-0.964,0.963h-2.046c-0.532,0-0.963-0.431-0.963-0.963v-2.207
				c0-0.532,0.431-0.963,0.963-0.963h2.046c0.531,0,0.964,0.431,0.964,0.963V55.824z"/>
			<path fill="#F5F5F5" d="M226.304,53.618c0,0-8.786,0.481-9.027,0.481s-7.222,1.445-6.941,8.466l1.524,16.931
				c0,0,0.643,2.769-3.409,3.531c-4.054,0.241-4.054-3.531-4.054-3.531s-0.195-3.879,3.13-4.062
				c3.821-0.211,4.127,1.774,4.286,3.541c0,0,0.829,3.771-4.085,3.771c-5.818,0-18.856,0-18.856,0v3.531c0,0,10.99,0,16.485,0
				c0.366,0,0.708,0,1.021,0c1.632-0.041,3.316,0.2,5.044-0.462c0.262-0.123,0.525-0.273,0.787-0.458
				c1.307-0.924,2.543-2.7,2.94-6.071c0.846-7.174-10.208-10.731-13.29-3.345c-0.079,0.189-0.152,0.386-0.222,0.59
				c-0.609,1.763-0.609,3.688,0.004,5.402c0.064,0.191,0.133,0.375,0.206,0.554c0.785,1.917,2.07,3.123,3.541,3.735
				c0.295,0.122,0.596,0.221,0.902,0.296c1.478,0.442,3.162,0.442,4.647-0.449c0.292-0.128,0.576-0.274,0.851-0.437
				c2.193-1.304,3.731-3.698,3.321-6.696c-0.939-7.784-1.604-16.73-1.604-16.73s-0.12-5.296,7.303-5.296l5.706-0.483"/>
		</g>
		<path fill="#9D9D9D" d="M205.322,81.944c0,0-2.102,2.158-1.972,2.887c0,0,2.686,2.116,5.063,1.971v-3.773
			C208.414,83.028,206.291,83.263,205.322,81.944z"/>
		<path fill="#9D9D9D" d="M210.923,81.81l2.573,2.426c0,0,2.061-1.895,1.685-5.302h-3.371
			C211.81,78.934,212.186,80.547,210.923,81.81z"/>
		<path fill="#9D9D9D" d="M202.764,74.343c0,0,2.108,1.324,2.488,2.208c0,0-1.008,1.679-0.845,3.128h-3.215
			C201.192,79.679,200.822,77.165,202.764,74.343z"/>
		<path fill="#9D9D9D" d="M207.602,71.862c0,0,0.3,2.694,0.149,3.562c0,0,2.821-0.238,3.822,1.808l-0.331-4.602
			C211.242,72.629,209.47,71.754,207.602,71.862z"/>
		<polygon fill="#9D9D9D" points="210.342,62.643 213.531,62.553 214.331,71.703 211.158,71.703 		"/>
		<path fill="#9D9D9D" d="M217.486,54.09c0,0,0.698,0.359,0.612,3.103l8.364-0.838l-0.247-2.733L217.486,54.09z"/>
	</g>
	<g>
		<g>
			<path fill="#F1F1F1" d="M233.999,82.593c-0.376,0.376-0.986,0.376-1.361,0l-1.448-1.446c-0.375-0.376-0.375-0.986,0-1.362
				l1.562-1.561c0.375-0.376,0.985-0.376,1.361,0l1.447,1.446c0.376,0.376,0.376,0.986,0,1.362L233.999,82.593z"/>
			<path fill="#F1F1F1" d="M230.911,80.383l-12.432,11.931c0,0-6.229,6.319-13.962-0.361c-7.733-6.681-6.5-7.673-13.962-11.013
				c-7.463-3.34-14.414,4.002-14.203,9.147c0.211,5.146,4.093,9.99,9.63,9.99c5.536,0,10.401-5.751,10.845-9.014
				c0.443-3.263,2.034-8.138-1.337-16.382c-3.37-8.245-5.133-12.503,1.023-17.333c3.552-2.786,8.112-1.176,9.903,1.98
				c0.12,0.211,0.227,0.428,0.319,0.651c0.396,1.092,0.353,2.24,0.08,3.351c-0.055,0.222-0.118,0.443-0.188,0.661
				c-0.06,0.17-0.126,0.335-0.199,0.496c-0.074,0.161-0.154,0.318-0.24,0.471c-1.069,2.02-2.272,3.463-4.012,4.695
				c-0.193,0.141-0.389,0.276-0.588,0.4c-0.149,0.093-0.302,0.181-0.456,0.264c-1.55,0.753-2.994,1.234-4.352,1.652
				c-0.187,0.055-0.372,0.106-0.556,0.155c-4.222,1.105-7.415,0.36-7.415,0.36v3.821c0,0,19.037,1.844,21.605-12.85
				c2.567-14.693-19.158-13.992-21.485-2.196c-1.444,10.832,3.646,13.828,4.794,20.722c0,0,0.142,1.598-0.01,3.706
				c-0.05,0.703-0.133,1.462-0.264,2.242c-0.368,5.768-5.664,10.342-10.96,6.971c-2.888-1.685-3.37-5.537-1.204-8.185
				c3.74-4.62,10.092-2.002,13.812,1.758c0.07,0.071,0.139,0.142,0.209,0.214c0.424,0.435,1.146,1.158,1.699,1.696
				c0.045,0.042,0.09,0.082,0.134,0.121c0.045,0.039,0.088,0.077,0.13,0.114c2.031,1.794,2.031,1.794,2.031,1.794
				s5.577,6.099,11.234,6.299c5.656,0.201,10.271-2.888,12.958-5.897c2.688-3.009,9.905-9.945,9.905-9.945"/>
		</g>
		<polygon fill="#CECECE" points="220.106,90.753 222.853,93.499 227.712,88.446 225.235,85.83 		"/>
		<path fill="#CECECE" d="M207.963,94.184c0,0-0.405,3.312-1.504,3.49c0,0,4.438,2.424,9.824,0.104c0,0-0.726-3.056-1.18-3.327
			c-0.032-0.02-0.063-0.025-0.093-0.015C214.573,94.585,211.95,95.805,207.963,94.184z"/>
		<path fill="#CECECE" d="M198.016,85.757c0,0-2.122,2.629-2.965,2.767l5.354,4.981c0,0,2.769-2.302,2.612-2.875L198.016,85.757z"/>
		<path fill="#CECECE" d="M189.889,84.972c0,0,2.163-2.358,1.415-3.691c0,0-4.304-2.809-9.416,0.167c0,0,1.203,1.082,1.731,3.402
			C183.619,84.849,186.063,83.388,189.889,84.972z"/>
		<path fill="#CECECE" d="M177.056,86.786c0,0,1.631,0.129,3.383,1.309c0,0-1.084,2.48,0,4.574l-3.272,1.149
			C177.166,93.818,175.396,90.263,177.056,86.786z"/>
		<path fill="#CECECE" d="M183.73,95.55c0,0-1.495,2.333-1.081,3.897c0,0,3.184,1.503,7.248-0.294c0,0-1.814-2.098-1.319-3.608
			C188.578,95.544,186.578,96.757,183.73,95.55z"/>
		<path fill="#CECECE" d="M192.91,90.591c0,0,1.499,1.562,3.725,1.311l0.372-1.517l-3.435-3.269
			C193.572,87.116,193.37,90.132,192.91,90.591z"/>
		<path fill="#CECECE" d="M192.786,78.58c0,0,2.497-0.404,3.583-1.49l-2.557-6.638c0,0-3.353,2.027-3.921,1.458L192.786,78.58z"/>
		<path fill="#CECECE" d="M188.678,64.57h3.748c0,0,0.318-3.977,2.725-6.037c0,0-3.195-2.188-2.919-2.919
			C192.231,55.614,188.26,58.716,188.678,64.57z"/>
		<path fill="#CECECE" d="M201.228,52.419v3.534c0,0,2.767,0.512,3.992,1.856c0,0,2.336-3.015,3.023-2.781
			C208.243,55.028,205.619,52.294,201.228,52.419z"/>
		<path fill="#CECECE" d="M198.969,71.238c0,0,1.641,2.58,1.408,3.613c0,0-6.585,2.308-11.566,1.455v-3.821
			C188.811,72.485,194.185,73.245,198.969,71.238z"/>
		<path fill="#CECECE" d="M207.025,61.843h3.58c0,0-0.141,5.184-3.6,8.787c0,0-1.797-2.2-2.784-2.786
			C204.222,67.845,207.271,63.429,207.025,61.843z"/>
	</g>
	<path fill="#BABABA" d="M293.614,77.113c0,0,1.382-2.577,4.007-2.577c0,0,0.18-3.58,2.686-3.58s2.922,0.716,3.46,2.148
		c0.538,1.432,1.073,15.273,1.073,15.273s-0.654,3.997-4.594,3.997c-3.938,0-47.253,0.12-47.253,0.12s-5.311-0.537-6.563-6.443
		V59.382c0,0,7.577-1.611,8.412,3.103c0.836,4.713,1.131,6.385,5.548,9.129C264.807,74.357,293.614,77.113,293.614,77.113z"/>
	
		<ellipse transform="matrix(0.999 0.0453 -0.0453 0.999 4.0196 -12.8884)" fill="#B8DCF2" cx="286.193" cy="82.186" rx="10.416" ry="7.543"/>
	<path fill="#B8DCF2" d="M266.745,73.718v-3.791c0,0-12.878,0.06-19.197,10.11c0,0,11.582,17.907,27.772,1.717
		c0,0-0.724-3.507,4.452-6.215c0,0-4.422-6.093-13.027-5.612"/>
	<path fill="#BABABA" d="M250.467,59.094v7.282c0,0,2.537,4.715,2.938,8.095c0.397,3.38,3.506,13.209-1.844,14.172
		c-5.351,0.962-5.351-3.771-5.351-3.771l-0.118-25.778H250.467z"/>
	<g>
		<path fill="#ECECEC" d="M251.881,77.991c0,0-0.376,1.588,0.466,3.424c0,0-0.315,1.601,0.105,2.925l15.979-1.565
			c0,0,1.174-1.504-0.603-2.979c0,0,1.294-1.956-0.24-3.189L251.881,77.991z"/>
		<line fill="#ECECEC" stroke="#FCFDFC" stroke-width="0.3" x1="252.347" y1="81.415" x2="267.828" y2="79.796"/>
	</g>
	<line fill="none" stroke="#CDCDCD" stroke-width="0.5" x1="240.701" y1="47.238" x2="240.701" y2="81.843"/>
	<line fill="none" stroke="#CDCDCD" stroke-width="0.5" x1="236.278" y1="58.884" x2="236.278" y2="67.419"/>
	<line fill="none" stroke="#CDCDCD" stroke-width="0.5" x1="245.417" y1="47.238" x2="245.417" y2="81.883"/>
	<line fill="none" stroke="#CDCDCD" stroke-width="0.5" x1="240.701" y1="47.66" x2="245.417" y2="47.66"/>
	<line fill="none" stroke="#CDCDCD" stroke-width="0.5" x1="240.701" y1="48.593" x2="245.417" y2="48.593"/>
	<line fill="none" stroke="#CDCDCD" stroke-width="0.5" x1="240.701" y1="49.525" x2="245.417" y2="49.525"/>
	<line fill="none" stroke="#CDCDCD" stroke-width="0.5" x1="240.701" y1="50.458" x2="245.417" y2="50.458"/>
	<line fill="none" stroke="#CDCDCD" stroke-width="0.5" x1="240.701" y1="51.391" x2="245.417" y2="51.391"/>
	<line fill="none" stroke="#CDCDCD" stroke-width="0.5" x1="240.701" y1="52.323" x2="245.417" y2="52.323"/>
	<line fill="none" stroke="#CDCDCD" stroke-width="0.5" x1="240.701" y1="53.256" x2="245.417" y2="53.256"/>
	<line fill="none" stroke="#CDCDCD" stroke-width="0.5" x1="240.701" y1="54.189" x2="245.417" y2="54.189"/>
	<line fill="none" stroke="#CDCDCD" stroke-width="0.5" x1="240.701" y1="55.122" x2="245.417" y2="55.122"/>
	<line fill="none" stroke="#CDCDCD" stroke-width="0.5" x1="240.701" y1="56.055" x2="245.417" y2="56.055"/>
	<line fill="none" stroke="#CDCDCD" stroke-width="0.5" x1="240.701" y1="56.988" x2="245.417" y2="56.988"/>
	<line fill="none" stroke="#CDCDCD" stroke-width="0.5" x1="240.701" y1="57.92" x2="245.417" y2="57.92"/>
	<line fill="none" stroke="#CDCDCD" stroke-width="0.5" x1="240.701" y1="58.854" x2="245.417" y2="58.854"/>
	<line fill="none" stroke="#CDCDCD" stroke-width="0.5" x1="240.701" y1="59.816" x2="245.417" y2="59.816"/>
	<line fill="none" stroke="#CDCDCD" stroke-width="0.5" x1="236.173" y1="59.094" x2="240.512" y2="59.094"/>
	<line fill="none" stroke="#CDCDCD" stroke-width="0.5" x1="236.173" y1="60.117" x2="240.512" y2="60.117"/>
	<line fill="none" stroke="#CDCDCD" stroke-width="0.5" x1="236.173" y1="61.141" x2="240.512" y2="61.141"/>
	<line fill="none" stroke="#CDCDCD" stroke-width="0.5" x1="236.173" y1="62.164" x2="240.512" y2="62.164"/>
	<line fill="none" stroke="#CDCDCD" stroke-width="0.5" x1="236.173" y1="63.187" x2="240.512" y2="63.187"/>
	<line fill="none" stroke="#CDCDCD" stroke-width="0.5" x1="236.173" y1="64.209" x2="240.512" y2="64.209"/>
	<line fill="none" stroke="#CDCDCD" stroke-width="0.5" x1="236.173" y1="65.232" x2="240.512" y2="65.232"/>
	<line fill="none" stroke="#CDCDCD" stroke-width="0.5" x1="236.173" y1="66.255" x2="240.512" y2="66.255"/>
	<line fill="none" stroke="#CDCDCD" stroke-width="0.5" x1="236.173" y1="67.278" x2="240.512" y2="67.278"/>
	<line fill="none" stroke="#CDCDCD" stroke-width="0.5" x1="240.701" y1="60.719" x2="245.417" y2="60.719"/>
	<line fill="none" stroke="#CDCDCD" stroke-width="0.5" x1="240.701" y1="61.652" x2="245.417" y2="61.652"/>
	<line fill="none" stroke="#CDCDCD" stroke-width="0.5" x1="240.701" y1="64.902" x2="245.417" y2="64.902"/>
	<line fill="none" stroke="#CDCDCD" stroke-width="0.5" x1="240.701" y1="65.925" x2="245.417" y2="65.925"/>
	<line fill="none" stroke="#CDCDCD" stroke-width="0.5" x1="240.701" y1="66.948" x2="245.417" y2="66.948"/>
	<line fill="none" stroke="#CDCDCD" stroke-width="0.5" x1="240.701" y1="67.971" x2="245.417" y2="67.971"/>
	<line fill="none" stroke="#CDCDCD" stroke-width="0.5" x1="240.701" y1="68.994" x2="245.417" y2="68.994"/>
	<line fill="none" stroke="#CDCDCD" stroke-width="0.5" x1="240.701" y1="70.017" x2="245.417" y2="70.017"/>
	<line fill="none" stroke="#CDCDCD" stroke-width="0.5" x1="240.701" y1="71.04" x2="245.417" y2="71.04"/>
	<line fill="none" stroke="#CDCDCD" stroke-width="0.5" x1="240.701" y1="72.063" x2="245.417" y2="72.063"/>
	<line fill="none" stroke="#CDCDCD" stroke-width="0.5" x1="240.701" y1="73.086" x2="245.417" y2="73.086"/>
	<line fill="none" stroke="#CDCDCD" stroke-width="0.5" x1="240.701" y1="74.109" x2="245.417" y2="74.109"/>
	<line fill="none" stroke="#CDCDCD" stroke-width="0.5" x1="240.701" y1="75.132" x2="245.417" y2="75.132"/>
	<line fill="none" stroke="#CDCDCD" stroke-width="0.5" x1="240.701" y1="76.155" x2="245.417" y2="76.155"/>
	<line fill="none" stroke="#CDCDCD" stroke-width="0.5" x1="240.701" y1="77.179" x2="245.417" y2="77.179"/>
	<line fill="none" stroke="#CDCDCD" stroke-width="0.5" x1="240.701" y1="78.202" x2="245.417" y2="78.202"/>
	<line fill="none" stroke="#CDCDCD" stroke-width="0.5" x1="240.701" y1="79.225" x2="245.417" y2="79.225"/>
	<line fill="none" stroke="#CDCDCD" stroke-width="0.5" x1="240.701" y1="80.248" x2="245.417" y2="80.248"/>
	<rect x="255.702" y="93.789" fill="#BABABA" width="2.437" height="2.438"/>
	<rect x="258.831" y="93.789" fill="#BABABA" width="2.438" height="2.438"/>
	<rect x="263.565" y="93.789" fill="#BABABA" width="2.438" height="2.438"/>
	<rect x="266.695" y="93.789" fill="#BABABA" width="2.438" height="2.438"/>
	<rect x="272.392" y="93.789" fill="#BABABA" width="2.438" height="2.438"/>
	<rect x="275.521" y="93.789" fill="#BABABA" width="2.438" height="2.438"/>
	<rect x="282.102" y="93.789" fill="#BABABA" width="2.437" height="2.438"/>
	<rect x="285.231" y="93.789" fill="#BABABA" width="2.437" height="2.438"/>
	<rect x="290.808" y="93.789" fill="#BABABA" width="2.438" height="2.438"/>
	<rect x="293.938" y="93.789" fill="#BABABA" width="2.437" height="2.438"/>
	<rect x="27.416" y="155.999" fill="none" stroke="#E5E5E5" width="22.5" height="35.25"/>
	<rect x="192.166" y="154.749" fill="none" stroke="#E5E5E5" width="34.125" height="30.25"/>
	<rect x="274.631" y="131.512" fill="none" stroke="#E5E5E5" width="26" height="11.917"/>
	<rect x="300.631" y="131.512" fill="none" stroke="#E5E5E5" width="18.23" height="11.917"/>
	<rect x="363.832" y="187.248" fill="none" stroke="#E5E5E5" width="20.418" height="12.583"/>
	<path fill="#FCFDFC" d="M111.541,42.7"/>
	<polyline fill="none" stroke="#E5E5E5" points="227.923,124.82 227.923,141.436 268.229,141.436 268.229,125.305 227.923,125.305 	
		"/>
	<rect x="119.252" y="127.742" fill="none" stroke="#E5E5E5" width="97.623" height="18.674"/>
	<polygon fill="none" stroke="#E5E5E5" points="184.876,153.061 115.938,153.061 115.938,157.346 126.333,157.346 126.333,166.013 
		154.833,166.013 154.833,184.853 184.876,184.853 	"/>
	<rect x="95.333" y="132.999" fill="none" stroke="#E5E5E5" width="17.583" height="42.667"/>
	<rect x="120.668" y="192.263" fill="none" stroke="#E5E5E5" width="56.498" height="21.757"/>
	<rect x="227.932" y="149.248" fill="none" stroke="#E5E5E5" width="76.576" height="14.352"/>
	<polyline fill="none" stroke="#E5E5E5" points="216.875,127.742 96.156,127.742 96.156,111.103 	"/>
	<line fill="none" stroke="#E5E5E5" x1="67.313" y1="151.271" x2="67.313" y2="208.499"/>
	<line fill="none" stroke="#E5E5E5" x1="67.313" y1="114.513" x2="67.313" y2="106.263"/>
	<line fill="none" stroke="#E5E5E5" x1="157.812" y1="127.744" x2="157.812" y2="106.429"/>
	<line fill="none" stroke="#E5E5E5" x1="122.5" y1="127.744" x2="122.5" y2="106.429"/>
	<line fill="none" stroke="#E5E5E5" x1="325.007" y1="150.471" x2="336.082" y2="150.471"/>
	<polyline fill="none" stroke="#E5E5E5" points="336.082,139.221 326.041,139.221 326.041,133.721 332.896,133.721 	"/>
	<polyline fill="none" stroke="#E5E5E5" points="317.833,106.596 317.833,128.144 273.34,128.144 	"/>
	<line fill="none" stroke="#E5E5E5" x1="317.833" y1="128.144" x2="329.396" y2="128.144"/>
	<polyline fill="none" stroke="#E5E5E5" points="29.041,194.562 29.041,203.562 29.041,199.075 48.666,199.075 	"/>
	<polyline fill="none" stroke="#E5E5E5" points="29.041,208.687 29.041,213.044 48.666,213.044 	"/>
	<line fill="none" stroke="#E5E5E5" x1="228.427" y1="198.825" x2="181.833" y2="198.825"/>
	<polyline fill="none" stroke="#E5E5E5" points="58.854,160.749 58.854,166.263 58.854,171.124 	"/>
	<line fill="none" stroke="#E5E5E5" x1="58.854" y1="166.263" x2="67.313" y2="166.263"/>
	<polyline fill="none" stroke="#E5E5E5" points="58.854,176.269 58.854,181.783 58.854,186.644 	"/>
	<line fill="none" stroke="#E5E5E5" x1="58.854" y1="181.075" x2="67.313" y2="181.075"/>
	<polyline fill="none" stroke="#E5E5E5" points="58.854,190.624 58.854,195.617 67.313,195.617 	"/>
	<rect x="38.333" y="149.43" fill="none" stroke="#E5E5E5" width="11.583" height="6.569"/>
	<path fill="#BABABA" d="M335.813,163.6"/>
	<line fill="none" stroke="#E5E5E5" x1="335.813" y1="163.6" x2="227.932" y2="163.6"/>
	<polyline fill="none" stroke="#E5E5E5" points="526.458,216.346 526.458,223.471 528.583,223.471 528.583,234.805 543.458,234.805 
			"/>
	<line fill="none" stroke="#E5E5E5" x1="520.166" y1="216.346" x2="537.583" y2="216.346"/>
	<line fill="none" stroke="#E5E5E5" x1="185" y1="192.263" x2="110.916" y2="192.263"/>
	<path fill="#B8DCF2" d="M140.725,44.188c0,0-3.527,5.387-5.717,7.142c-1.271,1.02-7.746,8.042-16.216,8.972
		s-7.907-3.915-13.813-8.102s-5.25-4.531-13.344-5.563s-10.669-0.966-10.906-2.094c-0.172-0.656-0.237-1.127-0.237-1.127
		l0.202-9.072c0,0,6.359,1.131,11.104-1.241s12.678-4.018,21.273,0.383c3.064,1.338,10.357,3.591,14.57,1.98
		s4.309-2.985,5.775-3.267s2.477-0.815,4.554,1.262S142.925,39.803,140.725,44.188z"/>
	<path fill="#B8DCF2" d="M78.578,51.196l5.708,0.104c0,0-1.181-5.198,8.053-4.243v0c0,0,10.091-2.267,17.653,10.233
		c0,0,0.361,0.594,1.011,1.243c0,0,0.382,4.572-1.79,5.729s-21.92,1.688-24.437,0.844l0.282-7.848l-6.48,0.391V51.196z"/>
	<circle fill="#E5E5E5" cx="264.666" cy="51.346" r="9.167"/>
	<rect x="58.833" y="114.513" fill="none" stroke="#E5E5E5" width="8.479" height="36.758"/>
	<rect x="461.416" y="221.791" fill="none" stroke="#E5E5E5" width="27.833" height="22.3"/>
	<polygon fill="none" stroke="#E5E5E5" points="495.667,216.497 495.667,221.791 489.083,221.791 489.083,244.091 515.667,244.091 
		515.667,216.497 	"/>
	<polygon fill="none" stroke="#E5E5E5" points="455.286,216.497 455.286,221.791 461.416,221.791 461.416,244.091 436.666,244.091 
		436.666,216.497 	"/>
	<rect x="363.832" y="45.332" fill="none" stroke="#E5E5E5" width="20.5" height="27.334"/>
	<rect x="363.832" y="75.498" fill="none" stroke="#E5E5E5" width="20.5" height="21.001"/>
	<rect x="363.832" y="147.332" fill="none" stroke="#E5E5E5" width="20.418" height="36.833"/>
	<circle fill="none" stroke="#E5E5E5" cx="390.833" cy="230.833" r="13.917"/>
	<rect x="408.666" y="224.25" fill="none" stroke="#E5E5E5" width="24.666" height="19.84"/>
	<rect x="197.961" y="108.471" fill="none" stroke="#E5E5E5" width="70.269" height="14.528"/>
	<rect x="159.333" y="108.471" fill="none" stroke="#E5E5E5" width="20.585" height="14.528"/>
	<rect x="179.918" y="108.471" fill="none" stroke="#E5E5E5" width="18.043" height="14.528"/>
	<rect x="297.791" y="108.471" fill="none" stroke="#E5E5E5" width="17.688" height="17.028"/>
	<rect x="320.135" y="108.471" fill="none" stroke="#E5E5E5" width="13.927" height="17.028"/>
	<rect x="273.916" y="108.471" fill="none" stroke="#E5E5E5" width="23.875" height="17.028"/>
	<rect x="491.104" y="163.179" fill="none" stroke="#E5E5E5" width="78.781" height="35.238"/>
	<polygon fill="none" stroke="#E5E5E5" points="324.878,191.436 316.76,189.577 316.76,165.044 336.082,165.044 336.082,200.445 
		324.82,196.207 	"/>
	<g>
		<g>
			<path fill="none" stroke="#E5E5E5" d="M300.791,165.044h-35.874v21.838l1.916,5.77c0.583,1.487,1.5,2.561,3.667,2.313
				c2.166-0.248,5.166-2.313,12.75-2.313c6.25,0,10.166,2.478,12.833,2.148c2.905-0.359,2.833-2.148,2.833-2.148l1.875-5.77V165.044
				z"/>
		</g>
	</g>
	<polygon fill="none" stroke="#E5E5E5" points="239.027,191.436 246.709,189.577 246.709,165.044 228.427,165.044 228.427,200.445 
		239.082,196.207 	"/>
	<polygon fill="none" stroke="#E5E5E5" points="316.76,165.044 300.791,165.044 300.791,186.882 310.388,192.812 316.76,193.821 	
		"/>
	<polygon fill="none" stroke="#E5E5E5" points="246.709,165.044 264.917,165.044 264.917,186.882 253.975,192.812 246.709,193.821 	
		"/>
	<rect x="38.333" y="108.471" fill="none" stroke="#E5E5E5" width="11.583" height="40.958"/>
	<rect x="24.167" y="108.471" fill="none" stroke="#E5E5E5" width="14.166" height="18.872"/>
	<rect x="2.959" y="108.471" fill="none" stroke="#E5E5E5" width="19.499" height="18.872"/>
	<path fill="none" stroke="#E5E5E5" d="M569.999,161.666"/>
	<g>
		<g>
			<polygon fill="none" stroke="#E5E5E5" points="569.885,217.013 569.885,198.417 543.458,198.417 543.458,244.091 
				569.885,244.091 602.416,244.091 602.416,217.013 			"/>
		</g>
	</g>
	<g>
		<path fill="none" stroke="#FFFFFF" d="M135.008,51.331c0,0-10.452,17.313-50.231,14.058"/>
		<path fill="none" stroke="#FFFFFF" d="M92.339,47.058c0,0,9.027-1.444,17.573,10.111c0,0,6.44,10.351,25.096-5.838"/>
	</g>
	<g>
		<polyline fill="none" points="112.916,157.347 126.333,157.347 126.333,166.013 154.833,166.013 154.833,192.263 120.668,192.263 
			120.668,214.02 103.541,214.02 103.541,175.666 112.916,175.666 112.916,157.347 		"/>
	</g>
	<g display="none">
		<polyline display="inline" fill="none" points="112.916,133.272 119.252,133.272 119.252,127.742 227.923,127.744 
			227.923,198.825 182.041,198.825 182.041,204.728 177.166,204.728 177.166,192.263 154.833,192.263 154.833,166.013 
			126.333,166.013 126.333,157.347 112.916,157.347 112.916,133.272 		"/>
	</g>
	<path fill="none" stroke="#9BB8CE" stroke-width="2" d="M1.5,7.5h224.666V2h112v5.5h49v154.166H607.5V96.333h16v30h11V227
		l-19.334,18.6c0,0-222.834,0-229,0s-67.083-19.933-95-19.933c-40.75,0-97.166,19.933-104.333,19.933s-177.001,0-177.001,0H1.5V7.5z
		"/>
	<polyline fill="none" stroke="#E5E5E5" stroke-width="2" points="336.292,2.992 336.292,106.293 336.292,130.082 	"/>
	<line fill="none" stroke="#E5E5E5" stroke-width="2" x1="336.292" y1="106.293" x2="2.521" y2="106.293"/>
</g>
<g id="Layer_9" opacity="0.6">
	<polygon id="water_2_" fill="#FFFFFF" stroke="#E0E0E0" stroke-width="2" points="1,7.5 225.666,7.5 225.666,2 335.792,2 
		335.792,106.293 267.729,106.293 267.729,122.999 157.312,122.999 157.312,127.744 122,127.744 122,106.293 1,106.293 	"/>
	<path id="spa_2_" fill="#FFFFFF" stroke="#E0E0E0" stroke-width="2" d="M177.833,245.6v-46.774h50.094v-33.781h107.865v36.719
		h50.874v-40.097h182.833v55.084h32.417v28.85h-216.25c0,0-70.5-19.933-95-19.933S217,236.687,186.333,245.6H177.833z"/>
	<rect id="F_x26_B_2_" x="335.792" y="7.5" fill="#FFFFFF" stroke="#E0E0E0" stroke-width="2" width="50.874" height="194.263"/>
	<polygon id="sauna_x28_w_x29__2_" fill="#FFFFFF" stroke="#E0E0E0" stroke-width="2" points="1,106.293 66.813,106.293 
		66.813,114.513 58.333,114.513 58.333,151.271 66.813,151.271 66.813,213.874 120.168,213.874 120.168,192.263 177.833,192.263 
		177.833,245.6 1,245.6 	"/>
	<polygon id="etc_2_" fill="#FFFFFF" stroke="#E0E0E0" stroke-width="2" points="122,127.744 112.416,127.744 112.416,175.666 
		103.041,175.666 103.041,213.874 66.813,213.874 66.813,151.271 58.333,151.271 58.333,114.513 66.813,114.513 66.813,106.293 
		122,106.293 	"/>
	<polygon id="x_2_" fill="#FFFFFF" stroke="#E0E0E0" stroke-width="2" points="112.416,157.346 125.833,157.346 125.833,166.013 
		154.333,166.013 154.333,192.263 120.168,192.263 120.168,213.874 103.041,213.874 103.041,175.666 112.416,175.666 	"/>
	<rect id="x2_2_" x="191.666" y="154.749" fill="#FFFFFF" stroke="#E0E0E0" stroke-width="2" width="36.261" height="44.076"/>
	<polygon id="sauna_x28_m_x29__2_" fill="#FFFFFF" stroke="#E0E0E0" stroke-width="2" points="335.792,106.293 267.729,106.293 
		267.729,122.999 157.312,122.999 157.312,127.744 112.416,127.744 112.416,157.346 125.833,157.346 125.833,166.013 
		154.333,166.013 154.333,192.263 177.833,192.263 177.833,198.825 191.666,198.825 191.666,154.749 227.927,154.749 
		227.927,165.044 335.792,165.044 	"/>
</g>
<g id="Layer_2">
	<g id="floor_4f_5">
		<polygon id="sauna_x28_m_x29__1_" opacity="0" fill="none" stroke="#6D6D7C" stroke-width="3" points="336.792,105.793 268.729,105.793 
			268.729,122.499 158.312,122.499 158.312,127.244 113.416,127.244 113.416,156.846 126.833,156.846 126.833,165.513 
			155.333,165.513 155.333,191.763 178.833,191.763 178.833,198.325 192.666,198.325 192.666,154.249 228.927,154.249 
			228.927,164.544 336.792,164.544 		"/>
		<polygon id="sauna_x28_w_x29__1_" opacity="0" fill="none" stroke="#6D6D7C" stroke-width="3" points="2,105.793 67.813,105.793 
			67.813,114.013 59.333,114.013 59.333,150.771 67.813,150.771 67.813,213.374 121.168,213.374 121.168,191.763 178.833,191.763 
			178.833,245.1 2,245.1 		"/>
		
			<text transform="matrix(1 0 0 1 16.7422 179.5127)" fill="#333333" font-family="'NotoSansCJKkr-Regular-KSCpc-EUC-H'" font-size="8">&#xC0AC;&#xC6B0;&#xB098;(&#xC5EC;)</text>
		
			<text transform="matrix(1 0 0 1 265.2422 145.5127)" fill="#333333" font-family="'NotoSansCJKkr-Regular-KSCpc-EUC-H'" font-size="8">&#xC0AC;&#xC6B0;&#xB098;(&#xB0A8;)</text>
	</g>
	<g id="floor_4f_4">
		<polygon id="etc_1_" opacity="0" fill="none" stroke="#6D6D7C" stroke-width="3" points="123,127.244 113.416,127.244 113.416,175.166 
			104.041,175.166 104.041,213.374 67.813,213.374 67.813,150.771 59.333,150.771 59.333,114.013 67.813,114.013 67.813,105.793 
			123,105.793 		"/>
		
			<text transform="matrix(1 0 0 1 71.9463 135.0127)" fill="#333333" font-family="'NotoSansCJKkr-Regular-KSCpc-EUC-H'" font-size="8">&#xAE30;&#xD0C0;&#xC2DC;&#xC124;</text>
	</g>
	<g id="floor_4f_3">
		<path id="spa_1_" opacity="0" fill="none" stroke="#6D6D7C" stroke-width="3" d="M178.833,245.1v-46.774h50.094v-33.781h107.865v36.719h50.874
			v-40.097h182.833v55.084h32.417v28.85h-216.25c0,0-70.5-19.933-95-19.933S218,236.187,187.333,245.1H178.833z"/>
		
			<text transform="matrix(1 0 0 1 457.4463 207.0127)" fill="#333333" font-family="'NotoSansCJKkr-Regular-KSCpc-EUC-H'" font-size="8">&#xCC1C;&#xC9C8;&#xC2A4;&#xD30C;</text>
	</g>
	<g id="floor_4f_2">
		<polygon id="water_1_" opacity="0" fill="none" stroke="#6D6D7C" stroke-width="3" points="2,7 226.666,7 226.666,1.5 336.792,1.5 
			336.792,105.793 268.729,105.793 268.729,122.499 158.312,122.499 158.312,127.244 123,127.244 123,105.793 2,105.793 		"/>
		
			<text transform="matrix(1 0 0 1 144.1904 59.5127)" fill="#333333" font-family="'NotoSansCJKkr-Regular-KSCpc-EUC-H'" font-size="8">&#xC2E4;&#xB0B4; &#xC6CC;&#xD130;&#xD30C;&#xD06C;</text>
	</g>
	<g id="floor_4f_1">
		<rect id="F_x26_B_1_" opacity="0" x="336.792" y="7" fill="none" stroke="#6D6D7C" stroke-width="3" width="50.874" height="194.263"/>
		
		<text transform="matrix(1 0 0 1 354.6104 113.5127)" fill="#333333" font-family="'NotoSansCJKkr-Regular-KSCpc-EUC-H'" font-size="8">F&amp;B</text>
	</g>
</g>
</svg>
