<?xml version="1.0" encoding="iso-8859-1"?>
<!DOCTYPE svg PUBLIC "-//W3C//DTD SVG 1.1//EN" "http://www.w3.org/Graphics/SVG/1.1/DTD/svg11.dtd">
<!-- Generator: Adobe Illustrator 23.0.1, SVG Export Plug-In . SVG Version: 6.00 Build 0)  -->
<svg version="1.1" xmlns="http://www.w3.org/2000/svg" xmlns:xlink="http://www.w3.org/1999/xlink" x="0px" y="0px" viewBox="0 0 1422.8 941.8" style="enable-background:new 0 0 1422.8 941.8;" xml:space="preserve">
<defs>
<style type="text/css">
	.st0{fill:none;stroke:#F5F5F5;stroke-width:4;}
	.st1{fill:#666666;}
	.st2{font-family:'NotoSansCJKkr-Regular';}
	.st3{font-size:20px;}
	.st4{fill:#E3F1FA;stroke:#F5F5F5;stroke-width:4;}
	.st5{fill:#FFFFFF;stroke:#F5F5F5;stroke-width:4;}
	.st6{fill:#E3F1FA;stroke:#F5F5F5;stroke-width:3;}
	.st7{fill:#F5F5F5;stroke:#F5F5F5;stroke-width:3;}
	.st8{fill:#F5F5F5;stroke:#F5F5F5;stroke-width:4;}
	.st9{fill:#F5F5F5;}
	.st10{fill:#F8F8F8;stroke:#F5F5F5;stroke-width:4;}
	.st11{fill:none;stroke:#D0D0D0;stroke-width:8;}
	.st12{display:none;fill:none;stroke:#D0D0D0;stroke-width:8;}
	.st13{fill:#D0D0D0;}
	.st14{display:none;}
	.st15{display:inline;}
	.st16{fill:none;stroke:#6D6D7C;stroke-width:8;}
</style>
</defs>
<g id="배경">
</g>
<g id="시설">
	<path class="st0" d="M534,847v-30h4v-56h31v-33h89v16h84v66h-87v39L534,847z"/>
	<path class="st0" d="M744,744h81v-16h69v168H744V744z"/>
	<text transform="matrix(1 0 0 1 624.1991 879)" class="st1 st2 st3">기타시설</text>
	<path class="st0" d="M821,156V89h-81v29h-17v112h16"/>
	<rect x="821" y="89" class="st0" width="34" height="113"/>
	<rect x="739" y="155" class="st0" width="82" height="79"/>
	<text transform="matrix(1 0 0 1 746.201 73)" class="st1 st2 st3">푸드코트</text>
	<rect x="499" y="189" class="st4" width="38" height="35"/>
	<rect id="Rectangle_13_copy_2_" x="578" y="189" class="st4" width="38" height="35"/>
	<rect id="Rectangle_18_copy_2_" x="408" y="189" class="st0" width="90" height="84"/>
	<rect id="Rectangle_18_copy_2_2_" x="617" y="158" class="st0" width="38" height="66"/>
	<path class="st0" d="M118,178l23,27h61v24"/>
	<path class="st4" d="M590,66H440V53h-41c-5.5,0-10,4.5-10,10v85c0,5.5,4.5,10,10,10h37h4h150c5.5,0,10-4.5,10-10V76C600,70.5,595.5,66,590,66z"/>
	<rect id="_10._미디어_샌드풀_2_" x="532.5" y="189" class="st5" width="50" height="35"/>
	<g id="_9._피쉬풀_2_">
		<rect x="408" y="273" class="st0" width="90" height="70"/>
		<path class="st4" d="M408,343v-48h66v-22h24v70H408z"/>
	</g>
	<path class="st4" d="M340,143.3c10.5-10.4,17-24.9,17-40.8c0-31.8-25.7-57.5-57.5-57.5C276.1,45,256,59,247,79c-5.6-2-11.7-3-18-3c-30.4,0-55,24.6-55,55s24.6,55,55,55c12,0,23.2-3.9,32.2-10.4c-0.1,1.5-0.2,2.9-0.2,4.4c0,26.5,21.5,48,48,48s48-21.5,48-48C357,165.3,350.4,152.1,340,143.3z"/>
	<circle class="st4" cx="345" cy="146" r="17"/>
	<path id="_6._버블_플레이_2_" class="st0" d="M37.8,178.4l57.6-43.3c10.6-8,25.6-5.8,33.6,4.8c8,10.6,5.8,25.6-4.8,33.6l0,0l-57.6,43.3C56,224.8,41,222.6,33,212C25.1,201.5,27.2,186.4,37.8,178.4z"/>
	<polygon class="st0" points="229,260 229,231 210,231 210,259 210,263 210,283 250,283 250,260 	"/>
	<rect id="_4._수유실_2_" x="210" y="283" class="st0" width="40" height="30"/>
	<rect id="_3._의무실_2_" x="210" y="313" class="st0" width="40" height="30"/>
	<path class="st6" d="M355.8,305.6c3.1-4.7,5-10.4,5-16.5c0.1-16.6-13.3-30-29.8-30.1c-16.6,0-30.1,13.4-30.1,30c0,6.1,1.8,11.8,5,16.6c-13.1,8.3-21.9,22.9-21.9,39.6c0,25.8,20.9,46.7,46.7,46.8c25.9,0.1,46.9-20.8,47-46.7C377.7,328.6,369,313.9,355.8,305.6z"/>
	<text transform="matrix(1 0 0 1 329.5601 232)" class="st1 st2 st3">실내 워터파크</text>
	<path class="st0" d="M12,481h109"/>
	<path class="st0" d="M81,481v-67"/>
	<path class="st0" d="M82,414h40v55"/>
	<path class="st0" d="M82,414h-6v-48h28"/>
	<path class="st0" d="M122,414v-48"/>
	<rect x="75" y="233" class="st0" width="44" height="66"/>
	<path class="st0" d="M81,483v41h39"/>
	<path class="st0" d="M140,524h55v-75"/>
	<path class="st0" d="M246,370h-26v79h-76v32h25"/>
	<path class="st0" d="M220,396h26"/>
	<path id="Shape_32_copy_2_" class="st0" d="M220,426h26"/>
	<path class="st0" d="M200,349h-54v-6"/>
	<path id="Shape_12_copy_3_2_" class="st0" d="M200,239h-54v6"/>
	<g id="Group_4_copy_2_2_">
		<path id="Shape_13_copy_4_2_" class="st0" d="M146,313v17"/>
		<path class="st0" d="M200,323h-54"/>
	</g>
	<g id="Group_4_copy_6_2_">
		<path id="Shape_13_copy_4-2_2_" class="st0" d="M146,282v17"/>
		<path class="st0" d="M200,292h-54"/>
	</g>
	<g id="Group_4_copy_7_2_">
		<path id="Shape_13_copy_4-3_2_" class="st0" d="M146,251v17"/>
		<path class="st0" d="M200,261h-54"/>
	</g>
	<rect id="_7._건식_사우나_2_" x="152" y="349" class="st5" width="48" height="76"/>
	<rect id="_6._열탕_2_" x="18" y="257" class="st4" width="32" height="40"/>
	<rect id="_5._온탕_2_" x="18" y="293" class="st4" width="32" height="74"/>
	<rect id="_4._냉탕_2_" x="18" y="363" class="st4" width="32" height="44"/>
	<rect id="_3._노천탕_2_" x="18" y="411" class="st4" width="32" height="61"/>
	<rect x="51" y="484" class="st7" width="12" height="82"/>
	<rect id="Rectangle_17_copy_2_2_" x="81" y="527" class="st7" width="12" height="39"/>
	<rect id="Rectangle_17_copy_3_2_" x="106" y="527" class="st7" width="12" height="39"/>
	<rect id="Rectangle_17_copy_4_2_" x="78" y="588" class="st7" width="12" height="50"/>
	<rect id="Rectangle_17_copy_4-2_2_" x="105" y="588" class="st7" width="12" height="50"/>
	<rect id="Rectangle_17_copy_5_2_" x="132" y="588" class="st7" width="12" height="50"/>
	<rect id="Rectangle_17_copy_6_2_" x="51" y="588" class="st7" width="12" height="50"/>
	<rect id="Rectangle_17_copy_7_2_" x="78" y="649" class="st7" width="12" height="50"/>
	<rect id="Rectangle_17_copy_7-2_2_" x="105" y="649" class="st7" width="12" height="50"/>
	<rect id="Rectangle_17_copy_7-3_2_" x="132" y="649" class="st7" width="12" height="50"/>
	<rect id="Rectangle_17_copy_7-4_2_" x="51" y="649" class="st7" width="12" height="50"/>
	<rect id="Rectangle_17_copy_2_" x="27" y="484" class="st7" width="6" height="82"/>
	<rect id="Rectangle_17_copy_8_2_" x="27" y="588" class="st7" width="6" height="50"/>
	<rect id="Rectangle_17_copy_9_2_" x="27" y="649" class="st7" width="6" height="50"/>
	<text transform="matrix(1 0 0 1 79.7601 474)" class="st1 st2 st3">남자 사우나</text>
	<path class="st0" d="M614,371h141v105"/>
	<path class="st0" d="M771,371h33"/>
	<path class="st0" d="M796,372v44"/>
	<path class="st0" d="M825,418h-70"/>
	<path class="st0" d="M792,284v69h33"/>
	<rect x="804" y="285.5" class="st8" width="21" height="4"/>
	<rect id="Rectangle_11_copy_2_" x="804" y="302.5" class="st8" width="21" height="4"/>
	<rect id="Rectangle_11_copy_2_2_" x="804" y="318.5" class="st8" width="21" height="4"/>
	<rect id="Rectangle_11_copy_3_2_" x="804" y="335.5" class="st8" width="21" height="4"/>
	<path class="st0" d="M614,375h-39v18h-43v-42h-24V236"/>
	<path class="st5" d="M533,356h28"/>
	<path class="st0" d="M625,284h-8v37h8"/>
	<g>
		<path class="st0" d="M643.4,284h14"/>
		<path id="Shape_13_copy_4-8_20_" class="st0" d="M643.4,321h14"/>
		<path class="st0" d="M650.4,286v35"/>
	</g>
	<g>
		<path class="st0" d="M672.8,284h14"/>
		<path id="Shape_13_copy_4-8_9_" class="st0" d="M672.8,321h14"/>
		<path class="st0" d="M679.8,286v35"/>
	</g>
	<g>
		<path class="st0" d="M702.2,284h14"/>
		<path id="Shape_13_copy_4-8_8_" class="st0" d="M702.2,321h14"/>
		<path class="st0" d="M709.2,286v35"/>
	</g>
	<g>
		<path class="st0" d="M731.7,284h14"/>
		<path id="Shape_13_copy_4-8_7_" class="st0" d="M731.7,321h14"/>
		<path class="st0" d="M738.7,286v35"/>
	</g>
	<g>
		<path class="st0" d="M761.1,284h14"/>
		<path id="Shape_13_copy_4-8_6_" class="st0" d="M761.1,321h14"/>
		<path class="st0" d="M768.1,286v35"/>
	</g>
	<path class="st0" d="M625,333.8h-8v37h8"/>
	<g>
		<path class="st0" d="M643.4,333.8h14"/>
		<path id="Shape_13_copy_4-8_5_" class="st0" d="M643.4,370.8h14"/>
		<path class="st0" d="M650.4,335.8v35"/>
	</g>
	<g>
		<path class="st0" d="M672.8,333.8h14"/>
		<path id="Shape_13_copy_4-8_4_" class="st0" d="M672.8,370.8h14"/>
		<path class="st0" d="M679.8,335.8v35"/>
	</g>
	<g>
		<path class="st0" d="M702.2,333.8h14"/>
		<path id="Shape_13_copy_4-8_3_" class="st0" d="M702.2,370.8h14"/>
		<path class="st0" d="M709.2,335.8v35"/>
	</g>
	<g>
		<path class="st0" d="M731.7,333.8h14"/>
		<path id="Shape_13_copy_4-8_2_" class="st0" d="M731.7,370.8h14"/>
		<path class="st0" d="M738.7,335.8v35"/>
	</g>
	<g>
		<path class="st0" d="M761.1,333.8h14"/>
		<path id="Shape_13_copy_4-8_1_" class="st0" d="M756.1,370.8h19"/>
		<path class="st0" d="M768.1,335.8v35"/>
	</g>
	<path class="st0" d="M713,234v34h-8"/>
	<path id="Shape_12_copy_2_" class="st0" d="M677,234v34h8"/>
	<g id="Group_4_copy_2-4_2_">
		<path id="Shape_13_copy_4-13_2_" class="st0" d="M642,268h14"/>
		<path class="st0" d="M649,234v34"/>
	</g>
	<g id="Group_4_copy_5_2_">
		<path id="Shape_13_copy_4-14_2_" class="st0" d="M610,268h13"/>
		<path class="st0" d="M617,234v34"/>
	</g>
	<rect id="_6._열탕-2_2_" x="563" y="239" class="st4" width="38" height="38"/>
	<polygon class="st4" points="567,239 514,239 514,274 514,277 514,296 548,296 548,277 567,277"/>
	<rect id="Rectangle_10_copy_2_2_" x="514" y="291.5" class="st4" width="34" height="32"/>
	<rect id="Rectangle_10_copy_3_2_" x="514" y="323.5" class="st4" width="34" height="32"/>
	<rect id="_3._노천탕-2_2_" x="430" y="368.8" class="st4" width="80" height="44"/>
	<g id="_1_2_">
		<rect x="717" y="480" class="st7" width="9" height="44"/>
		<rect id="Rectangle_9_copy_10_2_" x="440" y="480" class="st7" width="9" height="44"/>
		<rect id="Rectangle_9_copy_2_" x="689" y="480" class="st7" width="12" height="44"/>
		<rect id="Rectangle_9_copy_2_2_" x="661" y="480" class="st7" width="12" height="44"/>
		<rect id="Rectangle_9_copy_3_2_" x="633" y="480" class="st7" width="12" height="44"/>
		<rect id="Rectangle_9_copy_4_2_" x="605" y="480" class="st7" width="12" height="44"/>
		<rect id="Rectangle_9_copy_5_2_" x="577" y="480" class="st7" width="12" height="44"/>
		<rect id="Rectangle_9_copy_6_2_" x="549" y="480" class="st7" width="12" height="44"/>
		<rect id="Rectangle_9_copy_7_2_" x="521" y="480" class="st7" width="12" height="44"/>
		<rect id="Rectangle_9_copy_8_2_" x="493" y="480" class="st7" width="12" height="44"/>
		<rect id="Rectangle_9_copy_9_2_" x="465" y="480" class="st7" width="12" height="44"/>
	</g>
	<g id="_2_2_">
		<rect id="Rectangle_9_copy_11_2_" x="403" y="424" class="st7" width="6" height="34"/>
		<rect id="Rectangle_9_copy_22_2_" x="728" y="424" class="st7" width="6" height="34"/>
		<rect id="Rectangle_9_copy_12_2_" x="424" y="424" class="st7" width="12" height="34"/>
		<rect id="Rectangle_9_copy_13_2_" x="452" y="424" class="st7" width="12" height="34"/>
		<rect id="Rectangle_9_copy_14_2_" x="480" y="424" class="st7" width="12" height="34"/>
		<rect id="Rectangle_9_copy_15_2_" x="508" y="424" class="st7" width="12" height="34"/>
		<rect id="Rectangle_9_copy_16_2_" x="536" y="424" class="st7" width="12" height="34"/>
		<rect id="Rectangle_9_copy_17_2_" x="564" y="424" class="st7" width="12" height="34"/>
		<rect id="Rectangle_9_copy_18_2_" x="616" y="424" class="st7" width="12" height="34"/>
		<rect id="Rectangle_9_copy_19_2_" x="644" y="424" class="st7" width="12" height="34"/>
		<rect id="Rectangle_9_copy_20_2_" x="672" y="424" class="st7" width="12" height="34"/>
		<rect id="Rectangle_9_copy_21_2_" x="700" y="424" class="st7" width="12" height="34"/>
	</g>
	<path class="st0" d="M387,439l11-18h184"/>
	<path class="st0" d="M614,421h124"/>
	<text transform="matrix(1 0 0 1 563.7601 376)" class="st1 st2 st3">여자 사우나</text>
	<path class="st5" d="M908,587c0,0,37.6-11.2,38-49h28v49H908z"/>
	<circle id="Ellipse_3_copy_2_" class="st0" cx="323" cy="487" r="17"/>
	<circle class="st0" cx="323" cy="487" r="9"/>
	<circle id="Ellipse_3_copy_2_2_" class="st0" cx="287" cy="541" r="17"/>
	<circle id="Ellipse_3_copy_2-2_2_" class="st0" cx="287" cy="541" r="9"/>
	<circle id="Ellipse_3_copy_3_2_" class="st0" cx="335" cy="533" r="13"/>
	<circle id="Ellipse_3_copy_3-2_2_" class="st0" cx="335" cy="533" r="6.9"/>
	<path class="st0" d="M164,634h44l51-51"/>
	<path class="st0" d="M417,565h-12c0,0-4.4,19.8-25,38v31h30"/>
	<rect x="410" y="608" class="st0" width="74" height="35"/>
	<rect x="166" y="650" class="st8" width="47" height="11"/>
	<rect id="Rectangle_7_copy_2_" x="166" y="669" class="st8" width="47" height="11"/>
	<rect id="Rectangle_7_copy_2_2_" x="166" y="688" class="st8" width="47" height="11"/>
	<rect id="Rectangle_7_copy_3_2_" x="376" y="650" class="st8" width="71" height="11"/>
	<rect id="Rectangle_7_copy_3-2_2_" x="376" y="669" class="st8" width="71" height="11"/>
	<rect id="Rectangle_7_copy_3-3_2_" x="376" y="688" class="st8" width="71" height="11"/>
	<rect x="241" y="662" class="st0" width="108" height="37"/>
	<circle id="Ellipse_3_copy_4_2_" class="st0" cx="998" cy="487" r="17"/>
	<circle id="Ellipse_2_copy_2_2_" class="st9" cx="998" cy="487" r="7"/>
	<circle id="Ellipse_3_copy_5_2_" class="st0" cx="818" cy="600" r="17"/>
	<circle id="Ellipse_2_copy_3_2_" class="st9" cx="818" cy="600" r="7"/>
	<circle id="Ellipse_3_copy_6_2_" class="st0" cx="745" cy="591" r="17"/>
	<circle id="Ellipse_2_copy_4_2_" class="st9" cx="745" cy="591" r="7"/>
	<circle id="Ellipse_3_copy_7_2_" class="st0" cx="658" cy="600" r="17"/>
	<circle id="Ellipse_2_copy_5_2_" class="st9" cx="658" cy="600" r="7"/>
	<circle id="Ellipse_1_copy_2_2_" class="st0" cx="1025" cy="375.3" r="55"/>
	<path class="st0" d="M1097.9,284.3l-16.1-3.6l-7.2,12.5c0,0,45.5,28,44.7,80.4c0,0,2.2,69-75,91.1v57.1l97.7,0.2V312h-37v-26L1097.9,284.3z"/>
	<g id="_13._릴렉스룸_2_">
		<rect id="Rectangle_1_copy_2_" x="1172" y="18" class="st5" width="224" height="35"/>
		<rect id="Rectangle_1_copy_2_2_" x="1172" y="49" class="st5" width="224" height="35"/>
		<rect id="Rectangle_1_copy_3_2_" x="1172" y="80" class="st5" width="224" height="35"/>
		<rect id="Rectangle_1_copy_4_2_" x="1172" y="111" class="st5" width="224" height="36"/>
	</g>
	<rect id="_12._풋스파_2_" x="916" y="18" class="st5" width="234" height="34"/>
	<path id="_11._힐링홀_2_" class="st5" d="M916,168V66h156c0,0,2.6,60.5-48,59c-8.5-0.3-16.7-2.7-24-7c0,0-12.6-4.5-25-2c0,0-17.8,1.9-27,31C948,147,941.5,168.3,916,168z"/>
	<path class="st10" d="M1053,187.5c-7.7-4.2-16.6-6.5-26-6.5l0,0c-30.4,0-55,24.6-55,55l0,0c0,30.4,24.7,55,55.1,55c21.8,0,40.6-12.7,49.5-31H1053V187.5z"/>
	<path id="_9._키즈룸_2_" class="st5" d="M835,231h53c0,0,25,4.5,25,35v153h-78V231z"/>
	<circle id="_8._미디어아트룸_2_" class="st10" cx="896.6" cy="442.8" r="49.1"/>
	<polygon class="st5" points="1077,522 1077,538 1058,538 1058,587 1142,587 1142,541 1142,538 1142,522"/>
	<polygon class="st5" points="987,538 987,550 974,550 974,587 987,587 990,587 1061,587 1061,538"/>
	<path id="_5._구름방_2_" class="st5" d="M767,486h50v19h12v29h-62V486z"/>
	<path id="_4._황토방_2_" class="st5" d="M895,605h-15v-16h-30v110h45V605z"/>
	<g id="_3._패밀리홀_2_">
		<rect x="630" y="631" class="st0" width="202" height="68"/>
		<g>
			<rect x="643" y="641" class="st7" width="6" height="20"/>
			<rect id="Rectangle_5_copy_2_" x="659" y="641" class="st7" width="6" height="20"/>
			<rect id="Rectangle_5_copy_2_2_" x="675" y="641" class="st7" width="6" height="20"/>
			<rect id="Rectangle_5_copy_3_2_" x="696" y="641" class="st7" width="6" height="20"/>
			<rect id="Rectangle_5_copy_4_2_" x="712" y="641" class="st7" width="6" height="20"/>
			<rect id="Rectangle_5_copy_4-2_2_" x="728" y="641" class="st7" width="6" height="20"/>
			<rect id="Rectangle_5_copy_4-3_2_" x="744" y="641" class="st7" width="6" height="20"/>
			<rect id="Rectangle_5_copy_4-4_2_" x="760" y="641" class="st7" width="6" height="20"/>
			<rect id="Rectangle_5_copy_5_2_" x="781" y="641" class="st7" width="6" height="20"/>
			<rect id="Rectangle_5_copy_5-2_2_" x="797" y="641" class="st7" width="6" height="20"/>
			<rect id="Rectangle_5_copy_5-3_2_" x="813" y="641" class="st7" width="6" height="20"/>
		</g>
		<g>
			<rect id="Rectangle_5_copy_6_2_" x="643" y="669" class="st7" width="6" height="20"/>
			<rect id="Rectangle_5_copy_6-2_2_" x="659" y="669" class="st7" width="6" height="20"/>
			<rect id="Rectangle_5_copy_6-3_2_" x="675" y="669" class="st7" width="6" height="20"/>
			<rect id="Rectangle_5_copy_6-4_2_" x="696" y="669" class="st7" width="6" height="20"/>
			<rect id="Rectangle_5_copy_6-5_2_" x="712" y="669" class="st7" width="6" height="20"/>
			<rect id="Rectangle_5_copy_6-6_2_" x="728" y="669" class="st7" width="6" height="20"/>
			<rect id="Rectangle_5_copy_6-7_2_" x="744" y="669" class="st7" width="6" height="20"/>
			<rect id="Rectangle_5_copy_6-8_2_" x="760" y="669" class="st7" width="6" height="20"/>
			<rect id="Rectangle_5_copy_6-9_2_" x="781" y="669" class="st7" width="6" height="20"/>
			<rect id="Rectangle_5_copy_6-10_2_" x="797" y="669" class="st7" width="6" height="20"/>
			<rect id="Rectangle_5_copy_6-11_2_" x="813" y="669" class="st7" width="6" height="20"/>
		</g>
	</g>
	<rect id="_2._소금방_2_" x="550" y="589" class="st5" width="56" height="110"/>
	<rect id="_1._GX룸_2_" x="483" y="589" class="st5" width="70" height="110"/>
	<text transform="matrix(1 0 0 1 955.2001 376)" class="st1 st2 st3">찜질스파</text>
	<rect id="path_2_" x="18" y="404" class="st5" width="41" height="10"/>
</g>
<g id="테두리">
	<g id="전체_4_">
		<path id="전체테두리_4_" class="st11" d="M362,919H243V709H8V601"/>
		<path class="st11" d="M362,919h543V709"/>
	</g>
	<g id="찜질스파-3_4_">
		<path id="찜질스파_copy_3_4_" class="st11" d="M825,476h-68v48H419c3.7-33.9-13-61-13-61c-43.9-77.4-135-44-135-44l11,22l-34,16h-34v83h-54v169h83v210h119c21.7-80.1,83-73,83-73h51v-34h-85v-63h-59v-40h553V596h246V304h-37V157h292V8H906v175h-51v19h-30V476z"/>
	</g>
	<g id="여자_사우나-2_4_">
		<path id="여자_사우나_copy_5_" class="st11" d="M508,234h211v29h106v213h-68v48H419c3.7-33.9-13-61-13-61c-9.1-16-20.2-27.3-32.1-35.1L406,370v-17h102"/>
	</g>
	<g id="남자사우나-2_4_">
		<path id="_01_4_" class="st11" d="M8,709V223 M160,709H17"/>
		<path id="_02_4_" class="st11" d="M160,709V540h54v-83h34l34-16l-11-22l-24-49v-17h-47V233H18"/>
	</g>
	<g id="실내_워터파크-3_4_">
		<path id="_01-2_1_" class="st11" d="M8,233v-45L248,8h382h272.3"/>
		<path id="_02-2_2_" class="st11" d="M373.7,427.8C328.2,398,272,419,272,419"/>
		<path id="_03_3_" class="st11" d="M373.9,427.9L406,370 M658,234h61v-22l0,0V108h-93V16"/>
		<path id="_04_3_" class="st11" d="M271,419L271,419l-24-49v-17h-47V233H11"/>
		<path id="여자_사우나_copy_3_4_" class="st11" d="M508,234h201 M373.9,427.9L406,370v-17h102V230"/>
	</g>
	<g id="푸드코트-3_1_">
		<path id="_02-3123123" class="st12" d="M861.8,184.5v-22l0,0v-104h-93v-97"/>
		<path id="_02-3_1_" class="st13" d="M910,8.5v-4H622v7v1v4v96h93v122v33h106h4h4v-61h30v-19h51L910,8.5L910,8.5z M851,179.5v19h-30v61h-98v-25v-130h-93v-88v-4h272v167H851z"/>
	</g>
	<g id="실내_워터파크" class="st14">
		<g id="찜질스파-3_1_" class="st15">
			<path id="찜질스파_copy_3_1_" class="st16" d="M373,426c-46.1-33-106-11-106-11l2.1,4.1"/>
		</g>
		<g id="여자_사우나-2_2_" class="st15">
			<path id="여자_사우나_copy_4_" class="st16" d="M402,366v-17h102"/>
			<path id="여자_사우나_copy_2_" class="st16" d="M504,230h203"/>
		</g>
		<g id="남자사우나-2_2_" class="st15">
			<path id="_01_2_" class="st16" d="M4,219"/>
			<path id="_02_1_" class="st16" d="M268.4,417.9L243,366v-17h-47V229H14"/>
		</g>
		<g id="실내_워터파크-3_2_" class="st15">
			<path id="_01-2_3_" class="st16" d="M4,233v-49L244,4h382"/>
			<path id="_02-2_1_" class="st16" d="M268,415"/>
			<path id="_03_2_" class="st16" d="M654,230h61v-22l0,0V104h-93V12"/>
			<path id="_04_2_" class="st16" d="M267,415L267,415l-24-49v-17h-47V229H7"/>
			<path id="여자_사우나_copy_3_2_" class="st16" d="M504,230h201 M371.6,420.9L402,366v-17h102V226"/>
		</g>
		<g id="푸드코트-3_2_" class="st15">
			<path id="_02-3_2_" class="st16" d="M715,230v-22l0,0V104h-93V7"/>
		</g>
	</g>
	<g id="사우나" class="st14">
		<g id="전체_2_" class="st15">
			<path id="전체테두리_2_" class="st16" d="M160,705H4V597"/>
		</g>
		<g id="찜질스파-3_2_" class="st15">
			<path id="찜질스파_copy_3_2_" class="st16" d="M278,437l-34,16h-34v83h-54v169"/>
		</g>
		<g id="여자_사우나-2_1_" class="st15">
			<path id="여자_사우나_copy_3_" class="st16" d="M504,230h211v29h106v213h-68v48H415c3.7-33.9-13-61-13-61c-9.1-16-20.2-27.3-32.1-35.1L402,366v-17h102"/>
		</g>
		<g id="남자사우나-2_1_" class="st15">
			<path id="_01_1_" class="st16" d="M4,705V225 M156,705H13"/>
			<path id="_02_2_" class="st16" d="M156,705V536h54v-83h34l34-16l-11-22l-24-49v-17h-47V229H14"/>
		</g>
		<g id="실내_워터파크-3_1_" class="st15">
			<path id="_01-2_4_" class="st16" d="M4,229"/>
			<path id="_02-2_3_" class="st16" d="M369.7,423.8"/>
			<path id="_03_1_" class="st16" d="M654,230h57"/>
			<path id="_04_1_" class="st16" d="M267,415L267,415l-24-49v-17h-47V229H7"/>
			<path id="여자_사우나_copy_3_1_" class="st16" d="M504,230h201 M402,366v-17h102V226"/>
		</g>
	</g>
	<g id="찜질스파" class="st14">
		<g id="전체_3_" class="st15">
			<path id="전체테두리_3_" class="st16" d="M358,915H239V705"/>
			<path class="st16" d="M901,705"/>
			<path class="st16" d="M358,915"/>
		</g>
		<g id="찜질스파-3_3_" class="st15">
			<path id="찜질스파_copy_3_3_" class="st16" d="M821,472h-68v48H415c3.7-33.9-13-61-13-61c-43.9-77.4-135-44-135-44l11,22l-34,16h-34v83h-54v169h83v210h119c21.7-80.1,83-73,83-73h51v-34h-85v-63h-59v-40h553V592h246V300h-37V153h292V4H902v175h-51v19h-30V472z"/>
		</g>
		<g id="여자_사우나-2_3_" class="st15">
			<path id="여자_사우나_copy_7_" class="st16" d="M821,259v213h-68v48H415c3.7-33.9-13-61-13-61c-9.1-16-20.2-27.3-32.1-35.1"/>
		</g>
		<g id="남자사우나-2_3_" class="st15">
			<path id="_01_3_" class="st16" d="M156,705"/>
			<path id="_02_3_" class="st16" d="M156,705V536h54v-83h34l34-16l-11-22"/>
		</g>
		<g id="실내_워터파크-3_3_" class="st15">
			<path id="_02-2_4_" class="st16" d="M369.7,423.8"/>
			<path id="여자_사우나_copy_3_3_" class="st16" d="M369.9,423.9"/>
		</g>
	</g>
	<g id="푸드코트" class="st14">
		<g id="찜질스파-3" class="st15">
			<path id="찜질스파_copy_3_7_" class="st16" d="M902,4v175h-51v19h-30v65"/>
		</g>
		<g id="여자_사우나-2" class="st15">
			<path id="여자_사우나_copy_8_" class="st16" d="M715,230v29h106"/>
		</g>
		<g id="실내_워터파크-3" class="st15">
			<path id="_01-2_6_" class="st16" d="M618,4h288"/>
			<path id="_03" class="st16" d="M715,230v-22l0,0V104h-93V12"/>
		</g>
		<g id="푸드코트-3" class="st15">
			<path id="_02-3" class="st16" d="M715,230v-22l0,0V104h-93V7"/>
		</g>
	</g>
	<g id="기타시설_1_" class="st14">
		<g id="전체_1_" class="st15">
			<path id="전체테두리_5_" class="st16" d="M358,915"/>
			<path class="st16" d="M355.2,915h546.2V705"/>
		</g>
		<g id="찜질스파-3_5_" class="st15">
			<path id="찜질스파_copy_3_6_" class="st16" d="M358.7,912.4C381.1,835.1,441,842,441,842h51v-34h-85v-63h-59v-40h557"/>
		</g>
	</g>
	<g id="기타시설-2">
		<path id="기타시설" class="st13" d="M908.3,709v-4h-561v48h59v63h85v26h-46.8c-2.2-0.2-17.1-1.3-34.6,6.5c-17,7.6-39.8,25.3-51.7,66.7l0.3,0.1v7.7h550.2V709H908.3z M366.6,915c9-29.3,24.5-49.2,46.2-59c16.6-7.5,30.9-6.1,31-6l55.5,0v-42h-85v-63h-59v-32h545.4v202H366.6z"/>
	</g>
</g>
</svg>
