<?xml version="1.0" encoding="utf-8"?>
<!-- Generator: Adobe Illustrator 23.0.1, SVG Export Plug-In . SVG Version: 6.00 Build 0)  -->
<!DOCTYPE svg PUBLIC "-//W3C//DTD SVG 1.1//EN" "http://www.w3.org/Graphics/SVG/1.1/DTD/svg11.dtd">
<svg version="1.1" xmlns="http://www.w3.org/2000/svg" xmlns:xlink="http://www.w3.org/1999/xlink" x="0px" y="0px"
	 viewBox="0 0 1800 941.8" width="1800px" height="941.8px" style="enable-background:new 0 0 1800 941.8;" xml:space="preserve">

<style type="text/css">
	.st0{fill:#AAB7C2;}
	.st1{fill:#FFFFFF;}
	.st2{fill:none;stroke:#F5F5F5;stroke-width:4;}
	.st3{fill:#B6EEFF;stroke:#F5F5F5;stroke-width:4;}
	.st4{fill:#BCB493;stroke:#F5F5F5;stroke-width:4;}
	.st5{fill:#B6EEFF;stroke:#F5F5F5;stroke-width:3;}
	.st6{fill:#FFFFFF;stroke:#F5F5F5;stroke-width:4;}
	.st7{fill:#F5F5F5;stroke:#F5F5F5;stroke-width:3;}
	.st8{fill:#F5F5F5;stroke:#F5F5F5;stroke-width:4;}
	.st9{fill:#F5F5F5;}
	.st10{fill:none;stroke:#F5F5F5;stroke-width:2;}
	.st11{fill:#F8F8F8;stroke:#F5F5F5;stroke-width:4;}
	.st12{fill:none;stroke:#6D6D7C;stroke-width:8;}
	.st13{fill:none;stroke:#F16CFF;stroke-width:4;stroke-miterlimit:10;}
	.st14{fill:#E8E8E8;}
	.st15{fill:#C9C7C5;}
	.st16{fill:none;stroke:#E2E0DE;stroke-miterlimit:10;}
	.st17{fill:none;stroke:#EBF1F2;stroke-miterlimit:10;}
	.st18{fill:#7CE3E8;stroke:#F5F5F5;stroke-width:4;}
	.st19{fill:none;stroke:#EAEAEA;stroke-width:2;stroke-miterlimit:10;}
	.st20{fill:none;stroke:#C9C7C5;stroke-miterlimit:10;}
	.st21{fill:#666666;}
	.st22{font-family:'NotoSansCJKkr-Regular';}
	.st23{font-size:20px;}
	.st24{font-size:14px;}
	.st25{enable-background:new    ;}
	.st26{font-size:16px;}
	.st27{font-size:11px;}
	.st28{fill:none;stroke:#D0D0D0;stroke-width:8;}
	.st29{fill:none;stroke:#6D6D7C;stroke-width:8;stroke-linecap:square;}
</style>
<g id="배경">
	<path id="그림자_1_" class="st0" d="M921.8,941.8v-210v-4v-109h246v-300h-37v-139h292v-157H915.1h-0.3H259.4l-242.7,182v37v10
		v368v108v4h13h139h4h79v210 M634.8,30.8v4"/>
	<path id="bg" class="st1" d="M905,919V709v-4V596h246V296h-37V157h292V0H898.3H898H242.7L0,182v37v10v368v108v4h13h139h4h79v210
		 M618,8v4"/>
</g>
<g id="시설">
	<path class="st2" d="M742.7,102V74h79.6v66h-81.6"/>
	<path class="st2" d="M845,74"/>
	<path class="st2" d="M822.3,74"/>
	<rect x="495" y="185" class="st3" width="38" height="35"/>
	<rect id="Rectangle_13_copy" x="574" y="185" class="st3" width="38" height="35"/>
	<path class="st3" d="M586,62H436V49h-41c-5.5,0-10,4.5-10,10v85c0,5.5,4.5,10,10,10h37h4h150c5.5,0,10-4.5,10-10V72
		C596,66.5,591.5,62,586,62z"/>
	<rect id="_10._미디어_샌드풀" x="528.5" y="185" class="st4" width="50" height="35"/>
	<path class="st3" d="M404,339v-48h56v-22h34v70H404z"/>
	<path class="st3" d="M336,139.3c10.5-10.4,17-24.9,17-40.8c0-31.8-25.7-57.5-57.5-57.5C272.1,41,252,55,243,75c-5.6-2-11.7-3-18-3
		c-30.4,0-55,24.6-55,55s24.6,55,55,55c12,0,23.2-3.9,32.2-10.4c-0.1,1.5-0.2,2.9-0.2,4.4c0,26.5,21.5,48,48,48s48-21.5,48-48
		C353,161.3,346.4,148.1,336,139.3z"/>
	<polygon class="st2" points="225,256 225,227 206,227 206,255 206,259 206,279 246,279 246,256 	"/>
	<rect id="_4._수유실" x="206" y="279" class="st2" width="40" height="30"/>
	<rect id="_3._의무실" x="206" y="309" class="st2" width="40" height="30"/>
	<path class="st5" d="M351.8,301.6c3.1-4.7,5-10.4,5-16.5c0.1-16.6-13.3-30-29.8-30.1c-16.6,0-30.1,13.4-30.1,30
		c0,6.1,1.8,11.8,5,16.6c-13.1,8.3-21.9,22.9-21.9,39.6c0,25.8,20.9,46.7,46.7,46.8c25.9,0.1,46.9-20.8,47-46.7
		C373.7,324.6,365,309.9,351.8,301.6z"/>
	<path class="st2" d="M8,477h109"/>
	<rect x="71" y="229" class="st2" width="44" height="66"/>
	<path class="st2" d="M77,479v41h39"/>
	<path class="st2" d="M136,520h55v-75"/>
	<path class="st2" d="M242,371h-26v74h-76v32h25"/>
	<path class="st2" d="M216,395h26"/>
	<path id="Shape_32_copy" class="st2" d="M216,419h26"/>
	<path class="st2" d="M196,345h-54v-6"/>
	<path id="Shape_12_copy_3" class="st2" d="M196,235h-54v6"/>
	<g id="Group_4_copy_2">
		<path id="Shape_13_copy_4" class="st2" d="M142,309v17"/>
		<path class="st2" d="M196,319h-54"/>
	</g>
	<g id="Group_4_copy_6">
		<path id="Shape_13_copy_4-2" class="st2" d="M142,278v17"/>
		<path class="st2" d="M196,288h-54"/>
	</g>
	<g id="Group_4_copy_7">
		<path id="Shape_13_copy_4-3" class="st2" d="M142,247v17"/>
		<path class="st2" d="M196,257h-54"/>
	</g>
	<rect id="_7._건식_사우나" x="142" y="345" class="st6" width="48" height="76"/>
	<rect id="_6._열탕" x="14" y="253" class="st6" width="32" height="40"/>
	<rect id="_5._온탕" x="14" y="289" class="st6" width="32" height="74"/>
	<rect id="_4._냉탕" x="14" y="359" class="st6" width="32" height="44"/>
	<rect x="47" y="480" class="st7" width="12" height="82"/>
	<rect id="Rectangle_17_copy_2" x="77" y="523" class="st7" width="12" height="39"/>
	<rect id="Rectangle_17_copy_3" x="102" y="523" class="st7" width="12" height="39"/>
	<rect id="Rectangle_17_copy_4" x="74" y="584" class="st7" width="12" height="50"/>
	<rect id="Rectangle_17_copy_4-2" x="101" y="584" class="st7" width="12" height="50"/>
	<rect id="Rectangle_17_copy_5" x="128" y="584" class="st7" width="12" height="50"/>
	<rect id="Rectangle_17_copy_6" x="47" y="584" class="st7" width="12" height="50"/>
	<rect id="Rectangle_17_copy_7" x="74" y="645" class="st7" width="12" height="50"/>
	<rect id="Rectangle_17_copy_7-2" x="101" y="645" class="st7" width="12" height="50"/>
	<rect id="Rectangle_17_copy_7-3" x="128" y="645" class="st7" width="12" height="50"/>
	<rect id="Rectangle_17_copy_7-4" x="47" y="645" class="st7" width="12" height="50"/>
	<rect id="Rectangle_17_copy" x="23" y="480" class="st7" width="6" height="82"/>
	<rect id="Rectangle_17_copy_8" x="23" y="584" class="st7" width="6" height="50"/>
	<rect id="Rectangle_17_copy_9" x="23" y="645" class="st7" width="6" height="50"/>
	<path class="st2" d="M610,367h141v105"/>
	<path class="st2" d="M767,367h33"/>
	<path class="st2" d="M792,368v44"/>
	<path class="st2" d="M821,414h-70"/>
	<path class="st2" d="M788,280v69h33"/>
	<rect x="800" y="281.5" class="st8" width="21" height="4"/>
	<rect id="Rectangle_11_copy" x="800" y="298.5" class="st8" width="21" height="4"/>
	<rect id="Rectangle_11_copy_2" x="800" y="314.5" class="st8" width="21" height="4"/>
	<rect id="Rectangle_11_copy_3" x="800" y="331.5" class="st8" width="21" height="4"/>
	<path class="st2" d="M588,367h-17v24h-43v-44h-24V232"/>
	<path class="st6" d="M529,352h28"/>
	<path class="st2" d="M620,280h-8v37h8"/>
	<g>
		<path class="st2" d="M639.4,280h14"/>
		<path id="Shape_13_copy_4-8" class="st2" d="M639.4,317h14"/>
		<path class="st2" d="M646.4,282v35"/>
	</g>
	<g>
		<path class="st2" d="M668.8,280h14"/>
		<path id="Shape_13_copy_4-8_1_" class="st2" d="M668.8,317h14"/>
		<path class="st2" d="M675.8,282v35"/>
	</g>
	<g>
		<path class="st2" d="M698.2,280h14"/>
		<path id="Shape_13_copy_4-8_2_" class="st2" d="M698.2,317h14"/>
		<path class="st2" d="M705.2,282v35"/>
	</g>
	<g>
		<path class="st2" d="M727.7,280h14"/>
		<path id="Shape_13_copy_4-8_3_" class="st2" d="M727.7,317h14"/>
		<path class="st2" d="M734.7,282v35"/>
	</g>
	<g>
		<path class="st2" d="M757.1,280h14"/>
		<path id="Shape_13_copy_4-8_4_" class="st2" d="M757.1,317h14"/>
		<path class="st2" d="M764.1,282v35"/>
	</g>
	<path class="st2" d="M620,329.8h-8v37h8V391"/>
	<g>
		<path class="st2" d="M639.4,329.8h14"/>
		<path id="Shape_13_copy_4-8_9_" class="st2" d="M639.4,366.8h14"/>
		<path class="st2" d="M646.4,331.8v35"/>
	</g>
	<g>
		<path class="st2" d="M668.8,329.8h14"/>
		<path id="Shape_13_copy_4-8_8_" class="st2" d="M668.8,366.8h14"/>
		<path class="st2" d="M675.8,331.8v35"/>
	</g>
	<g>
		<path class="st2" d="M698.2,329.8h14"/>
		<path id="Shape_13_copy_4-8_7_" class="st2" d="M698.2,366.8h14"/>
		<path class="st2" d="M705.2,331.8v35"/>
	</g>
	<g>
		<path class="st2" d="M727.7,329.8h14"/>
		<path id="Shape_13_copy_4-8_6_" class="st2" d="M727.7,366.8h14"/>
		<path class="st2" d="M734.7,331.8v35"/>
	</g>
	<g>
		<path class="st2" d="M757.1,329.8h14"/>
		<path id="Shape_13_copy_4-8_5_" class="st2" d="M752.1,366.8h19"/>
		<path class="st2" d="M764.1,331.8v35"/>
	</g>
	<path class="st2" d="M709,264h-8"/>
	<path id="Shape_12_copy" class="st2" d="M673,230v34h8"/>
	<g id="Group_4_copy_2-4">
		<path id="Shape_13_copy_4-13" class="st2" d="M638,264h14"/>
		<path class="st2" d="M645,230v34"/>
	</g>
	<g id="Group_4_copy_5">
		<path id="Shape_13_copy_4-14" class="st2" d="M606,264h13"/>
		<path class="st2" d="M613,230v34"/>
	</g>
	<rect id="_6._열탕-2" x="563" y="235" class="st6" width="34" height="38"/>
	<polygon class="st6" points="563,235 510,235 510,270 510,273 510,287 544,287 544,273 563,273 	"/>
	<rect id="Rectangle_10_copy_2" x="510" y="287.5" class="st6" width="34" height="32"/>
	<rect id="Rectangle_10_copy_3" x="510" y="319.5" class="st6" width="34" height="32"/>
	<rect id="_3._노천탕-2" x="426" y="364.8" class="st6" width="80" height="44"/>
	<g id="_1">
		<rect x="713" y="476" class="st7" width="9" height="44"/>
		<rect id="Rectangle_9_copy_10" x="436" y="476" class="st7" width="9" height="44"/>
		<rect id="Rectangle_9_copy" x="685" y="476" class="st7" width="12" height="44"/>
		<rect id="Rectangle_9_copy_2" x="657" y="476" class="st7" width="12" height="44"/>
		<rect id="Rectangle_9_copy_3" x="629" y="476" class="st7" width="12" height="44"/>
		<rect id="Rectangle_9_copy_4" x="601" y="476" class="st7" width="12" height="44"/>
		<rect id="Rectangle_9_copy_5" x="573" y="476" class="st7" width="12" height="44"/>
		<rect id="Rectangle_9_copy_6" x="545" y="476" class="st7" width="12" height="44"/>
		<rect id="Rectangle_9_copy_7" x="517" y="476" class="st7" width="12" height="44"/>
		<rect id="Rectangle_9_copy_8" x="489" y="476" class="st7" width="12" height="44"/>
		<rect id="Rectangle_9_copy_9" x="461" y="476" class="st7" width="12" height="44"/>
	</g>
	<g id="_2">
		<rect id="Rectangle_9_copy_11" x="399" y="420" class="st7" width="6" height="34"/>
		<rect id="Rectangle_9_copy_22" x="724" y="420" class="st7" width="6" height="34"/>
		<rect id="Rectangle_9_copy_12" x="420" y="420" class="st7" width="12" height="34"/>
		<rect id="Rectangle_9_copy_13" x="448" y="420" class="st7" width="12" height="34"/>
		<rect id="Rectangle_9_copy_14" x="476" y="420" class="st7" width="12" height="34"/>
		<rect id="Rectangle_9_copy_15" x="504" y="420" class="st7" width="12" height="34"/>
		<rect id="Rectangle_9_copy_16" x="532" y="420" class="st7" width="12" height="34"/>
		<rect id="Rectangle_9_copy_17" x="560" y="420" class="st7" width="12" height="34"/>
		<rect id="Rectangle_9_copy_18" x="612" y="420" class="st7" width="12" height="34"/>
		<rect id="Rectangle_9_copy_19" x="640" y="420" class="st7" width="12" height="34"/>
		<rect id="Rectangle_9_copy_20" x="668" y="420" class="st7" width="12" height="34"/>
		<rect id="Rectangle_9_copy_21" x="696" y="420" class="st7" width="12" height="34"/>
	</g>
	<path class="st2" d="M380,436l14-19h184"/>
	<path class="st2" d="M610,417h124"/>
	<path class="st6" d="M904,583c0,0,37.6-11.2,38-49h28v49H904z"/>
	<path class="st2" d="M160,630h44l51-51"/>
	<rect x="406" y="604" class="st2" width="74" height="30"/>
	<rect x="160" y="644" class="st9" width="47" height="11"/>
	<rect id="Rectangle_7_copy" x="160" y="665" class="st9" width="47" height="11"/>
	<rect id="Rectangle_7_copy_2" x="160" y="684" class="st9" width="47" height="11"/>
	<rect id="Rectangle_7_copy_3" x="371.1" y="644" class="st9" width="73.9" height="11"/>
	<rect id="Rectangle_7_copy_3-2" x="371.1" y="665" class="st9" width="73.9" height="11"/>
	<rect id="Rectangle_7_copy_3-3" x="371.1" y="684" class="st9" width="73.9" height="11"/>
	<rect id="Rectangle_7_copy_3-3_1_" x="403.1" y="814.3" class="st9" width="82.3" height="11"/>
	<rect x="237" y="658" class="st2" width="108" height="37"/>
	<circle id="Ellipse_3_copy_4" class="st10" cx="994" cy="483" r="17"/>
	<circle id="Ellipse_2_copy_2" class="st9" cx="994" cy="483" r="7"/>
	<circle id="Ellipse_3_copy_5" class="st10" cx="814" cy="596" r="17"/>
	<circle id="Ellipse_2_copy_3" class="st9" cx="814" cy="596" r="7"/>
	<circle id="Ellipse_3_copy_6" class="st10" cx="741" cy="587" r="17"/>
	<circle id="Ellipse_2_copy_4" class="st9" cx="741" cy="587" r="7"/>
	<circle id="Ellipse_3_copy_7" class="st10" cx="654" cy="596" r="17"/>
	<circle id="Ellipse_2_copy_5" class="st9" cx="654" cy="596" r="7"/>
	<circle id="Ellipse_1_copy_2" class="st2" cx="1021" cy="371.3" r="55"/>
	<circle id="Ellipse_1_copy_2_1_" class="st10" cx="1021" cy="371.3" r="45.8"/>
	<circle id="Ellipse_1_copy_2_2_" class="st10" cx="1021" cy="371.3" r="10.5"/>
	<path class="st2" d="M1093.9,280.3l-16.1-3.6l-7.2,12.5c0,0,45.5,28,44.7,80.4c0,0,2.2,69-75,91.1v57.1l97.7,0.2V308h-37v-26
		L1093.9,280.3z"/>
	<g id="_13._릴렉스룸">
		<rect id="Rectangle_1_copy" x="1168" y="14" class="st6" width="224" height="35"/>
		<rect id="Rectangle_1_copy_2" x="1168" y="45" class="st6" width="224" height="35"/>
		<rect id="Rectangle_1_copy_3" x="1168" y="76" class="st6" width="224" height="35"/>
		<rect id="Rectangle_1_copy_4" x="1168" y="107" class="st6" width="224" height="36"/>
	</g>
	<rect id="_12._풋스파" x="912" y="14" class="st6" width="234" height="34"/>
	<path id="_11._힐링홀" class="st6" d="M912,164V62h156c0,0,2.6,60.5-48,59c-8.5-0.3-16.7-2.7-24-7c0,0-12.6-4.5-25-2
		c0,0-17.8,1.9-27,31C944,143,937.5,164.3,912,164z"/>
	<path class="st11" d="M1049,183.5c-7.7-4.2-16.6-6.5-26-6.5l0,0c-30.4,0-55,24.6-55,55l0,0c0,30.4,24.7,55,55.1,55
		c21.8,0,40.6-12.7,49.5-31H1049V183.5z"/>
	<path id="_9._키즈룸" class="st6" d="M831,233h53c0,0,25,4.5,25,35v147h-78V233z"/>
	<circle id="_8._미디어아트룸" class="st11" cx="892.6" cy="438.8" r="49.1"/>
	<polygon class="st6" points="1073,518 1073,534 1054,534 1054,583 1138,583 1138,537 1138,534 1138,518 	"/>
	<polygon class="st6" points="983,534 983,546 970,546 970,583 983,583 986,583 1057,583 1057,534 	"/>
	<path id="_5._구름방" class="st6" d="M763,482h50v19h12v29h-62V482z"/>
	<path id="_4._황토방" class="st6" d="M891,601h-15v-16h-30v110h45V601z"/>
	<g id="_3._패밀리홀">
		<rect x="626" y="627" class="st2" width="202" height="68"/>
		<g>
			<rect x="639" y="637" class="st7" width="6" height="20"/>
			<rect id="Rectangle_5_copy" x="655" y="637" class="st7" width="6" height="20"/>
			<rect id="Rectangle_5_copy_2" x="671" y="637" class="st7" width="6" height="20"/>
			<rect id="Rectangle_5_copy_3" x="692" y="637" class="st7" width="6" height="20"/>
			<rect id="Rectangle_5_copy_4" x="708" y="637" class="st7" width="6" height="20"/>
			<rect id="Rectangle_5_copy_4-2" x="724" y="637" class="st7" width="6" height="20"/>
			<rect id="Rectangle_5_copy_4-3" x="740" y="637" class="st7" width="6" height="20"/>
			<rect id="Rectangle_5_copy_4-4" x="756" y="637" class="st7" width="6" height="20"/>
			<rect id="Rectangle_5_copy_5" x="777" y="637" class="st7" width="6" height="20"/>
			<rect id="Rectangle_5_copy_5-2" x="793" y="637" class="st7" width="6" height="20"/>
			<rect id="Rectangle_5_copy_5-3" x="809" y="637" class="st7" width="6" height="20"/>
		</g>
		<g>
			<rect id="Rectangle_5_copy_6" x="639" y="665" class="st7" width="6" height="20"/>
			<rect id="Rectangle_5_copy_6-2" x="655" y="665" class="st7" width="6" height="20"/>
			<rect id="Rectangle_5_copy_6-3" x="671" y="665" class="st7" width="6" height="20"/>
			<rect id="Rectangle_5_copy_6-4" x="692" y="665" class="st7" width="6" height="20"/>
			<rect id="Rectangle_5_copy_6-5" x="708" y="665" class="st7" width="6" height="20"/>
			<rect id="Rectangle_5_copy_6-6" x="724" y="665" class="st7" width="6" height="20"/>
			<rect id="Rectangle_5_copy_6-7" x="740" y="665" class="st7" width="6" height="20"/>
			<rect id="Rectangle_5_copy_6-8" x="756" y="665" class="st7" width="6" height="20"/>
			<rect id="Rectangle_5_copy_6-9" x="777" y="665" class="st7" width="6" height="20"/>
			<rect id="Rectangle_5_copy_6-10" x="793" y="665" class="st7" width="6" height="20"/>
			<rect id="Rectangle_5_copy_6-11" x="809" y="665" class="st7" width="6" height="20"/>
		</g>
	</g>
	<rect id="_2._소금방" x="546" y="585" class="st6" width="56" height="110"/>
	<rect id="_1._GX룸" x="479" y="585" class="st6" width="70" height="110"/>
	<polyline class="st2" points="216,445 242,445 258.3,429.9 	"/>
	<path class="st12" d="M651,845"/>
	<path class="st13" d="M678.5,884.4"/>
	<path class="st13" d="M678.5,884.4"/>
	<path class="st2" d="M278.9,832.5h3.5c0,0,7.4,31.7,51.6,24.2"/>
	<polyline class="st2" points="308.1,856.3 325.4,763.2 316.1,763.2 316.1,737.1 303.5,737.1 	"/>
	<polyline class="st2" points="294.7,737.1 280.9,737.1 280.9,710.5 294.7,710.5 	"/>
	<polyline class="st2" points="305.5,710.5 316.5,710.5 316.5,737.1 	"/>
	<path class="st2" d="M379.6,785.8c0,0,7.4,13.4,5,24.5h17v-7h-9.9c0,0,1.3-13.1-5.7-17.5H379.6z"/>
	<path class="st2" d="M371.3,760.5v17.3c0,0-4.3-8.1-19.5-12.9"/>
	<rect x="682.8" y="8.2" class="st14" width="7.7" height="14.1"/>
	<rect x="682.8" y="28" class="st14" width="7.7" height="14.1"/>
	<rect x="682.8" y="43.3" class="st14" width="7.7" height="14.1"/>
	<rect x="657.1" y="73" class="st14" width="7.7" height="14.1"/>
	<rect x="657.1" y="88.4" class="st14" width="7.7" height="14.1"/>
	<rect x="637.9" y="73" class="st14" width="7.7" height="14.1"/>
	<rect x="637.9" y="88.4" class="st14" width="7.7" height="14.1"/>
	<rect x="637.9" y="36.5" class="st14" width="7.7" height="14.1"/>
	<rect x="637.9" y="51.8" class="st14" width="7.7" height="14.1"/>
	<rect x="701.3" y="28" class="st14" width="7.7" height="14.1"/>
	<rect x="701.3" y="43.3" class="st14" width="7.7" height="14.1"/>
	<rect x="719.9" y="28" class="st14" width="7.7" height="14.1"/>
	<rect x="719.9" y="43.3" class="st14" width="7.7" height="14.1"/>
	<rect x="760.9" y="28" class="st14" width="7.7" height="14.1"/>
	<rect x="760.9" y="43.3" class="st14" width="7.7" height="14.1"/>
	<rect x="779.5" y="28" class="st14" width="7.7" height="14.1"/>
	<rect x="779.5" y="43.3" class="st14" width="7.7" height="14.1"/>
	<rect x="798.1" y="28" class="st14" width="7.7" height="14.1"/>
	<rect x="798.1" y="43.3" class="st14" width="7.7" height="14.1"/>
	<rect x="836.6" y="28" class="st14" width="7.7" height="14.1"/>
	<rect x="836.6" y="43.3" class="st14" width="7.7" height="14.1"/>
	<rect x="855.4" y="28" class="st14" width="7.7" height="14.1"/>
	<rect x="855.4" y="43.3" class="st14" width="7.7" height="14.1"/>
	<rect x="876.2" y="28" class="st14" width="7.7" height="14.1"/>
	<rect x="876.2" y="43.3" class="st14" width="7.7" height="14.1"/>
	<rect x="701.3" y="8.2" class="st14" width="7.7" height="14.1"/>
	<rect x="719.9" y="8.2" class="st14" width="7.7" height="14.1"/>
	<rect x="738.5" y="8.2" class="st14" width="7.7" height="14.1"/>
	<rect x="757.1" y="8.2" class="st14" width="7.7" height="14.1"/>
	<rect x="775.6" y="8.2" class="st14" width="7.7" height="14.1"/>
	<rect x="794.2" y="8.2" class="st14" width="7.7" height="14.1"/>
	<rect x="812.8" y="8.2" class="st14" width="7.7" height="14.1"/>
	<rect x="831.4" y="8.2" class="st14" width="7.7" height="14.1"/>
	<rect x="850" y="8.2" class="st14" width="7.7" height="14.1"/>
	<rect x="868.5" y="8.2" class="st14" width="7.7" height="14.1"/>
	<path class="st14" d="M894.2,87.7c0,3.7-3,6.7-6.7,6.7s-6.7-3-6.7-6.7c0-3.7,3-6.7,6.7-6.7S894.2,84,894.2,87.7"/>
	<path class="st14" d="M894.2,112.9c0,3.7-3,6.7-6.7,6.7s-6.7-3-6.7-6.7c0-3.7,3-6.7,6.7-6.7S894.2,109.2,894.2,112.9"/>
	<path class="st14" d="M894.2,138.2c0,3.7-3,6.7-6.7,6.7s-6.7-3-6.7-6.7c0-3.7,3-6.7,6.7-6.7S894.2,134.5,894.2,138.2"/>
	<path class="st14" d="M894.2,163.4c0,3.7-3,6.7-6.7,6.7c-3.7,0-6.7-3-6.7-6.7c0-3.7,3-6.7,6.7-6.7
		C891.3,156.7,894.2,159.7,894.2,163.4"/>
	
		<ellipse transform="matrix(0.2298 -0.9732 0.9732 0.2298 -303.607 689.7266)" class="st10" cx="283.9" cy="536.7" rx="17.3" ry="17.3"/>
	<path class="st10" d="M287,533.8c0,3.3-2.7,6-6,6c-3.3,0-6-2.7-6-6c0-3.3,2.7-6,6-6C284.4,527.8,287,530.5,287,533.8z"/>
	
		<ellipse transform="matrix(0.2298 -0.9732 0.9732 0.2298 -225.0848 680.3041)" class="st10" cx="317.3" cy="482.4" rx="17.3" ry="17.3"/>
	<path class="st10" d="M329.2,479.5c0,3.3-2.7,6-6,6s-6-2.7-6-6c0-3.3,2.7-6,6-6S329.2,476.2,329.2,479.5z"/>
	
		<ellipse transform="matrix(0.9239 -0.3827 0.3827 0.9239 -176.9411 167.0672)" class="st10" cx="331.5" cy="528.3" rx="14" ry="14"/>
	
		<ellipse transform="matrix(0.9239 -0.3827 0.3827 0.9239 -175.6803 168.7411)" class="st10" cx="336.3" cy="526" rx="4.8" ry="4.8"/>
	<polyline class="st2" points="60.6,426.3 55,426.3 55,403 14,403 14,463 74,463 74,426.3 66.5,426.3 	"/>
	<polyline class="st2" points="74,425.1 74,403 67.2,403 	"/>
	<line class="st2" x1="719" y1="74" x2="742.7" y2="74"/>
	<g>
		<polygon class="st15" points="321.5,111.4 305.6,120.7 287.4,118.8 273.7,106.5 269.8,88.5 277.2,71.7 293.1,62.5 311.4,64.4 
			325.1,76.7 329,94.6 		"/>
		<line class="st16" x1="299.4" y1="62.9" x2="299.4" y2="120.2"/>
		<line class="st16" x1="328.1" y1="91.6" x2="270.7" y2="91.6"/>
		<line class="st16" x1="279.1" y1="71.3" x2="319.7" y2="111.9"/>
		<line class="st16" x1="319.7" y1="71.3" x2="279.1" y2="111.9"/>
		<path class="st15" d="M306.9,91.6c0,4.2-3.4,7.5-7.5,7.5c-4.2,0-7.5-3.4-7.5-7.5c0-4.2,3.4-7.5,7.5-7.5
			C303.6,84,306.9,87.4,306.9,91.6"/>
		
			<ellipse transform="matrix(0.5257 -0.8507 0.8507 0.5257 64.0864 298.1185)" class="st17" cx="299.4" cy="91.6" rx="7.5" ry="7.5"/>
	</g>
	<polygon class="st15" points="247.2,112.1 236.4,112.1 225.5,112.1 221.5,116.8 221.5,148.2 225.6,152.9 236.4,152.9 247.1,152.9 
		251.3,148.2 251.3,116.8 	"/>
	<rect x="172.3" y="121.4" class="st15" width="58.1" height="22.2"/>
	<g>
		<rect x="303.8" y="164.8" class="st15" width="3.1" height="36.3"/>
		<path class="st15" d="M308.7,164.1c0,1.9-1.5,3.4-3.4,3.4c-1.9,0-3.4-1.5-3.4-3.4c0-1.9,1.5-3.4,3.4-3.4
			C307.2,160.7,308.7,162.2,308.7,164.1"/>
		<path class="st17" d="M308.7,164.1c0,1.9-1.5,3.4-3.4,3.4c-1.9,0-3.4-1.5-3.4-3.4c0-1.9,1.5-3.4,3.4-3.4
			C307.2,160.7,308.7,162.2,308.7,164.1z"/>
		<path class="st15" d="M308.7,202.8c0,1.9-1.5,3.4-3.4,3.4c-1.9,0-3.4-1.5-3.4-3.4c0-1.9,1.5-3.4,3.4-3.4
			C307.2,199.3,308.7,200.9,308.7,202.8"/>
		<path class="st17" d="M308.7,202.8c0,1.9-1.5,3.4-3.4,3.4c-1.9,0-3.4-1.5-3.4-3.4c0-1.9,1.5-3.4,3.4-3.4
			C307.2,199.3,308.7,200.9,308.7,202.8z"/>
		
			<rect x="304.1" y="165.6" transform="matrix(0.7071 -0.7071 0.7071 0.7071 -40.4025 269.9118)" class="st15" width="3.1" height="36.3"/>
		<path class="st15" d="M316.6,199.5c-1.3-1.3-1.3-3.5,0-4.8c1.3-1.3,3.5-1.3,4.8,0c1.3,1.3,1.3,3.5,0,4.8
			C320.1,200.9,317.9,200.9,316.6,199.5"/>
		<circle class="st17" cx="319" cy="197.1" r="3.4"/>
		<path class="st15" d="M289.2,172.2c-1.3-1.3-1.3-3.5,0-4.8c1.3-1.3,3.5-1.3,4.8,0c1.3,1.3,1.3,3.5,0,4.8
			C292.7,173.5,290.6,173.5,289.2,172.2"/>
		<path class="st17" d="M289.2,172.2c-1.3-1.3-1.3-3.5,0-4.8c1.3-1.3,3.5-1.3,4.8,0c1.3,1.3,1.3,3.5,0,4.8
			C292.7,173.5,290.6,173.5,289.2,172.2z"/>
		<rect x="287.6" y="181.9" class="st15" width="36.3" height="3.1"/>
		<path class="st15" d="M324.7,186.8c-1.9,0-3.4-1.5-3.4-3.4c0-1.9,1.5-3.4,3.4-3.4c1.9,0,3.4,1.5,3.4,3.4
			C328.1,185.3,326.5,186.8,324.7,186.8"/>
		<path class="st17" d="M324.7,186.8c-1.9,0-3.4-1.5-3.4-3.4c0-1.9,1.5-3.4,3.4-3.4c1.9,0,3.4,1.5,3.4,3.4
			C328.1,185.3,326.5,186.8,324.7,186.8z"/>
		<path class="st15" d="M286,186.8c-1.9,0-3.4-1.5-3.4-3.4c0-1.9,1.5-3.4,3.4-3.4c1.9,0,3.4,1.5,3.4,3.4
			C289.4,185.3,287.9,186.8,286,186.8"/>
		<path class="st17" d="M286,186.8c-1.9,0-3.4-1.5-3.4-3.4c0-1.9,1.5-3.4,3.4-3.4c1.9,0,3.4,1.5,3.4,3.4
			C289.4,185.3,287.9,186.8,286,186.8z"/>
		
			<rect x="287.5" y="181.6" transform="matrix(0.7071 -0.7071 0.7071 0.7071 -39.9731 269.7419)" class="st15" width="36.3" height="3.1"/>
		<path class="st15" d="M321.4,172.2c-1.3,1.3-3.5,1.3-4.8,0c-1.3-1.3-1.3-3.5,0-4.8c1.3-1.3,3.5-1.3,4.8,0
			C322.7,168.7,322.7,170.8,321.4,172.2"/>
		<path class="st17" d="M321.4,172.2c-1.3,1.3-3.5,1.3-4.8,0c-1.3-1.3-1.3-3.5,0-4.8c1.3-1.3,3.5-1.3,4.8,0
			C322.7,168.7,322.7,170.8,321.4,172.2z"/>
		<path class="st15" d="M294.1,199.5c-1.3,1.3-3.5,1.3-4.8,0c-1.3-1.3-1.3-3.5,0-4.8c1.3-1.3,3.5-1.3,4.8,0
			C295.4,196,295.4,198.2,294.1,199.5"/>
		<path class="st17" d="M294.1,199.5c-1.3,1.3-3.5,1.3-4.8,0c-1.3-1.3-1.3-3.5,0-4.8c1.3-1.3,3.5-1.3,4.8,0
			C295.4,196,295.4,198.2,294.1,199.5z"/>
	</g>
	<line class="st10" x1="385" y1="84.9" x2="596" y2="84.9"/>
	<line class="st10" x1="385" y1="107.4" x2="596" y2="107.4"/>
	<line class="st10" x1="385" y1="129.9" x2="596" y2="129.9"/>
	<path class="st2" d="M336,139.3c10.5-10.4,17-24.9,17-40.8c0-31.8-25.7-57.5-57.5-57.5C272.1,41,252,55,243,75c-5.6-2-11.7-3-18-3
		c-30.4,0-55,24.6-55,55s24.6,55,55,55c12,0,23.2-3.9,32.2-10.4c-0.1,1.5-0.2,2.9-0.2,4.4c0,26.5,21.5,48,48,48s48-21.5,48-48
		C353,161.3,346.4,148.1,336,139.3z"/>
	<circle class="st18" cx="341" cy="134.5" r="17"/>
	<polygon class="st15" points="342,356.8 342,352.4 335,352.4 335,348.9 338.8,345.3 335.8,342 331.1,346.5 329.1,346.5 329.1,333 
		324.6,333 324.6,346.5 322.6,346.5 317.9,342 314.9,345.3 318.7,348.9 318.7,352.4 311.7,352.4 311.7,356.8 318.7,356.8 
		318.7,358.1 313.8,362.8 316.8,366 320.2,362.8 333.5,362.8 336.9,366 339.9,362.8 335,358.1 335,356.8 	"/>
	<rect x="333" y="279" class="st15" width="6.4" height="22"/>
	<path class="st10" d="M67.7,208.5c-5.5,4.1-13.3,3-17.4-2.5l-8.1-10.9c-4.1-5.5-3-13.3,2.5-17.4l51.4-38.3c5.5-4.1,13.3-3,17.4,2.5
		l8.1,10.9c4.1,5.5,3,13.3-2.5,17.4l-6,4.5l6.1,8.2l8.1-6.1c9.3-6.9,11.2-20.1,4.3-29.4l-10-13.4c-6.9-9.3-20.1-11.2-29.4-4.3
		l-55.7,41.5c-9.3,6.9-11.2,20.1-4.3,29.4l10,13.4c6.9,9.3,20.1,11.2,29.4,4.3l30.7-22.9l-6.1-8.2L67.7,208.5z"/>
	<path class="st10" d="M121.7,152.8l-8.1-10.9c-4.1-5.5-11.9-6.6-17.4-2.5l-51.4,38.3c-5.5,4.1-6.6,11.9-2.5,17.4l8.1,10.9
		c4.1,5.5,11.9,6.6,17.4,2.5l28.6-21.3l-2-2.6l-29.6,22.1c-3.4,2.5-8.2,1.8-10.7-1.6l-9.9-13.3c-2.5-3.4-1.8-8.2,1.6-10.7l53.5-39.9
		c3.4-2.5,8.2-1.8,10.7,1.6l9.9,13.3c2.5,3.4,1.8,8.2-1.6,10.7l-7.1,5.3l2,2.6l6-4.5C124.7,166.1,125.8,158.3,121.7,152.8z"/>
	<path class="st10" d="M109.2,169.4l2,2.6l7.1-5.3c3.4-2.5,4.1-7.3,1.6-10.7l-9.9-13.3c-2.5-3.4-7.3-4.1-10.7-1.6l-53.5,39.9
		c-3.4,2.5-4.1,7.3-1.6,10.7l9.9,13.3c2.5,3.4,7.3,4.1,10.7,1.6l29.6-22.1l-2-2.6"/>
	<line class="st10" x1="102.4" y1="195.4" x2="106.7" y2="201.2"/>
	<line class="st10" x1="123.6" y1="188.6" x2="119.2" y2="182.8"/>
	<line class="st10" x1="96.3" y1="187.2" x2="102.4" y2="195.4"/>
	<line class="st10" x1="119.2" y1="182.8" x2="113.2" y2="174.7"/>
	<line class="st10" x1="113.2" y1="174.7" x2="111.2" y2="172.1"/>
	<line class="st10" x1="94.4" y1="184.6" x2="96.3" y2="187.2"/>
	<line class="st10" x1="111.2" y1="172.1" x2="109.2" y2="169.4"/>
	<line class="st10" x1="92.4" y1="182" x2="94.4" y2="184.6"/>
	<g>
		<line class="st19" x1="645" y1="162.4" x2="645" y2="221.7"/>
		<line class="st19" x1="629.5" y1="221.7" x2="629.5" y2="162.4"/>
		<line class="st19" x1="629.5" y1="209.2" x2="645" y2="209.2"/>
		<line class="st19" x1="629.5" y1="209.2" x2="645" y2="209.2"/>
		<line class="st19" x1="629.5" y1="204.4" x2="645" y2="204.4"/>
		<line class="st19" x1="629.5" y1="204.4" x2="645" y2="204.4"/>
		<line class="st19" x1="629.5" y1="199.7" x2="645" y2="199.7"/>
		<line class="st19" x1="629.5" y1="199.7" x2="645" y2="199.7"/>
		<line class="st19" x1="629.5" y1="194.9" x2="645" y2="194.9"/>
		<line class="st19" x1="629.5" y1="194.9" x2="645" y2="194.9"/>
		<line class="st19" x1="629.5" y1="190.2" x2="645" y2="190.2"/>
		<line class="st19" x1="629.5" y1="190.2" x2="645" y2="190.2"/>
		<line class="st19" x1="629.5" y1="185.4" x2="645" y2="185.4"/>
		<line class="st19" x1="629.5" y1="185.4" x2="645" y2="185.4"/>
		<line class="st19" x1="629.5" y1="180.7" x2="645" y2="180.7"/>
		<line class="st19" x1="629.5" y1="180.7" x2="645" y2="180.7"/>
		<line class="st19" x1="629.5" y1="175.9" x2="645" y2="175.9"/>
		<line class="st19" x1="629.5" y1="170.5" x2="645" y2="170.5"/>
		<line class="st19" x1="629.5" y1="162.4" x2="629.5" y2="221.7"/>
		<line class="st19" x1="613.9" y1="221.7" x2="613.9" y2="162.4"/>
		<line class="st19" x1="613.9" y1="209.2" x2="629.5" y2="209.2"/>
		<line class="st19" x1="613.9" y1="209.2" x2="629.5" y2="209.2"/>
		<line class="st19" x1="613.9" y1="204.4" x2="629.5" y2="204.4"/>
		<line class="st19" x1="613.9" y1="204.4" x2="629.5" y2="204.4"/>
		<line class="st19" x1="613.9" y1="199.7" x2="629.5" y2="199.7"/>
		<line class="st19" x1="613.9" y1="199.7" x2="629.5" y2="199.7"/>
		<line class="st19" x1="613.9" y1="194.9" x2="629.5" y2="194.9"/>
		<line class="st19" x1="613.9" y1="194.9" x2="629.5" y2="194.9"/>
		<line class="st19" x1="613.9" y1="190.2" x2="629.5" y2="190.2"/>
		<line class="st19" x1="613.9" y1="190.2" x2="629.5" y2="190.2"/>
		<line class="st19" x1="613.9" y1="185.4" x2="629.5" y2="185.4"/>
		<line class="st19" x1="613.9" y1="185.4" x2="629.5" y2="185.4"/>
		<line class="st19" x1="613.9" y1="180.7" x2="629.5" y2="180.7"/>
		<line class="st19" x1="613.9" y1="180.7" x2="629.5" y2="180.7"/>
		<line class="st19" x1="613.9" y1="175.9" x2="629.5" y2="175.9"/>
		<line class="st19" x1="613.9" y1="170.5" x2="629.5" y2="170.5"/>
		<polyline class="st20" points="636.7,170.5 636.7,209.2 622.3,209.2 622.3,170.5 		"/>
	</g>
	<line class="st2" x1="742.7" y1="102" x2="742.7" y2="140"/>
</g>
<g id="텍스트">
	<text transform="matrix(1 0 0 1 475.9999 881)" class="st21 st22 st23">&#xAE30;&#xD0C0;&#xC2DC;&#xC124;</text>	
	<text transform="matrix(1 0 0 1 752.0998 87.0837)" class="st21 st22 st23">&#xD478;&#xB4DC;&#xCF54;&#xD2B8;</text>
	<text transform="matrix(1 0 0 1 325.5601 228)" class="st21 st22 st23">&#xC2E4;&#xB0B4; &#xC6CC;&#xD130;&#xD30C;&#xD06C;</text>
	<text transform="matrix(1 0 0 1 75.7601 470)" class="st21 st22 st23">&#xB0A8;&#xC790; &#xC0AC;&#xC6B0;&#xB098;</text>
	<text transform="matrix(1 0 0 1 559.7601 372)" class="st21 st22 st23">&#xC5EC;&#xC790; &#xC0AC;&#xC6B0;&#xB098;</text>
	<text transform="matrix(1 0 0 1 951.2001 372)" class="st21 st22 st23">&#xCC1C;&#xC9C8;&#xC2A4;&#xD30C;</text>
</g>
<!-- <g id="전체테두리">
	<g id="전체">
		<g id="실내_워터파크">
			<g id="찜질스파-3_1_">
				<path id="찜질스파_copy_3_11_" class="st28" d="M387.3,520H415"/>
				<path id="찜질스파_copy_3_3_" class="st28" d="M267,415c0,0,50.7-19.7,92.5,5"/>
			</g>
			<g id="여자_사우나-2_2_">
				<path id="여자_사우나_copy_4_" class="st28" d="M402,366v-17h102"/>
				<path id="여자_사우나_copy_2_" class="st28" d="M504,230h203"/>
			</g>
			<g id="남자사우나-2_2_">
				<path id="_01_2_" class="st28" d="M4,219"/>
				<path id="_02_10_" class="st28" d="M243,366v-17h-47V229H14"/>
			</g>
			<g id="실내_워터파크-3_2_">
				<path id="_01-2_3_" class="st28" d="M4,233v-49L244,4h382"/>
				<path id="_02-2_1_" class="st28" d="M268,415"/>
				<path id="_03_2_" class="st28" d="M654,230h61v-22l0,0V104h-93V12"/>
				<path id="_04_2_" class="st28" d="M267,415L267,415l-24-49v-17h-47V229H7"/>
				<path id="여자_사우나_copy_3_2_" class="st28" d="M504,230h201 M387.3,524c0-32.4-18.9-50.7-18.9-50.7l8.9-11.1l-29.4-27.1
					L402,366v-17h102V226"/>
			</g>
			<g id="푸드코트-3_2_">
				<path id="_02-3_2_" class="st28" d="M715,230v-22l0,0V104h-93V7"/>
			</g>
		</g>
		<g id="사우나">
			<g id="전체_2_">
				<path id="전체테두리_2_" class="st28" d="M160,705H4V597"/>
			</g>
			<g id="찜질스파-3_2_">
				<path id="찜질스파_copy_3_12_" class="st28" d="M210,361v86v92h-62v52h39.7v37.2H156v73.2"/>
			</g>
			<g id="여자_사우나-2_1_">
				<path id="여자_사우나_copy_12_" class="st28" d="M402,366v-17h102"/>
				<path id="여자_사우나_copy_7_" class="st28" d="M504,230h211v29h106v213h-68v48H415"/>
			</g>
			<g id="남자사우나-2_1_">
				<path id="_01_1_" class="st28" d="M4,705V225 M156,705H13"/>
				<path id="_02_2_" class="st28" d="M267,415l-24-49v-17h-47V229H14"/>
				<path id="_02_1_" class="st28" d="M210,365"/>
				<path id="_02_3_" class="st28" d="M156,705"/>
			</g>
			<g id="실내_워터파크-3_1_">
				<path id="_01-2_4_" class="st28" d="M4,229"/>
				<path id="_03_1_" class="st28" d="M654,230h57"/>
				<path id="_04_1_" class="st28" d="M268.8,418.6L267,415l-24-49v-17h-47V229H7"/>
				<path id="여자_사우나_copy_3_1_" class="st28" d="M504,230h201 M402,366v-17h102V226"/>
			</g>
		</g>
		<g id="찜질스파">
			<g id="전체_3_">
				<path id="전체테두리_3_" class="st28" d="M358,915H239V705"/>
				<path class="st28" d="M901,705"/>
				<path class="st28" d="M358,915"/>
			</g>
			<g id="찜질스파-3_3_">
				<path id="찜질스파_copy_3_2_" class="st28" d="M267,415"/>
				<path id="찜질스파_copy_3_14_" class="st28" d="M821,472h-68v48"/>
				<path id="찜질스파_copy_3_6_" class="st28" d="M156,705h83v210h119c19.5-76.6,83-73,83-73h51v-34h-85v-63h-59v-40h553V592
					h246V300h-37V153h292V4H902v175h-51v19h-30"/>
				<path id="찜질스파_copy_3_13_" class="st28" d="M210,365"/>
			</g>
			<g id="여자_사우나-2_3_">
				<path id="여자_사우나_copy_11_" class="st28" d="M821,259v213h-68v48"/>
			</g>
			<g id="남자사우나-2_3_">
				<path id="_02_7_" class="st28" d="M243,365h-33"/>
			</g>
		</g>
		<g id="푸드코트">
			<g id="찜질스파-3">
				<path id="찜질스파_copy_3_1_" class="st28" d="M902,4v175h-51v19h-30v30h-44.9v31.3"/>
			</g>
			<g id="실내_워터파크-3">
				<path id="_01-2_6_" class="st28" d="M618,4h288"/>
				<path id="_03" class="st28" d="M715,230v-22l0,0V104h-93V12"/>
			</g>
			<g id="푸드코트-3">
				<path id="_02-3" class="st28" d="M715,230v-22l0,0V104h-93V7"/>
			</g>
		</g>
		<path class="st28" d="M413.5,521c0,0,1.5,43.5-42.5,82v37h78.2v61.8"/>
		<path class="st28" d="M652,845H535v-32l0,0v-56h31v-33h89v16h84"/>
		<path class="st28" d="M740,740h81v-16h69v157H740V740z"/>
		<path class="st28" d="M708.4,881c9,0,31.6,0,31.6,0"/>
		<path class="st28" d="M710.1,881c-16.1,0-19.7-1-25.1-14c-9.6-23.1-26.7-22-33.2-22"/>
	</g>
</g> -->
<g id="Layer_9" opacity="0.6">
	<g id="&#xAE30;&#xD0C0;&#xC2DC;&#xC124;">
		<path id="찜질스파_copy_3_33_" class="st12" d="M387.3,520h30.3"/>
		<path id="찜질스파_copy_3_32_" class="st12" d="M267,415c0,0,50.7-19.7,92.5,5"/>
		<path id="여자_사우나_copy_24_" class="st12" d="M402,366"/>
		<path id="_02_18_" class="st12" d="M243,366"/>
		<path id="_02-2_3_" class="st12" d="M268,415"/>
		<path id="_04_8_" class="st12" d="M267,415L267,415l-24-49"/>
		<path id="여자_사우나_copy_3_11_" class="st12" d="M402,366 M387.3,524c0-32.4-18.9-50.7-18.9-50.7l8.9-11.1l-29.4-27.1
			l11.8-15.1l-0.1-0.1l-1.2-0.7"/>
		<path id="전체테두리_6_" class="st12" d="M160,705"/>
		<path id="찜질스파_copy_3_30_" class="st12" d="M210,361v86v92h-62v52h39.7v37.2H156v73.2"/>
		<path id="여자_사우나_copy_21_" class="st12" d="M402,366"/>
		<path id="여자_사우나_copy_14_" class="st12" d="M412.9,520"/>
		<path id="_01_7_" class="st12" d="M156,705"/>
		<path id="_02_17_" class="st12" d="M267,415l-24-49"/>
		<path id="_02_16_" class="st12" d="M210,365"/>
		<path id="_02_13_" class="st12" d="M156,705"/>
		<path id="_04_7_" class="st12" d="M268.8,418.6L267,415l-24-49"/>
		<path id="여자_사우나_copy_3_10_" class="st12" d="M402,366"/>
		<path id="전체테두리_1_" class="st12" d="M358,915H239V705"/>
		<path class="st12" d="M901,705"/>
		<path class="st12" d="M358,915"/>
		<path id="찜질스파_copy_3_29_" class="st12" d="M267,415"/>
		<path id="찜질스파_copy_3_19_" class="st29" d="M156,705h83v210h119c19.5-76.6,83-73,83-73h51v-34h-85v-63h-59v-40h101.2"/>
		<path id="찜질스파_copy_3_21_" class="st12" d="M210,365"/>
		<path id="_02_8_" class="st12" d="M207.7,365h34.9l0.6,1.6"/>
		<path class="st12" d="M413.5,521c0,0,1.5,43.5-42.5,82v37h78.2v61.8"/>
		<path class="st12" d="M652,845H535v-32l0,0v-56h31v-33h89v16h84"/>
		<path class="st12" d="M740,740h81v-16h69v157H740V740z"/>
		<path class="st12" d="M708.4,881c9,0,31.6,0,31.6,0"/>
		<path class="st12" d="M710.1,881c-16.1,0-19.7-1-25.1-14c-9.6-23.1-26.7-22-33.2-22"/>
	</g>
	<g id="&#xD478;&#xB4DC;&#xCF54;&#xD2B8;">
		<path id="여자_사우나_copy_23_" class="st12" d="M707,230"/>
		<path id="_01-2_14_" class="st12" d="M626,4"/>
		<path id="_03_13_" class="st12" d="M715,230v-22l0,0V104h-93V12"/>
		<path id="여자_사우나_copy_3_9_" class="st12" d="M705,230"/>
		<path id="_02-3_7_" class="st12" d="M715,230v-22l0,0V104h-93V7"/>
		<path id="여자_사우나_copy_19_" class="st12" d="M715,230l0.2,29h64.9"/>
		<path id="_03_12_" class="st12" d="M711,230"/>
		<path id="여자_사우나_copy_3_8_" class="st12" d="M705,230"/>
		<path id="찜질스파_copy_3_26_" class="st12" d="M902,4v175h-51v19h-30"/>
		<path id="여자_사우나_copy_18_" class="st12" d="M779.8,259"/>
		<path id="찜질스파_copy_3_17_" class="st12" d="M902,4v175h-51v19h-30v30h-44.9v31.3"/>
		<path id="_01-2_8_" class="st12" d="M618,4h288"/>
		<path id="_03_9_" class="st12" d="M715,230v-22l0,0V104h-93V12"/>
		<path id="_02-3_6_" class="st12" d="M715,230v-22l0,0V104h-93V7"/>
	</g>
	<g id="&#xC2E4;&#xB0B4; &#xC6CC;&#xD130;&#xD30C;&#xD06C;">
		<path id="찜질스파_copy_3_27_" class="st12" d="M267,415c0,0,50.7-19.7,92.5,5"/>
		<path id="여자_사우나_copy_17_" class="st12" d="M402,366v-17h102"/>
		<path id="여자_사우나_copy_16_" class="st12" d="M504,230h203"/>
		<path id="_01_6_" class="st12" d="M4,219"/>
		<path id="_02_15_" class="st12" d="M243,366v-17h-47V229H14"/>
		<path id="_01-2_10_" class="st12" d="M4,233v-49L244,4h382"/>
		<path id="_02-2_2_" class="st12" d="M268,415"/>
		<path id="_03_8_" class="st12" d="M654,230h61v-22l0,0V104h-93V12"/>
		<path id="_04_4_" class="st12" d="M267,415L267,415l-24-49v-17h-47V229H7"/>
		<path id="여자_사우나_copy_3_7_" class="st12" d="M504,230h201 M357.3,423.1L402,366v-17h102V226"/>
		<path id="_02-3_5_" class="st12" d="M715,230v-22l0,0V104h-93V7"/>
		<path id="여자_사우나_copy_15_" class="st12" d="M402,366v-17h102"/>
		<path id="여자_사우나_copy_13_" class="st12" d="M504,230h211"/>
		<path id="_01_5_" class="st12" d="M4,225"/>
		<path id="_02_14_" class="st12" d="M267,415l-24-49v-17h-47V229H14"/>
		<path id="_01-2_9_" class="st12" d="M4,229"/>
		<path id="_03_7_" class="st12" d="M654,230h57"/>
		<path id="_04_3_" class="st12" d="M268.8,418.6L267,415l-24-49v-17h-47V229H7"/>
		<path id="여자_사우나_copy_3_6_" class="st12" d="M504,230h201 M402,366v-17h102V226"/>
		<path id="찜질스파_copy_3_25_" class="st12" d="M267,415"/>
		<path id="찜질스파_copy_3_31_" class="st12" d="M1402,153V4"/>
		<path id="_02_12_" class="st12" d="M243,365"/>
		<path id="_01-2_11_" class="st12" d="M618,4"/>
		<path id="_03_6_" class="st12" d="M715,230v-22l0,0V104h-93V12"/>
		<path id="_02-3_4_" class="st12" d="M715,230v-22l0,0V104h-93V7"/>
	</g>
	<g id="&#xC0AC;&#xC6B0;&#xB098;">
		<path id="찜질스파_copy_3_20_" class="st12" d="M387.3,520H415"/>
		<path id="찜질스파_copy_3_22_" class="st12" d="M359.5,420"/>
		<path id="여자_사우나_copy_9_" class="st12" d="M402,366v-17h102"/>
		<path id="여자_사우나_copy_8_" class="st12" d="M504,230h203"/>
		<path id="_01_4_" class="st12" d="M4,219"/>
		<path id="_02_9_" class="st12" d="M243,366v-17h-47V229H14"/>
		<path id="_01-2_2_" class="st12" d="M4,233"/>
		<path id="_03_5_" class="st12" d="M654,230h61"/>
		<path id="_04_6_" class="st12" d="M243,366v-17h-47V229H7"/>
		<path id="여자_사우나_copy_3_5_" class="st12" d="M504,230h201 M387.3,524c0-32.4-18.9-50.7-18.9-50.7l8.9-11.1l-29.4-27.1
			L402,366v-17h102V226"/>
		<path id="_02-3_3_" class="st12" d="M715,230"/>
		<path id="전체테두리_4_" class="st12" d="M160,705H4V597"/>
		<path id="찜질스파_copy_3_18_" class="st12" d="M210,361v86v92h-62v52h39.7v37.2H156v73.2"/>
		<path id="여자_사우나_copy_6_" class="st12" d="M402,366v-17h102"/>
		<path id="여자_사우나_copy_5_" class="st12" d="M504,230h211v29h106v213h-68v48H415"/>
		<path id="_01_3_" class="st12" d="M4,705V225 M156,705H13"/>
		<path id="_02_11_" class="st12" d="M243,366v-17h-47V229H14"/>
		<path id="_02_6_" class="st12" d="M210,365"/>
		<path id="_02_5_" class="st12" d="M156,705"/>
		<path id="_01-2_5_" class="st12" d="M4,229"/>
		<path id="_03_4_" class="st12" d="M654,230h57"/>
		<path id="_04_5_" class="st12" d="M243,366v-17h-47V229H7"/>
		<path id="여자_사우나_copy_3_3_" class="st12" d="M504,230h201 M402,366v-17h102V226"/>
		<path id="찜질스파_copy_3_15_" class="st12" d="M821,472h-68v48"/>
		<path id="찜질스파_copy_3_23_" class="st12" d="M348,705"/>
		<path id="찜질스파_copy_3_10_" class="st12" d="M156,705"/>
		<path id="찜질스파_copy_3_9_" class="st12" d="M210,365"/>
		<path id="여자_사우나_copy_3_" class="st12" d="M821,259v213h-68v48"/>
		<path id="_02_4_" class="st12" d="M247,365h-37"/>
		<path id="찜질스파_copy_3_7_" class="st12" d="M776.1,259.3"/>
		<path id="_03_3_" class="st12" d="M715,230"/>
		<path id="_02-3_1_" class="st12" d="M715,230"/>
		<path class="st12" d="M371,640"/>
		<path class="st12" d="M413.5,521"/>
	</g>
	<g id="&#xCC1C;&#xC9C8;&#xC2A4;&#xD30C;">
		<path id="찜질스파_copy_3_16_" class="st12" d="M409.5,520h5.5"/>
		<path id="_01-2_1_" class="st12" d="M244,4"/>
		<path id="여자_사우나_copy_3_4_" class="st12" d="M409.5,524"/>
		<path id="여자_사우나_copy_10_" class="st12" d="M772.1,259H821v213h-68v48H415"/>
		<path class="st12" d="M901,705"/>
		<path id="찜질스파_copy_3_8_" class="st12" d="M821,472h-68v48"/>
		<path id="찜질스파_copy_3_5_" class="st12" d="M445.2,705H901V592h246V300h-37V153h292V4H902v175h-51v19h-30"/>
		<path id="여자_사우나_copy_1_" class="st12" d="M821,259v213h-68v48"/>
		<path id="찜질스파_copy_3_4_" class="st12" d="M902,4v175h-51v19h-30v30h-44.9v31.3"/>
		<path id="_01-2_7_" class="st12" d="M906,4"/>
		<path class="st12" d="M413.5,521c0,0,1.5,43.5-42.5,82v37h78.2v61.8"/>
	</g>
</g>
<g id="Layer_2">
	<g id="floor_4f_5">
		<path id="찜질스파_copy_3_20_" class="st12" d="M387.3,520H415"/>
		<path id="찜질스파_copy_3_22_" class="st12" d="M359.5,420"/>
		<path id="여자_사우나_copy_9_" class="st12" d="M402,366v-17h102"/>
		<path id="여자_사우나_copy_8_" class="st12" d="M504,230h203"/>
		<path id="_01_4_" class="st12" d="M4,219"/>
		<path id="_02_9_" class="st12" d="M243,366v-17h-47V229H14"/>
		<path id="_01-2_2_" class="st12" d="M4,233"/>
		<path id="_03_5_" class="st12" d="M654,230h61"/>
		<path id="_04_6_" class="st12" d="M243,366v-17h-47V229H7"/>
		<path id="여자_사우나_copy_3_5_" class="st12" d="M504,230h201 M387.3,524c0-32.4-18.9-50.7-18.9-50.7l8.9-11.1l-29.4-27.1
			L402,366v-17h102V226"/>
		<path id="_02-3_3_" class="st12" d="M715,230"/>
		<path id="전체테두리_4_" class="st12" d="M160,705H4V597"/>
		<path id="찜질스파_copy_3_18_" class="st12" d="M210,361v86v92h-62v52h39.7v37.2H156v73.2"/>
		<path id="여자_사우나_copy_6_" class="st12" d="M402,366v-17h102"/>
		<path id="여자_사우나_copy_5_" class="st12" d="M504,230h211v29h106v213h-68v48H415"/>
		<path id="_01_3_" class="st12" d="M4,705V225 M156,705H13"/>
		<path id="_02_11_" class="st12" d="M243,366v-17h-47V229H14"/>
		<path id="_02_6_" class="st12" d="M210,365"/>
		<path id="_02_5_" class="st12" d="M156,705"/>
		<path id="_01-2_5_" class="st12" d="M4,229"/>
		<path id="_03_4_" class="st12" d="M654,230h57"/>
		<path id="_04_5_" class="st12" d="M243,366v-17h-47V229H7"/>
		<path id="여자_사우나_copy_3_3_" class="st12" d="M504,230h201 M402,366v-17h102V226"/>
		<path id="찜질스파_copy_3_15_" class="st12" d="M821,472h-68v48"/>
		<path id="찜질스파_copy_3_23_" class="st12" d="M348,705"/>
		<path id="찜질스파_copy_3_10_" class="st12" d="M156,705"/>
		<path id="찜질스파_copy_3_9_" class="st12" d="M210,365"/>
		<path id="여자_사우나_copy_3_" class="st12" d="M821,259v213h-68v48"/>
		<path id="_02_4_" class="st12" d="M247,365h-37"/>
		<path id="찜질스파_copy_3_7_" class="st12" d="M776.1,259.3"/>
		<path id="_03_3_" class="st12" d="M715,230"/>
		<path id="_02-3_1_" class="st12" d="M715,230"/>
		<path class="st12" d="M371,640"/>
		<path class="st12" d="M413.5,521"/>
	</g>
	<g id="floor_4f_4">
		<path id="찜질스파_copy_3_33_" class="st12" d="M387.3,520h30.3"/>
		<path id="찜질스파_copy_3_32_" class="st12" d="M267,415c0,0,50.7-19.7,92.5,5"/>
		<path id="여자_사우나_copy_24_" class="st12" d="M402,366"/>
		<path id="_02_18_" class="st12" d="M243,366"/>
		<path id="_02-2_3_" class="st12" d="M268,415"/>
		<path id="_04_8_" class="st12" d="M267,415L267,415l-24-49"/>
		<path id="여자_사우나_copy_3_11_" class="st12" d="M402,366 M387.3,524c0-32.4-18.9-50.7-18.9-50.7l8.9-11.1l-29.4-27.1
			l11.8-15.1l-0.1-0.1l-1.2-0.7"/>
		<path id="전체테두리_6_" class="st12" d="M160,705"/>
		<path id="찜질스파_copy_3_30_" class="st12" d="M210,361v86v92h-62v52h39.7v37.2H156v73.2"/>
		<path id="여자_사우나_copy_21_" class="st12" d="M402,366"/>
		<path id="여자_사우나_copy_14_" class="st12" d="M412.9,520"/>
		<path id="_01_7_" class="st12" d="M156,705"/>
		<path id="_02_17_" class="st12" d="M267,415l-24-49"/>
		<path id="_02_16_" class="st12" d="M210,365"/>
		<path id="_02_13_" class="st12" d="M156,705"/>
		<path id="_04_7_" class="st12" d="M268.8,418.6L267,415l-24-49"/>
		<path id="여자_사우나_copy_3_10_" class="st12" d="M402,366"/>
		<path id="전체테두리_1_" class="st12" d="M358,915H239V705"/>
		<path class="st12" d="M901,705"/>
		<path class="st12" d="M358,915"/>
		<path id="찜질스파_copy_3_29_" class="st12" d="M267,415"/>
		<path id="찜질스파_copy_3_19_" class="st29" d="M156,705h83v210h119c19.5-76.6,83-73,83-73h51v-34h-85v-63h-59v-40h101.2"/>
		<path id="찜질스파_copy_3_21_" class="st12" d="M210,365"/>
		<path id="_02_8_" class="st12" d="M207.7,365h34.9l0.6,1.6"/>
		<path class="st12" d="M413.5,521c0,0,1.5,43.5-42.5,82v37h78.2v61.8"/>
		<path class="st12" d="M652,845H535v-32l0,0v-56h31v-33h89v16h84"/>
		<path class="st12" d="M740,740h81v-16h69v157H740V740z"/>
		<path class="st12" d="M708.4,881c9,0,31.6,0,31.6,0"/>
		<path class="st12" d="M710.1,881c-16.1,0-19.7-1-25.1-14c-9.6-23.1-26.7-22-33.2-22"/>
	</g>
	<g id="floor_4f_3">
		<path id="찜질스파_copy_3_16_" class="st12" d="M409.5,520h5.5"/>
		<path id="_01-2_1_" class="st12" d="M244,4"/>
		<path id="여자_사우나_copy_3_4_" class="st12" d="M409.5,524"/>
		<path id="여자_사우나_copy_10_" class="st12" d="M772.1,259H821v213h-68v48H415"/>
		<path class="st12" d="M901,705"/>
		<path id="찜질스파_copy_3_8_" class="st12" d="M821,472h-68v48"/>
		<path id="찜질스파_copy_3_5_" class="st12" d="M445.2,705H901V592h246V300h-37V153h292V4H902v175h-51v19h-30"/>
		<path id="여자_사우나_copy_1_" class="st12" d="M821,259v213h-68v48"/>
		<path id="찜질스파_copy_3_4_" class="st12" d="M902,4v175h-51v19h-30v30h-44.9v31.3"/>
		<path id="_01-2_7_" class="st12" d="M906,4"/>
		<path class="st12" d="M413.5,521c0,0,1.5,43.5-42.5,82v37h78.2v61.8"/>
	</g>
	<g id="floor_4f_2">
		<path id="찜질스파_copy_3_27_" class="st12" d="M267,415c0,0,50.7-19.7,92.5,5"/>
		<path id="여자_사우나_copy_17_" class="st12" d="M402,366v-17h102"/>
		<path id="여자_사우나_copy_16_" class="st12" d="M504,230h203"/>
		<path id="_01_6_" class="st12" d="M4,219"/>
		<path id="_02_15_" class="st12" d="M243,366v-17h-47V229H14"/>
		<path id="_01-2_10_" class="st12" d="M4,233v-49L244,4h382"/>
		<path id="_02-2_2_" class="st12" d="M268,415"/>
		<path id="_03_8_" class="st12" d="M654,230h61v-22l0,0V104h-93V12"/>
		<path id="_04_4_" class="st12" d="M267,415L267,415l-24-49v-17h-47V229H7"/>
		<path id="여자_사우나_copy_3_7_" class="st12" d="M504,230h201 M357.3,423.1L402,366v-17h102V226"/>
		<path id="_02-3_5_" class="st12" d="M715,230v-22l0,0V104h-93V7"/>
		<path id="여자_사우나_copy_15_" class="st12" d="M402,366v-17h102"/>
		<path id="여자_사우나_copy_13_" class="st12" d="M504,230h211"/>
		<path id="_01_5_" class="st12" d="M4,225"/>
		<path id="_02_14_" class="st12" d="M267,415l-24-49v-17h-47V229H14"/>
		<path id="_01-2_9_" class="st12" d="M4,229"/>
		<path id="_03_7_" class="st12" d="M654,230h57"/>
		<path id="_04_3_" class="st12" d="M268.8,418.6L267,415l-24-49v-17h-47V229H7"/>
		<path id="여자_사우나_copy_3_6_" class="st12" d="M504,230h201 M402,366v-17h102V226"/>
		<path id="찜질스파_copy_3_25_" class="st12" d="M267,415"/>
		<!-- <path id="찜질스파_copy_3_31_" class="st12" d="M1402,153V4"/> -->
		<path id="_02_12_" class="st12" d="M243,365"/>
		<path id="_01-2_11_" class="st12" d="M618,4"/>
		<path id="_03_6_" class="st12" d="M715,230v-22l0,0V104h-93V12"/>
		<path id="_02-3_4_" class="st12" d="M715,230v-22l0,0V104h-93V7"/>
	</g>
	<g id="floor_4f_1">
		<path id="여자_사우나_copy_23_" class="st12" d="M707,230"/>
		<path id="_01-2_14_" class="st12" d="M626,4"/>
		<path id="_03_13_" class="st12" d="M715,230v-22l0,0V104h-93V12"/>
		<path id="여자_사우나_copy_3_9_" class="st12" d="M705,230"/>
		<path id="_02-3_7_" class="st12" d="M715,230v-22l0,0V104h-93V7"/>
		<path id="여자_사우나_copy_19_" class="st12" d="M715,230l0.2,29h64.9"/>
		<path id="_03_12_" class="st12" d="M711,230"/>
		<path id="여자_사우나_copy_3_8_" class="st12" d="M705,230"/>
		<path id="찜질스파_copy_3_26_" class="st12" d="M902,4v175h-51v19h-30"/>
		<path id="여자_사우나_copy_18_" class="st12" d="M779.8,259"/>
		<path id="찜질스파_copy_3_17_" class="st12" d="M902,4v175h-51v19h-30v30h-44.9v31.3"/>
		<path id="_01-2_8_" class="st12" d="M618,4h288"/>
		<path id="_03_9_" class="st12" d="M715,230v-22l0,0V104h-93V12"/>
		<path id="_02-3_6_" class="st12" d="M715,230v-22l0,0V104h-93V7"/>
	</g>
</g>
</svg>
